;TYPE=PLATED
;Layer: PTH_Through
;EasyEDA Pro v2.2.47.7, 2026-05-23 16:47:23
;Gerber Generator version 0.3
M48
METRIC,LZ,0000.00000
;Hole size 1 = 0.30500 METRIC
T01C0.30500
;Hole size 2 = 0.60000 METRIC
T02C0.60000
;Hole size 3 = 0.70002 METRIC
T03C0.70002
%
G05
G90
T01
X-21.971Y-33.909
X-20.447Y-29.464
X-30.48Y9.144
X-26.2255Y8.5725
X-32.004Y9.017
X-39.116Y6.223
X-8.509Y3.175
X-10.86002Y2.921
X-13.081Y5.207
X-10.414Y10.414
X-8.89Y11.43
X-12.319Y-5.461
X-6.35Y-5.842
X-5.969Y-9.144
X-6.223Y-11.303
X-8.636Y13.208
X-6.985Y0.889
X-40.386Y5.842
X-32.639Y6.731
X-75.184Y20.701
T02
X-6.97404Y3.04107G85X-6.07404Y3.04107
X-6.97403Y11.69109G85X-6.074Y11.69109
X-2.62397Y3.04102G85X-2.02397Y3.04102
X-2.62397Y11.69099G85X-2.02397Y11.69099
X-6.21204Y-23.75593G85X-5.31204Y-23.75593
X-6.21203Y-15.10591G85X-5.312Y-15.10591
X-1.86197Y-23.75599G85X-1.26197Y-23.75599
X-1.86197Y-15.10601G85X-1.26197Y-15.10601
X-25.66093Y-32.39596G85X-25.66093Y-33.29596
X-17.01091Y-32.39597G85X-17.01091Y-33.296
X-25.66098Y-36.74603G85X-25.66098Y-37.34603
X-17.01101Y-36.74603G85X-17.01101Y-37.34603
X-50.58619Y-31.97735G85X-50.58619Y-32.87735
X-41.93617Y-31.97736G85X-41.93617Y-32.87738
X-50.58624Y-36.32742G85X-50.58624Y-36.92741
X-41.93627Y-36.32742G85X-41.93627Y-36.92741
T03
X-73.72598Y-14.70508G85X-75.52595Y-14.70508
X-73.72598Y-1.80492G85X-75.52595Y-1.80492
M30