;TYPE=PLATED
;Layer: PTH_Through_Via
;EasyEDA Pro v2.2.47.7, 2026-05-23 16:47:23
;Gerber Generator version 0.3
M48
METRIC,LZ,0000.00000
;Hole size 1 = 0.30500 METRIC
T01C0.30500
%
G05
G90
T01
X-21.971Y-33.909
X-20.447Y-29.464
X-30.48Y9.144
X-26.2255Y8.5725
X-32.004Y9.017
X-39.116Y6.223
X-8.509Y3.175
X-10.86002Y2.921
X-13.081Y5.207
X-10.414Y10.414
X-8.89Y11.43
X-12.319Y-5.461
X-6.35Y-5.842
X-5.969Y-9.144
X-6.223Y-11.303
X-8.636Y13.208
X-6.985Y0.889
X-40.386Y5.842
X-32.639Y6.731
X-75.184Y20.701
M30