G04 Layer: TopLayer*
G04 EasyEDA Pro v2.2.47.7, 2026-05-23 16:47:23*
G04 Gerber Generator version 0.3*
G04 Scale: 100 percent, Rotated: No, Reflected: No*
G04 Dimensions in millimeters*
G04 Leading zeros omitted, absolute positions, 4 integers and 5 decimals*
G04 Generated by one-click*
G04 Object Configs: Pad,Via,Track,Text,Image,Dimension,BoardOutline,BoardCutout,CopperFilled,SolidRegion,FPCStiffener,Line,PlaneZone,ComponentProperty,ComponentSilkscreen,TearDrop*
G04 Layer Configs: 1,2,3,4,5,6,7,8,9,10,11,13,14,56*
G04 Copper Areas: 51*
%FSLAX45Y45*%
%MOMM*%
%ADD10C,0.2032*%
%ADD11C,0.254*%
%ADD12R,0.8X0.9*%
%ADD13R,0.80648X0.86401*%
%ADD14R,0.86401X0.80648*%
%ADD15R,1.2X0.25001*%
%ADD16R,1.1X0.55001*%
%ADD17R,1.1X0.3*%
%ADD18O,2.0078X1.1*%
%ADD19O,2.0X1.1*%
%ADD20O,1.8X1.2*%
%ADD21R,0.55001X1.1*%
%ADD22R,0.3X1.1*%
%ADD23O,1.1X2.0*%
%ADD24O,1.2X1.8*%
%ADD25R,2.88X1.11999*%
%ADD26O,3.09999X1.2*%
%ADD27C,0.61*%
G75*


G04 Copper Start*
G36*
G01X-7641472Y1955153D02*
G01X-9022Y1955153D01*
G01X-9022Y-2422173D01*
G01X-1513435Y-3926586D01*
G01X-5994400Y-3926586D01*
G01X-6365609Y-3625461D01*
G01X-5506492Y-3625461D01*
G01X-5506492Y-3715461D01*
G01X-5504739Y-3726528D01*
G01X-5499652Y-3736512D01*
G01X-5491729Y-3744435D01*
G01X-5481745Y-3749522D01*
G01X-5470678Y-3751275D01*
G01X-5390678Y-3751275D01*
G01X-5379037Y-3749330D01*
G01X-5368661Y-3743708D01*
G01X-5360675Y-3735018D01*
G01X-5352690Y-3743708D01*
G01X-5342313Y-3749330D01*
G01X-5330673Y-3751275D01*
G01X-5250673Y-3751275D01*
G01X-5239606Y-3749522D01*
G01X-5229622Y-3744435D01*
G01X-5221699Y-3736512D01*
G01X-5216612Y-3726528D01*
G01X-5214859Y-3715461D01*
G01X-5214859Y-3713497D01*
G01X-5152163Y-3713497D01*
G01X-5146373Y-3731218D01*
G01X-5137261Y-3747483D01*
G01X-5125172Y-3761674D01*
G01X-5110563Y-3773257D01*
G01X-5093988Y-3781790D01*
G01X-5076074Y-3786953D01*
G01X-5057500Y-3788549D01*
G01X-5038968Y-3786517D01*
G01X-5021180Y-3780936D01*
G01X-5004810Y-3772015D01*
G01X-4990477Y-3760093D01*
G01X-4978724Y-3745622D01*
G01X-4969997Y-3729148D01*
G01X-4964624Y-3711296D01*
G01X-4962810Y-3692741D01*
G01X-4962810Y-3632742D01*
G01X-4289441Y-3632742D01*
G01X-4289441Y-3692741D01*
G01X-4287600Y-3711434D01*
G01X-4282148Y-3729408D01*
G01X-4273294Y-3745973D01*
G01X-4261378Y-3760492D01*
G01X-4246859Y-3772408D01*
G01X-4230294Y-3781262D01*
G01X-4212320Y-3786714D01*
G01X-4193627Y-3788555D01*
G01X-4174935Y-3786714D01*
G01X-4156961Y-3781262D01*
G01X-4140396Y-3772408D01*
G01X-4125877Y-3760492D01*
G01X-4113961Y-3745973D01*
G01X-4105107Y-3729408D01*
G01X-4099655Y-3711434D01*
G01X-4097813Y-3692741D01*
G01X-4097813Y-3674603D01*
G01X-2661912Y-3674603D01*
G01X-2661912Y-3734603D01*
G01X-2660071Y-3753295D01*
G01X-2654619Y-3771269D01*
G01X-2645765Y-3787834D01*
G01X-2633849Y-3802353D01*
G01X-2619330Y-3814269D01*
G01X-2602765Y-3823123D01*
G01X-2584791Y-3828575D01*
G01X-2566098Y-3830417D01*
G01X-2547406Y-3828575D01*
G01X-2529432Y-3823123D01*
G01X-2512867Y-3814269D01*
G01X-2498348Y-3802353D01*
G01X-2486432Y-3787834D01*
G01X-2477578Y-3771269D01*
G01X-2472126Y-3753295D01*
G01X-2470285Y-3734603D01*
G01X-2470285Y-3674603D01*
G01X-1796915Y-3674603D01*
G01X-1796915Y-3734603D01*
G01X-1795074Y-3753295D01*
G01X-1789622Y-3771269D01*
G01X-1780768Y-3787834D01*
G01X-1768852Y-3802353D01*
G01X-1754333Y-3814269D01*
G01X-1737768Y-3823123D01*
G01X-1719794Y-3828575D01*
G01X-1701101Y-3830417D01*
G01X-1682409Y-3828575D01*
G01X-1664435Y-3823123D01*
G01X-1647870Y-3814269D01*
G01X-1633351Y-3802353D01*
G01X-1621435Y-3787834D01*
G01X-1612581Y-3771269D01*
G01X-1607129Y-3753295D01*
G01X-1605288Y-3734603D01*
G01X-1605288Y-3674603D01*
G01X-1607129Y-3655910D01*
G01X-1612581Y-3637936D01*
G01X-1621435Y-3621371D01*
G01X-1633351Y-3606852D01*
G01X-1647870Y-3594936D01*
G01X-1664435Y-3586082D01*
G01X-1682409Y-3580630D01*
G01X-1701101Y-3578789D01*
G01X-1719794Y-3580630D01*
G01X-1737768Y-3586082D01*
G01X-1754333Y-3594936D01*
G01X-1768852Y-3606852D01*
G01X-1780768Y-3621371D01*
G01X-1789622Y-3637936D01*
G01X-1795074Y-3655910D01*
G01X-1796915Y-3674603D01*
G01X-1796915Y-3674603D01*
G01X-2470285Y-3674603D01*
G01X-2472126Y-3655910D01*
G01X-2477578Y-3637936D01*
G01X-2486432Y-3621371D01*
G01X-2498348Y-3606852D01*
G01X-2512867Y-3594936D01*
G01X-2529432Y-3586082D01*
G01X-2547406Y-3580630D01*
G01X-2566098Y-3578789D01*
G01X-2584791Y-3580630D01*
G01X-2602765Y-3586082D01*
G01X-2619330Y-3594936D01*
G01X-2633849Y-3606852D01*
G01X-2645765Y-3621371D01*
G01X-2654619Y-3637936D01*
G01X-2660071Y-3655910D01*
G01X-2661912Y-3674603D01*
G01X-2661912Y-3674603D01*
G01X-4097813Y-3674603D01*
G01X-4097813Y-3632742D01*
G01X-4099655Y-3614049D01*
G01X-4105107Y-3596075D01*
G01X-4113961Y-3579510D01*
G01X-4125877Y-3564991D01*
G01X-4140396Y-3553075D01*
G01X-4156961Y-3544221D01*
G01X-4174935Y-3538769D01*
G01X-4193627Y-3536928D01*
G01X-4212320Y-3538769D01*
G01X-4230294Y-3544221D01*
G01X-4246859Y-3553075D01*
G01X-4261378Y-3564991D01*
G01X-4273294Y-3579510D01*
G01X-4282148Y-3596075D01*
G01X-4287600Y-3614049D01*
G01X-4289441Y-3632742D01*
G01X-4289441Y-3632742D01*
G01X-4962810Y-3632742D01*
G01X-4964684Y-3613888D01*
G01X-4970230Y-3595772D01*
G01X-4979233Y-3579102D01*
G01X-4991339Y-3564528D01*
G01X-5006077Y-3552622D01*
G01X-5022870Y-3543849D01*
G01X-5041060Y-3538551D01*
G01X-5059937Y-3536937D01*
G01X-5078763Y-3539068D01*
G01X-5096802Y-3544862D01*
G01X-5113347Y-3554092D01*
G01X-5127753Y-3566398D01*
G01X-5139456Y-3581297D01*
G01X-5147999Y-3598208D01*
G01X-5153046Y-3616469D01*
G01X-5216006Y-3616469D01*
G01X-5220776Y-3605743D01*
G01X-5228757Y-3597136D01*
G01X-5239093Y-3591571D01*
G01X-5250673Y-3589647D01*
G01X-5250673Y-3589647D01*
G01X-5330673Y-3589647D01*
G01X-5342313Y-3591592D01*
G01X-5352690Y-3597214D01*
G01X-5360675Y-3605904D01*
G01X-5368661Y-3597214D01*
G01X-5379037Y-3591592D01*
G01X-5390678Y-3589647D01*
G01X-5470678Y-3589647D01*
G01X-5481745Y-3591400D01*
G01X-5491729Y-3596487D01*
G01X-5499652Y-3604410D01*
G01X-5504739Y-3614394D01*
G01X-5506492Y-3625461D01*
G01X-6365609Y-3625461D01*
G01X-7685619Y-2554667D01*
G01X-7684042Y-2393604D01*
G01X-5873361Y-2393604D01*
G01X-5871509Y-2415959D01*
G01X-5866002Y-2437703D01*
G01X-5856992Y-2458245D01*
G01X-5844723Y-2477023D01*
G01X-5829531Y-2493526D01*
G01X-5811830Y-2507303D01*
G01X-5792103Y-2517979D01*
G01X-5770887Y-2525262D01*
G01X-5748762Y-2528954D01*
G01X-5726332Y-2528954D01*
G01X-5704207Y-2525262D01*
G01X-5682991Y-2517979D01*
G01X-5663264Y-2507303D01*
G01X-5645563Y-2493526D01*
G01X-5630371Y-2477023D01*
G01X-5618102Y-2458245D01*
G01X-5609092Y-2437703D01*
G01X-5603585Y-2415959D01*
G01X-5601733Y-2393604D01*
G01X-5603585Y-2371250D01*
G01X-5609092Y-2349506D01*
G01X-5618102Y-2328964D01*
G01X-5630371Y-2310186D01*
G01X-5645563Y-2293683D01*
G01X-5663264Y-2279905D01*
G01X-5682991Y-2269229D01*
G01X-5704207Y-2261946D01*
G01X-5726332Y-2258254D01*
G01X-5748762Y-2258254D01*
G01X-5770887Y-2261946D01*
G01X-5792103Y-2269229D01*
G01X-5811830Y-2279905D01*
G01X-5829531Y-2293683D01*
G01X-5844723Y-2310186D01*
G01X-5856992Y-2328964D01*
G01X-5866002Y-2349506D01*
G01X-5871509Y-2371250D01*
G01X-5873361Y-2393604D01*
G01X-5873361Y-2393604D01*
G01X-7684042Y-2393604D01*
G01X-7675006Y-1470508D01*
G01X-7653410Y-1470508D01*
G01X-7651569Y-1489200D01*
G01X-7646116Y-1507174D01*
G01X-7637262Y-1523739D01*
G01X-7625347Y-1538258D01*
G01X-7610827Y-1550174D01*
G01X-7594262Y-1559028D01*
G01X-7576288Y-1564480D01*
G01X-7557596Y-1566321D01*
G01X-7432821Y-1566321D01*
G01X-7421360Y-1570940D01*
G01X-7409104Y-1572514D01*
G01X-6654800Y-1572514D01*
G01X-6654800Y-1572514D01*
G01X-6642244Y-1570861D01*
G01X-6630543Y-1566014D01*
G01X-6620495Y-1558305D01*
G01X-6549299Y-1487108D01*
G01X-6541589Y-1477061D01*
G01X-6536743Y-1465360D01*
G01X-6535090Y-1452804D01*
G01X-6535090Y-1267300D01*
G01X-6439604Y-1267300D01*
G01X-6428536Y-1265547D01*
G01X-6418553Y-1260460D01*
G01X-6410629Y-1252537D01*
G01X-6405542Y-1242553D01*
G01X-6403790Y-1231486D01*
G01X-6403790Y-1119487D01*
G01X-6405542Y-1108420D01*
G01X-6410629Y-1098436D01*
G01X-6418553Y-1090513D01*
G01X-6428536Y-1085426D01*
G01X-6439604Y-1083673D01*
G01X-6727604Y-1083673D01*
G01X-6738671Y-1085426D01*
G01X-6748655Y-1090513D01*
G01X-6756578Y-1098436D01*
G01X-6761665Y-1108420D01*
G01X-6763418Y-1119487D01*
G01X-6763418Y-1231486D01*
G01X-6761665Y-1242553D01*
G01X-6756578Y-1252537D01*
G01X-6748655Y-1260460D01*
G01X-6738671Y-1265547D01*
G01X-6727604Y-1267300D01*
G01X-6632118Y-1267300D01*
G01X-6632118Y-1432709D01*
G01X-6674895Y-1475486D01*
G01X-7271912Y-1475486D01*
G01X-7272871Y-1456107D01*
G01X-7277714Y-1437319D01*
G01X-7286243Y-1419892D01*
G01X-7298108Y-1404541D01*
G01X-7312822Y-1391894D01*
G01X-7329783Y-1382471D01*
G01X-7348294Y-1376658D01*
G01X-7367596Y-1374694D01*
G01X-7557596Y-1374694D01*
G01X-7576288Y-1376535D01*
G01X-7594262Y-1381987D01*
G01X-7610827Y-1390841D01*
G01X-7625347Y-1402757D01*
G01X-7637262Y-1417276D01*
G01X-7646116Y-1433841D01*
G01X-7651569Y-1451815D01*
G01X-7653410Y-1470508D01*
G01X-7675006Y-1470508D01*
G01X-7670219Y-981499D01*
G01X-6763418Y-981499D01*
G01X-6761665Y-992566D01*
G01X-6756578Y-1002550D01*
G01X-6748655Y-1010473D01*
G01X-6738671Y-1015560D01*
G01X-6727604Y-1017313D01*
G01X-6439604Y-1017313D01*
G01X-6428536Y-1015560D01*
G01X-6418553Y-1010473D01*
G01X-6410629Y-1002550D01*
G01X-6405542Y-992566D01*
G01X-6403790Y-981499D01*
G01X-6403790Y-948614D01*
G01X-6388804Y-948614D01*
G01X-6376247Y-946961D01*
G01X-6364547Y-942114D01*
G01X-6354499Y-934404D01*
G01X-6289029Y-868934D01*
G01X-3982720Y-868934D01*
G01X-3970164Y-867281D01*
G01X-3958463Y-862434D01*
G01X-3948415Y-854725D01*
G01X-3822977Y-729286D01*
G01X-3822977Y-746119D01*
G01X-4001099Y-924241D01*
G01X-4583159Y-924241D01*
G01X-4595715Y-925894D01*
G01X-4607416Y-930740D01*
G01X-4617464Y-938450D01*
G01X-4635424Y-956411D01*
G01X-4643134Y-966458D01*
G01X-4647981Y-978159D01*
G01X-4649634Y-990715D01*
G01X-4649634Y-3056322D01*
G01X-4676260Y-3056322D01*
G01X-4676260Y-2985181D01*
G01X-4677575Y-2975568D01*
G01X-4681422Y-2966660D01*
G01X-4687519Y-2959111D01*
G01X-4695418Y-2953476D01*
G01X-4704541Y-2950169D01*
G01X-4695418Y-2946861D01*
G01X-4687519Y-2941227D01*
G01X-4681422Y-2933678D01*
G01X-4677575Y-2924770D01*
G01X-4676260Y-2915156D01*
G01X-4676260Y-2834509D01*
G01X-4678013Y-2823442D01*
G01X-4683100Y-2813458D01*
G01X-4691023Y-2805535D01*
G01X-4701007Y-2800448D01*
G01X-4712074Y-2798695D01*
G01X-4798475Y-2798695D01*
G01X-4809542Y-2800448D01*
G01X-4819526Y-2805535D01*
G01X-4827449Y-2813458D01*
G01X-4832536Y-2823442D01*
G01X-4834289Y-2834509D01*
G01X-4834289Y-2915156D01*
G01X-4832975Y-2924770D01*
G01X-4829128Y-2933678D01*
G01X-4823031Y-2941227D01*
G01X-4815131Y-2946861D01*
G01X-4806009Y-2950169D01*
G01X-4815131Y-2953476D01*
G01X-4823031Y-2959111D01*
G01X-4829128Y-2966660D01*
G01X-4832975Y-2975568D01*
G01X-4834289Y-2985181D01*
G01X-4834289Y-3065829D01*
G01X-4833059Y-3075136D01*
G01X-4829452Y-3083803D01*
G01X-4823717Y-3091236D01*
G01X-4816247Y-3096922D01*
G01X-4827368Y-3098735D01*
G01X-4838617Y-3096922D01*
G01X-4893618Y-3096922D01*
G01X-4899971Y-3097490D01*
G01X-4906123Y-3099176D01*
G01X-4912274Y-3097490D01*
G01X-4918627Y-3096922D01*
G01X-4973628Y-3096922D01*
G01X-4984875Y-3098734D01*
G01X-4994984Y-3103986D01*
G01X-5002932Y-3112146D01*
G01X-5007915Y-3122390D01*
G01X-5023613Y-3113934D01*
G01X-5040661Y-3108708D01*
G01X-5058401Y-3106914D01*
G01X-5076149Y-3108620D01*
G01X-5093222Y-3113762D01*
G01X-5108961Y-3122141D01*
G01X-5122760Y-3133433D01*
G01X-5134087Y-3147204D01*
G01X-5142504Y-3162922D01*
G01X-5147688Y-3179983D01*
G01X-5149438Y-3197727D01*
G01X-5149438Y-3287727D01*
G01X-5147519Y-3306298D01*
G01X-5141843Y-3324084D01*
G01X-5132650Y-3340333D01*
G01X-5120328Y-3354359D01*
G01X-5105399Y-3365569D01*
G01X-5088492Y-3373489D01*
G01X-5070323Y-3377784D01*
G01X-5051660Y-3378273D01*
G01X-5033291Y-3374936D01*
G01X-5015993Y-3367913D01*
G01X-5000497Y-3357500D01*
G01X-4987457Y-3344139D01*
G01X-4977425Y-3328394D01*
G01X-4969247Y-3340402D01*
G01X-4958791Y-3350488D01*
G01X-4946497Y-3358228D01*
G01X-4932881Y-3363296D01*
G01X-4918518Y-3365480D01*
G01X-4904012Y-3364686D01*
G01X-4889973Y-3360948D01*
G01X-4876992Y-3354424D01*
G01X-4865616Y-3345389D01*
G01X-4856323Y-3334222D01*
G01X-4849504Y-3321393D01*
G01X-4845447Y-3307443D01*
G01X-4844322Y-3292959D01*
G01X-4846176Y-3278550D01*
G01X-4838617Y-3278550D01*
G01X-4827368Y-3276737D01*
G01X-4816119Y-3278550D01*
G01X-4786119Y-3278550D01*
G01X-4776113Y-3277124D01*
G01X-4766107Y-3278550D01*
G01X-4736107Y-3278550D01*
G01X-4726113Y-3277127D01*
G01X-4716119Y-3278550D01*
G01X-4686034Y-3278550D01*
G01X-4678324Y-3288597D01*
G01X-4661981Y-3304941D01*
G01X-4651933Y-3312650D01*
G01X-4640233Y-3317497D01*
G01X-4627676Y-3319150D01*
G01X-4574563Y-3319150D01*
G01X-4562007Y-3317497D01*
G01X-4550306Y-3312650D01*
G01X-4540258Y-3304941D01*
G01X-4523915Y-3288597D01*
G01X-4516205Y-3278550D01*
G01X-4486120Y-3278550D01*
G01X-4476113Y-3277124D01*
G01X-4466107Y-3278550D01*
G01X-4436107Y-3278550D01*
G01X-4424858Y-3276737D01*
G01X-4413609Y-3278550D01*
G01X-4406050Y-3278550D01*
G01X-4407905Y-3292957D01*
G01X-4406780Y-3307440D01*
G01X-4402725Y-3321388D01*
G01X-4395908Y-3334215D01*
G01X-4386618Y-3345382D01*
G01X-4375244Y-3354418D01*
G01X-4362266Y-3360943D01*
G01X-4348230Y-3364683D01*
G01X-4333726Y-3365480D01*
G01X-4319364Y-3363301D01*
G01X-4305749Y-3358238D01*
G01X-4293454Y-3350503D01*
G01X-4282996Y-3340422D01*
G01X-4274815Y-3328419D01*
G01X-4264779Y-3344159D01*
G01X-4251737Y-3357515D01*
G01X-4236240Y-3367923D01*
G01X-4218942Y-3374941D01*
G01X-4200575Y-3378275D01*
G01X-4181914Y-3377782D01*
G01X-4163748Y-3373485D01*
G01X-4146844Y-3365563D01*
G01X-4131917Y-3354353D01*
G01X-4119598Y-3340328D01*
G01X-4110407Y-3324080D01*
G01X-4104732Y-3306296D01*
G01X-4102813Y-3287727D01*
G01X-4102813Y-3197727D01*
G01X-4104564Y-3179983D01*
G01X-4109748Y-3162922D01*
G01X-4118165Y-3147204D01*
G01X-4129491Y-3133433D01*
G01X-4143290Y-3122141D01*
G01X-4159030Y-3113762D01*
G01X-4176103Y-3108620D01*
G01X-4193851Y-3106914D01*
G01X-4211591Y-3108708D01*
G01X-4228639Y-3113934D01*
G01X-4244337Y-3122390D01*
G01X-4249320Y-3112146D01*
G01X-4257268Y-3103986D01*
G01X-4267377Y-3098734D01*
G01X-4278623Y-3096922D01*
G01X-4333625Y-3096922D01*
G01X-4339971Y-3097489D01*
G01X-4346116Y-3099171D01*
G01X-4352262Y-3097489D01*
G01X-4358608Y-3096922D01*
G01X-4383970Y-3096922D01*
G01X-4378534Y-3086678D01*
G01X-4376656Y-3075234D01*
G01X-4376656Y-2994586D01*
G01X-4377970Y-2984972D01*
G01X-4381817Y-2976064D01*
G01X-4387914Y-2968516D01*
G01X-4395814Y-2962881D01*
G01X-4404936Y-2959573D01*
G01X-4395814Y-2956266D01*
G01X-4387914Y-2950631D01*
G01X-4381817Y-2943083D01*
G01X-4377970Y-2934175D01*
G01X-4376656Y-2924561D01*
G01X-4376656Y-2843913D01*
G01X-4378409Y-2832846D01*
G01X-4383496Y-2822862D01*
G01X-4391419Y-2814939D01*
G01X-4401403Y-2809852D01*
G01X-4412470Y-2808099D01*
G01X-4498871Y-2808099D01*
G01X-4502618Y-2808296D01*
G01X-4502618Y-1061909D01*
G01X-3964170Y-1061909D01*
G01X-3951614Y-1060256D01*
G01X-3939913Y-1055409D01*
G01X-3929866Y-1047699D01*
G01X-3699519Y-817352D01*
G01X-3691809Y-807305D01*
G01X-3686962Y-795604D01*
G01X-3685309Y-783048D01*
G01X-3685309Y356375D01*
G01X-3565713Y356375D01*
G01X-3554258Y351761D01*
G01X-3542010Y350190D01*
G01X-3456610Y350190D01*
G01X-3452216Y350389D01*
G01X-3396610Y350389D01*
G01X-3385543Y352142D01*
G01X-3375559Y357229D01*
G01X-3367636Y365152D01*
G01X-3362549Y375136D01*
G01X-3360796Y386203D01*
G01X-3360796Y411204D01*
G01X-3361516Y418350D01*
G01X-3363647Y425209D01*
G01X-3361516Y432067D01*
G01X-3360796Y439213D01*
G01X-3360796Y464214D01*
G01X-3361515Y471353D01*
G01X-3363642Y478206D01*
G01X-3361515Y485058D01*
G01X-3360796Y492197D01*
G01X-3360796Y517199D01*
G01X-3361516Y524344D01*
G01X-3363647Y531203D01*
G01X-3361516Y538061D01*
G01X-3360796Y545207D01*
G01X-3360796Y570208D01*
G01X-3361515Y577347D01*
G01X-3363642Y584200D01*
G01X-3361515Y591053D01*
G01X-3360796Y598192D01*
G01X-3360796Y623193D01*
G01X-3360845Y625064D01*
G01X-3354051Y624586D01*
G01X-3309110Y624586D01*
G01X-3296739Y615488D01*
G01X-3282606Y609479D01*
G01X-3267471Y606882D01*
G01X-3252144Y607836D01*
G01X-3237447Y612290D01*
G01X-3224169Y620006D01*
G01X-3213022Y630568D01*
G01X-3204603Y643411D01*
G01X-3199364Y657847D01*
G01X-3197586Y673100D01*
G01X-3199364Y688353D01*
G01X-3204603Y702789D01*
G01X-3213022Y715632D01*
G01X-3224169Y726194D01*
G01X-3237447Y733910D01*
G01X-3252144Y738364D01*
G01X-3267471Y739318D01*
G01X-3282606Y736721D01*
G01X-3296739Y730712D01*
G01X-3309110Y721614D01*
G01X-3333956Y721614D01*
G01X-3350749Y738407D01*
G01X-3356204Y743107D01*
G01X-3362294Y746947D01*
G01X-3360796Y757196D01*
G01X-3360796Y782197D01*
G01X-3362549Y793264D01*
G01X-3367636Y803248D01*
G01X-3375559Y811171D01*
G01X-3385543Y816258D01*
G01X-3396610Y818011D01*
G01X-3452216Y818011D01*
G01X-3456610Y818210D01*
G01X-3538355Y818210D01*
G01X-3546791Y822762D01*
G01X-3555958Y825567D01*
G01X-3565498Y826514D01*
G01X-3587984Y826514D01*
G01X-3587984Y895900D01*
G01X-3589737Y906967D01*
G01X-3590532Y908529D01*
G01X-3266362Y908529D01*
G01X-3266082Y892568D01*
G01X-3261997Y877136D01*
G01X-3254342Y863128D01*
G01X-3243562Y851355D01*
G01X-3239607Y844933D01*
G01X-3234705Y839201D01*
G01X-3190165Y794662D01*
G01X-3191840Y788529D01*
G01X-3192404Y782197D01*
G01X-3192404Y757196D01*
G01X-3191685Y750057D01*
G01X-3189558Y743204D01*
G01X-3191685Y736351D01*
G01X-3192404Y729212D01*
G01X-3192404Y704211D01*
G01X-3191684Y697065D01*
G01X-3189553Y690207D01*
G01X-3191684Y683348D01*
G01X-3192404Y676203D01*
G01X-3192404Y651201D01*
G01X-3191684Y644056D01*
G01X-3189553Y637197D01*
G01X-3191684Y630339D01*
G01X-3192404Y623193D01*
G01X-3192404Y598192D01*
G01X-3191685Y591053D01*
G01X-3189558Y584200D01*
G01X-3191685Y577347D01*
G01X-3192404Y570208D01*
G01X-3192404Y545207D01*
G01X-3191684Y538061D01*
G01X-3189553Y531203D01*
G01X-3191684Y524344D01*
G01X-3192404Y517199D01*
G01X-3192404Y492197D01*
G01X-3191685Y485058D01*
G01X-3189558Y478206D01*
G01X-3191685Y471353D01*
G01X-3192404Y464214D01*
G01X-3192404Y439213D01*
G01X-3191684Y432067D01*
G01X-3189553Y425209D01*
G01X-3191684Y418350D01*
G01X-3192404Y411204D01*
G01X-3192404Y386203D01*
G01X-3190651Y375136D01*
G01X-3185564Y365152D01*
G01X-3177641Y357229D01*
G01X-3167657Y352142D01*
G01X-3156590Y350389D01*
G01X-3100984Y350389D01*
G01X-3096590Y350190D01*
G01X-3011190Y350190D01*
G01X-3010159Y350201D01*
G01X-3010159Y-1083629D01*
G01X-3008506Y-1096185D01*
G01X-3003659Y-1107886D01*
G01X-2995949Y-1117933D01*
G01X-2238014Y-1875869D01*
G01X-2238014Y-1875869D01*
G01X-2238014Y-2807626D01*
G01X-2303800Y-2807626D01*
G01X-2314867Y-2809379D01*
G01X-2324851Y-2814466D01*
G01X-2332774Y-2822389D01*
G01X-2337861Y-2832373D01*
G01X-2339614Y-2843440D01*
G01X-2339614Y-2924087D01*
G01X-2338300Y-2933701D01*
G01X-2334453Y-2942609D01*
G01X-2328356Y-2950158D01*
G01X-2320456Y-2955793D01*
G01X-2311334Y-2959100D01*
G01X-2320456Y-2962407D01*
G01X-2328356Y-2968042D01*
G01X-2334453Y-2975591D01*
G01X-2338300Y-2984499D01*
G01X-2339614Y-2994113D01*
G01X-2339614Y-3074760D01*
G01X-2337802Y-3086008D01*
G01X-2332550Y-3096117D01*
G01X-2324388Y-3104065D01*
G01X-2314143Y-3109048D01*
G01X-2314143Y-3138783D01*
G01X-2323593Y-3138783D01*
G01X-2334842Y-3140596D01*
G01X-2346091Y-3138783D01*
G01X-2401092Y-3138783D01*
G01X-2407445Y-3139351D01*
G01X-2413597Y-3141037D01*
G01X-2419748Y-3139351D01*
G01X-2426101Y-3138783D01*
G01X-2481102Y-3138783D01*
G01X-2492349Y-3140595D01*
G01X-2502458Y-3145847D01*
G01X-2510406Y-3154007D01*
G01X-2515389Y-3164251D01*
G01X-2531087Y-3155795D01*
G01X-2548135Y-3150569D01*
G01X-2565875Y-3148775D01*
G01X-2583623Y-3150481D01*
G01X-2600696Y-3155623D01*
G01X-2616436Y-3164002D01*
G01X-2630234Y-3175294D01*
G01X-2641561Y-3189065D01*
G01X-2649978Y-3204784D01*
G01X-2655162Y-3221844D01*
G01X-2656912Y-3239588D01*
G01X-2656912Y-3329588D01*
G01X-2654993Y-3348159D01*
G01X-2649317Y-3365945D01*
G01X-2640124Y-3382194D01*
G01X-2627802Y-3396220D01*
G01X-2612873Y-3407430D01*
G01X-2595966Y-3415350D01*
G01X-2577798Y-3419645D01*
G01X-2559134Y-3420135D01*
G01X-2540766Y-3416797D01*
G01X-2523467Y-3409774D01*
G01X-2507971Y-3399362D01*
G01X-2494931Y-3386001D01*
G01X-2484899Y-3370255D01*
G01X-2476721Y-3382263D01*
G01X-2466265Y-3392349D01*
G01X-2453971Y-3400089D01*
G01X-2440355Y-3405158D01*
G01X-2425992Y-3407341D01*
G01X-2411486Y-3406547D01*
G01X-2397447Y-3402809D01*
G01X-2384466Y-3396286D01*
G01X-2373090Y-3387250D01*
G01X-2363797Y-3376083D01*
G01X-2356978Y-3363255D01*
G01X-2352921Y-3349305D01*
G01X-2351796Y-3334820D01*
G01X-2353650Y-3320411D01*
G01X-2346091Y-3320411D01*
G01X-2334842Y-3318599D01*
G01X-2323593Y-3320411D01*
G01X-2293593Y-3320411D01*
G01X-2283587Y-3318985D01*
G01X-2273581Y-3320411D01*
G01X-2245614Y-3320411D01*
G01X-2245614Y-3345690D01*
G01X-2255043Y-3358649D01*
G01X-2261088Y-3373491D01*
G01X-2263396Y-3389350D01*
G01X-2261832Y-3405299D01*
G01X-2256487Y-3420408D01*
G01X-2247674Y-3433793D01*
G01X-2235908Y-3444673D01*
G01X-2221874Y-3452412D01*
G01X-2206394Y-3456560D01*
G01X-2190371Y-3456872D01*
G01X-2174741Y-3453331D01*
G01X-2160417Y-3446144D01*
G01X-2148235Y-3435731D01*
G01X-2138908Y-3422699D01*
G01X-2132978Y-3407810D01*
G01X-2130794Y-3391934D01*
G01X-2132482Y-3375997D01*
G01X-2137944Y-3360931D01*
G01X-2135150Y-3361011D01*
G01X-2082037Y-3361011D01*
G01X-2069481Y-3359358D01*
G01X-2057780Y-3354512D01*
G01X-2047733Y-3346802D01*
G01X-2031389Y-3330458D01*
G01X-2023679Y-3320411D01*
G01X-1993594Y-3320411D01*
G01X-1983588Y-3318985D01*
G01X-1973581Y-3320411D01*
G01X-1943581Y-3320411D01*
G01X-1932332Y-3318599D01*
G01X-1921083Y-3320411D01*
G01X-1913524Y-3320411D01*
G01X-1915379Y-3334818D01*
G01X-1914254Y-3349301D01*
G01X-1910199Y-3363249D01*
G01X-1903382Y-3376077D01*
G01X-1894092Y-3387243D01*
G01X-1882718Y-3396279D01*
G01X-1869741Y-3402805D01*
G01X-1855704Y-3406544D01*
G01X-1841200Y-3407342D01*
G01X-1826838Y-3405163D01*
G01X-1813223Y-3400099D01*
G01X-1800928Y-3392364D01*
G01X-1790470Y-3382283D01*
G01X-1782289Y-3370280D01*
G01X-1772253Y-3386020D01*
G01X-1759211Y-3399376D01*
G01X-1743714Y-3409784D01*
G01X-1726416Y-3416802D01*
G01X-1708049Y-3420136D01*
G01X-1689388Y-3419643D01*
G01X-1671222Y-3415346D01*
G01X-1654318Y-3407425D01*
G01X-1639392Y-3396214D01*
G01X-1627072Y-3382189D01*
G01X-1617881Y-3365941D01*
G01X-1612206Y-3348157D01*
G01X-1610288Y-3329588D01*
G01X-1610288Y-3239588D01*
G01X-1612038Y-3221844D01*
G01X-1617222Y-3204784D01*
G01X-1625639Y-3189065D01*
G01X-1636966Y-3175294D01*
G01X-1650764Y-3164002D01*
G01X-1666504Y-3155623D01*
G01X-1683577Y-3150481D01*
G01X-1701325Y-3148775D01*
G01X-1719065Y-3150569D01*
G01X-1736113Y-3155795D01*
G01X-1751811Y-3164251D01*
G01X-1756794Y-3154007D01*
G01X-1764742Y-3145847D01*
G01X-1774851Y-3140595D01*
G01X-1786098Y-3138783D01*
G01X-1798989Y-3138783D01*
G01X-1792974Y-3131260D01*
G01X-1789181Y-3122405D01*
G01X-1787886Y-3112860D01*
G01X-1787886Y-3032213D01*
G01X-1789200Y-3022599D01*
G01X-1793047Y-3013691D01*
G01X-1799144Y-3006142D01*
G01X-1807044Y-3000507D01*
G01X-1816166Y-2997200D01*
G01X-1807044Y-2993893D01*
G01X-1799144Y-2988258D01*
G01X-1793047Y-2980709D01*
G01X-1789200Y-2971801D01*
G01X-1787886Y-2962187D01*
G01X-1787886Y-2881540D01*
G01X-1789639Y-2870473D01*
G01X-1794726Y-2860489D01*
G01X-1802649Y-2852566D01*
G01X-1812633Y-2847479D01*
G01X-1823700Y-2845726D01*
G01X-1910100Y-2845726D01*
G01X-1921167Y-2847479D01*
G01X-1931151Y-2852566D01*
G01X-1939074Y-2860489D01*
G01X-1944161Y-2870473D01*
G01X-1945914Y-2881540D01*
G01X-1945914Y-2962187D01*
G01X-1944600Y-2971801D01*
G01X-1940753Y-2980709D01*
G01X-1934656Y-2988258D01*
G01X-1926756Y-2993893D01*
G01X-1917634Y-2997200D01*
G01X-1926756Y-3000507D01*
G01X-1934656Y-3006142D01*
G01X-1940753Y-3013691D01*
G01X-1944600Y-3022599D01*
G01X-1945914Y-3032213D01*
G01X-1945914Y-3065543D01*
G01X-1992886Y-3112514D01*
G01X-1997648Y-3118054D01*
G01X-1996186Y-3106234D01*
G01X-1996186Y-2991610D01*
G01X-1986931Y-2978961D01*
G01X-1980902Y-2964494D01*
G01X-1978438Y-2949016D01*
G01X-1979674Y-2933391D01*
G01X-1984544Y-2918494D01*
G01X-1992773Y-2905155D01*
G01X-2003903Y-2894120D01*
G01X-2017312Y-2886006D01*
G01X-2032251Y-2881265D01*
G01X-2047886Y-2880163D01*
G01X-2063342Y-2882760D01*
G01X-2077757Y-2888913D01*
G01X-2090326Y-2898277D01*
G01X-2100346Y-2910329D01*
G01X-2100346Y-2379872D01*
G01X-1849806Y-2379872D01*
G01X-1847954Y-2402226D01*
G01X-1842448Y-2423971D01*
G01X-1833437Y-2444512D01*
G01X-1821169Y-2463291D01*
G01X-1805977Y-2479794D01*
G01X-1788276Y-2493571D01*
G01X-1768548Y-2504247D01*
G01X-1747333Y-2511530D01*
G01X-1725208Y-2515222D01*
G01X-1702777Y-2515222D01*
G01X-1680652Y-2511530D01*
G01X-1659437Y-2504247D01*
G01X-1639709Y-2493571D01*
G01X-1622008Y-2479794D01*
G01X-1606816Y-2463291D01*
G01X-1594548Y-2444512D01*
G01X-1585537Y-2423971D01*
G01X-1580031Y-2402226D01*
G01X-1578178Y-2379872D01*
G01X-1580031Y-2357518D01*
G01X-1585537Y-2335773D01*
G01X-1594548Y-2315232D01*
G01X-1606816Y-2296453D01*
G01X-1622008Y-2279950D01*
G01X-1639709Y-2266173D01*
G01X-1659437Y-2255497D01*
G01X-1680652Y-2248214D01*
G01X-1702777Y-2244522D01*
G01X-1725208Y-2244522D01*
G01X-1747333Y-2248214D01*
G01X-1768548Y-2255497D01*
G01X-1788276Y-2266173D01*
G01X-1805977Y-2279950D01*
G01X-1821169Y-2296453D01*
G01X-1833437Y-2315232D01*
G01X-1842448Y-2335773D01*
G01X-1847954Y-2357518D01*
G01X-1849806Y-2379872D01*
G01X-1849806Y-2379872D01*
G01X-2100346Y-2379872D01*
G01X-2100346Y-1838940D01*
G01X-2101999Y-1826384D01*
G01X-2106845Y-1814683D01*
G01X-2114555Y-1804636D01*
G01X-2872491Y-1046700D01*
G01X-2872491Y335159D01*
G01X-1321054Y-1216278D01*
G01X-1321054Y-1871034D01*
G01X-1319401Y-1883590D01*
G01X-1314554Y-1895291D01*
G01X-1306845Y-1905338D01*
G01X-1264458Y-1947725D01*
G01X-1254410Y-1955434D01*
G01X-1242710Y-1960281D01*
G01X-1230153Y-1961934D01*
G01X-762617Y-1961934D01*
G01X-762617Y-1987426D01*
G01X-823449Y-1987426D01*
G01X-833063Y-1988740D01*
G01X-841971Y-1992587D01*
G01X-849519Y-1998684D01*
G01X-855154Y-2006584D01*
G01X-858462Y-2015706D01*
G01X-861769Y-2006584D01*
G01X-867404Y-1998684D01*
G01X-874952Y-1992587D01*
G01X-883860Y-1988740D01*
G01X-893474Y-1987426D01*
G01X-974122Y-1987426D01*
G01X-985189Y-1989178D01*
G01X-995173Y-1994265D01*
G01X-1003096Y-2002189D01*
G01X-1008183Y-2012172D01*
G01X-1009936Y-2023240D01*
G01X-1009936Y-2109640D01*
G01X-1008183Y-2120707D01*
G01X-1003096Y-2130691D01*
G01X-995173Y-2138614D01*
G01X-985189Y-2143701D01*
G01X-974122Y-2145454D01*
G01X-893474Y-2145454D01*
G01X-883860Y-2144140D01*
G01X-874952Y-2140293D01*
G01X-867404Y-2134196D01*
G01X-861769Y-2126296D01*
G01X-858462Y-2117174D01*
G01X-855154Y-2126296D01*
G01X-849519Y-2134196D01*
G01X-841971Y-2140293D01*
G01X-833063Y-2144140D01*
G01X-823449Y-2145454D01*
G01X-742801Y-2145454D01*
G01X-731649Y-2143673D01*
G01X-721605Y-2138508D01*
G01X-720204Y-2144342D01*
G01X-722017Y-2155591D01*
G01X-722017Y-2210592D01*
G01X-721449Y-2216945D01*
G01X-719763Y-2223097D01*
G01X-721449Y-2229248D01*
G01X-722017Y-2235601D01*
G01X-722017Y-2290602D01*
G01X-720205Y-2301849D01*
G01X-714953Y-2311958D01*
G01X-706793Y-2319906D01*
G01X-696549Y-2324889D01*
G01X-705005Y-2340587D01*
G01X-710231Y-2357635D01*
G01X-712025Y-2375375D01*
G01X-710319Y-2393123D01*
G01X-705177Y-2410196D01*
G01X-696798Y-2425936D01*
G01X-685506Y-2439734D01*
G01X-671735Y-2451061D01*
G01X-656016Y-2459478D01*
G01X-638956Y-2464662D01*
G01X-621212Y-2466412D01*
G01X-531212Y-2466412D01*
G01X-512593Y-2464483D01*
G01X-494766Y-2458778D01*
G01X-478487Y-2449539D01*
G01X-464448Y-2437159D01*
G01X-259618Y-2437159D01*
G01X-247807Y-2448978D01*
G01X-234123Y-2458565D01*
G01X-218981Y-2465629D01*
G01X-202842Y-2469956D01*
G01X-186197Y-2471412D01*
G01X-126197Y-2471412D01*
G01X-107505Y-2469571D01*
G01X-89531Y-2464119D01*
G01X-72966Y-2455265D01*
G01X-58447Y-2443349D01*
G01X-46531Y-2428830D01*
G01X-37677Y-2412265D01*
G01X-32225Y-2394291D01*
G01X-30383Y-2375598D01*
G01X-32225Y-2356906D01*
G01X-37677Y-2338932D01*
G01X-46531Y-2322367D01*
G01X-58447Y-2307848D01*
G01X-72966Y-2295932D01*
G01X-89531Y-2287078D01*
G01X-107505Y-2281626D01*
G01X-126197Y-2279785D01*
G01X-186197Y-2279785D01*
G01X-205101Y-2281668D01*
G01X-223262Y-2287244D01*
G01X-239966Y-2296294D01*
G01X-254555Y-2308461D01*
G01X-266458Y-2323267D01*
G01X-275205Y-2340131D01*
G01X-447610Y-2340131D01*
G01X-455127Y-2326017D01*
G01X-465003Y-2313441D01*
G01X-476932Y-2302791D01*
G01X-490545Y-2294399D01*
G01X-478537Y-2286221D01*
G01X-468451Y-2275765D01*
G01X-460711Y-2263471D01*
G01X-455642Y-2249855D01*
G01X-453459Y-2235492D01*
G01X-454253Y-2220986D01*
G01X-457991Y-2206947D01*
G01X-464514Y-2193966D01*
G01X-473550Y-2182590D01*
G01X-484717Y-2173297D01*
G01X-497545Y-2166478D01*
G01X-511495Y-2162421D01*
G01X-525980Y-2161296D01*
G01X-540389Y-2163150D01*
G01X-540389Y-2155591D01*
G01X-542201Y-2144342D01*
G01X-540389Y-2133093D01*
G01X-540389Y-2103093D01*
G01X-541815Y-2093087D01*
G01X-540389Y-2083081D01*
G01X-540389Y-2053081D01*
G01X-541811Y-2043087D01*
G01X-540389Y-2033093D01*
G01X-540389Y-2003008D01*
G01X-530342Y-1995298D01*
G01X-513998Y-1978955D01*
G01X-506288Y-1968907D01*
G01X-501442Y-1957207D01*
G01X-499789Y-1944650D01*
G01X-499789Y-1891537D01*
G01X-501442Y-1878981D01*
G01X-506288Y-1867280D01*
G01X-513998Y-1857233D01*
G01X-530342Y-1840889D01*
G01X-540389Y-1833179D01*
G01X-540389Y-1803094D01*
G01X-541815Y-1793088D01*
G01X-540389Y-1783081D01*
G01X-540389Y-1753081D01*
G01X-542201Y-1741832D01*
G01X-540389Y-1730583D01*
G01X-540389Y-1723024D01*
G01X-525982Y-1724879D01*
G01X-511499Y-1723754D01*
G01X-497551Y-1719699D01*
G01X-484723Y-1712882D01*
G01X-473557Y-1703592D01*
G01X-464521Y-1692218D01*
G01X-457995Y-1679241D01*
G01X-454256Y-1665204D01*
G01X-453458Y-1650700D01*
G01X-455637Y-1636338D01*
G01X-460701Y-1622723D01*
G01X-468436Y-1610428D01*
G01X-478517Y-1599970D01*
G01X-490520Y-1591789D01*
G01X-475352Y-1582203D01*
G01X-462364Y-1569823D01*
G01X-261518Y-1569823D01*
G01X-249634Y-1582407D01*
G01X-235680Y-1592649D01*
G01X-220111Y-1600213D01*
G01X-203435Y-1604852D01*
G01X-186197Y-1606415D01*
G01X-126197Y-1606415D01*
G01X-107505Y-1604574D01*
G01X-89531Y-1599122D01*
G01X-72966Y-1590268D01*
G01X-58447Y-1578352D01*
G01X-46531Y-1563833D01*
G01X-37677Y-1547268D01*
G01X-32225Y-1529294D01*
G01X-30383Y-1510601D01*
G01X-32225Y-1491909D01*
G01X-37677Y-1473935D01*
G01X-46531Y-1457370D01*
G01X-58447Y-1442851D01*
G01X-72966Y-1430935D01*
G01X-89531Y-1422081D01*
G01X-107505Y-1416629D01*
G01X-126197Y-1414788D01*
G01X-186197Y-1414788D01*
G01X-204687Y-1416589D01*
G01X-222482Y-1421924D01*
G01X-238913Y-1430593D01*
G01X-253362Y-1442270D01*
G01X-265286Y-1456516D01*
G01X-274237Y-1472795D01*
G01X-448642Y-1472795D01*
G01X-457280Y-1457863D01*
G01X-468586Y-1444835D01*
G01X-482152Y-1434180D01*
G01X-497487Y-1426282D01*
G01X-514040Y-1421426D01*
G01X-531212Y-1419788D01*
G01X-621212Y-1419788D01*
G01X-638956Y-1421538D01*
G01X-656016Y-1426722D01*
G01X-671735Y-1435139D01*
G01X-685506Y-1446466D01*
G01X-696798Y-1460264D01*
G01X-705177Y-1476004D01*
G01X-710319Y-1493077D01*
G01X-712025Y-1510825D01*
G01X-710231Y-1528565D01*
G01X-705005Y-1545613D01*
G01X-696549Y-1561311D01*
G01X-706793Y-1566294D01*
G01X-714953Y-1574242D01*
G01X-720205Y-1584351D01*
G01X-722017Y-1595598D01*
G01X-722017Y-1650599D01*
G01X-721450Y-1656945D01*
G01X-719767Y-1663090D01*
G01X-721450Y-1669236D01*
G01X-722017Y-1675582D01*
G01X-722017Y-1719567D01*
G01X-728227Y-1719567D01*
G01X-733766Y-1711126D01*
G01X-741442Y-1704566D01*
G01X-750644Y-1700409D01*
G01X-760640Y-1698986D01*
G01X-841287Y-1698986D01*
G01X-850901Y-1700300D01*
G01X-859809Y-1704147D01*
G01X-867358Y-1710244D01*
G01X-872993Y-1718144D01*
G01X-876300Y-1727266D01*
G01X-879607Y-1718144D01*
G01X-885242Y-1710244D01*
G01X-892791Y-1704147D01*
G01X-901699Y-1700300D01*
G01X-911313Y-1698986D01*
G01X-991960Y-1698986D01*
G01X-1003027Y-1700739D01*
G01X-1013011Y-1705826D01*
G01X-1020934Y-1713749D01*
G01X-1026021Y-1723733D01*
G01X-1027774Y-1734800D01*
G01X-1027774Y-1821200D01*
G01X-1027643Y-1824266D01*
G01X-1183386Y-1824266D01*
G01X-1183386Y-1179349D01*
G01X-1185039Y-1166793D01*
G01X-1189886Y-1155092D01*
G01X-1197595Y-1145044D01*
G01X-1212340Y-1130300D01*
G01X-688614Y-1130300D01*
G01X-686836Y-1145553D01*
G01X-681597Y-1159989D01*
G01X-673178Y-1172832D01*
G01X-662031Y-1183394D01*
G01X-648753Y-1191110D01*
G01X-634056Y-1195564D01*
G01X-618729Y-1196518D01*
G01X-603594Y-1193921D01*
G01X-589461Y-1187912D01*
G01X-577090Y-1178814D01*
G01X-497536Y-1178814D01*
G01X-491927Y-1186883D01*
G01X-484337Y-1193123D01*
G01X-475336Y-1197066D01*
G01X-465602Y-1198414D01*
G01X-465602Y-1198414D01*
G01X-385602Y-1198414D01*
G01X-373962Y-1196469D01*
G01X-363586Y-1190847D01*
G01X-355600Y-1182157D01*
G01X-347614Y-1190847D01*
G01X-337238Y-1196469D01*
G01X-325598Y-1198414D01*
G01X-245598Y-1198414D01*
G01X-234531Y-1196661D01*
G01X-224547Y-1191574D01*
G01X-216624Y-1183651D01*
G01X-211537Y-1173667D01*
G01X-209784Y-1162600D01*
G01X-209784Y-1072600D01*
G01X-211537Y-1061533D01*
G01X-216624Y-1051549D01*
G01X-224547Y-1043626D01*
G01X-234531Y-1038539D01*
G01X-245598Y-1036786D01*
G01X-325598Y-1036786D01*
G01X-337238Y-1038731D01*
G01X-347614Y-1044353D01*
G01X-355600Y-1053043D01*
G01X-363586Y-1044353D01*
G01X-373962Y-1038731D01*
G01X-385602Y-1036786D01*
G01X-465602Y-1036786D01*
G01X-476669Y-1038539D01*
G01X-486653Y-1043626D01*
G01X-494576Y-1051549D01*
G01X-499663Y-1061533D01*
G01X-501416Y-1072600D01*
G01X-501416Y-1081786D01*
G01X-577090Y-1081786D01*
G01X-589461Y-1072688D01*
G01X-603594Y-1066679D01*
G01X-618729Y-1064082D01*
G01X-634056Y-1065036D01*
G01X-648753Y-1069490D01*
G01X-662031Y-1077206D01*
G01X-673178Y-1087768D01*
G01X-681597Y-1100611D01*
G01X-686836Y-1115047D01*
G01X-688614Y-1130300D01*
G01X-1212340Y-1130300D01*
G01X-1428702Y-913938D01*
G01X-663212Y-913938D01*
G01X-661548Y-929170D01*
G01X-656433Y-943613D01*
G01X-648138Y-956497D01*
G01X-637109Y-967133D01*
G01X-623932Y-974954D01*
G01X-609312Y-979542D01*
G01X-594030Y-980652D01*
G01X-578900Y-978225D01*
G01X-564732Y-972390D01*
G01X-552281Y-963458D01*
G01X-542213Y-951908D01*
G01X-535064Y-938355D01*
G01X-531217Y-923523D01*
G01X-488607Y-880914D01*
G01X-436402Y-880914D01*
G01X-424762Y-878969D01*
G01X-414386Y-873347D01*
G01X-406400Y-864657D01*
G01X-398414Y-873347D01*
G01X-388038Y-878969D01*
G01X-376398Y-880914D01*
G01X-296398Y-880914D01*
G01X-285331Y-879161D01*
G01X-275347Y-874074D01*
G01X-267424Y-866151D01*
G01X-262337Y-856167D01*
G01X-260584Y-845100D01*
G01X-260584Y-755100D01*
G01X-262337Y-744033D01*
G01X-267424Y-734049D01*
G01X-275347Y-726126D01*
G01X-285331Y-721039D01*
G01X-296398Y-719286D01*
G01X-376398Y-719286D01*
G01X-388038Y-721231D01*
G01X-398414Y-726853D01*
G01X-406400Y-735543D01*
G01X-414386Y-726853D01*
G01X-424762Y-721231D01*
G01X-436402Y-719286D01*
G01X-516402Y-719286D01*
G01X-527469Y-721039D01*
G01X-537453Y-726126D01*
G01X-545376Y-734049D01*
G01X-550463Y-744033D01*
G01X-552216Y-755100D01*
G01X-552216Y-807305D01*
G01X-593106Y-848195D01*
G01X-593106Y-848195D01*
G01X-608403Y-849091D01*
G01X-623085Y-853475D01*
G01X-636369Y-861111D01*
G01X-647546Y-871592D01*
G01X-656019Y-884359D01*
G01X-661336Y-898730D01*
G01X-663212Y-913938D01*
G01X-1428702Y-913938D01*
G01X-1796540Y-546100D01*
G01X-1298214Y-546100D01*
G01X-1296436Y-561353D01*
G01X-1291197Y-575789D01*
G01X-1282778Y-588632D01*
G01X-1271631Y-599194D01*
G01X-1258353Y-606910D01*
G01X-1243656Y-611364D01*
G01X-1228329Y-612318D01*
G01X-1213194Y-609721D01*
G01X-1199061Y-603712D01*
G01X-1186690Y-594614D01*
G01X-1132536Y-594614D01*
G01X-1126927Y-602683D01*
G01X-1119337Y-608923D01*
G01X-1110336Y-612866D01*
G01X-1100602Y-614214D01*
G01X-1020602Y-614214D01*
G01X-1008962Y-612269D01*
G01X-998586Y-606647D01*
G01X-990600Y-597957D01*
G01X-982614Y-606647D01*
G01X-972238Y-612269D01*
G01X-960598Y-614214D01*
G01X-880598Y-614214D01*
G01X-869531Y-612461D01*
G01X-859547Y-607374D01*
G01X-851624Y-599451D01*
G01X-846537Y-589467D01*
G01X-846169Y-587147D01*
G01X-701249Y-587147D01*
G01X-698874Y-602022D01*
G01X-693204Y-615978D01*
G01X-684530Y-628294D01*
G01X-673301Y-638335D01*
G01X-660095Y-645582D01*
G01X-645594Y-649662D01*
G01X-630547Y-650364D01*
G01X-615729Y-647652D01*
G01X-601906Y-641666D01*
G01X-589790Y-632714D01*
G01X-578002Y-632714D01*
G01X-565446Y-631061D01*
G01X-553745Y-626214D01*
G01X-543698Y-618505D01*
G01X-378598Y-453405D01*
G01X-370323Y-442350D01*
G01X-365497Y-429412D01*
G01X-364512Y-415639D01*
G01X-367447Y-402146D01*
G01X-374065Y-390027D01*
G01X-383829Y-380263D01*
G01X-395948Y-373645D01*
G01X-409441Y-370710D01*
G01X-423215Y-371695D01*
G01X-436153Y-376520D01*
G01X-447207Y-384795D01*
G01X-594275Y-531864D01*
G01X-607138Y-524023D01*
G01X-621438Y-519288D01*
G01X-636438Y-517902D01*
G01X-651364Y-519937D01*
G01X-665445Y-525288D01*
G01X-677956Y-533679D01*
G01X-688249Y-544677D01*
G01X-695795Y-557715D01*
G01X-700204Y-572119D01*
G01X-701249Y-587147D01*
G01X-701249Y-587147D01*
G01X-846169Y-587147D01*
G01X-844784Y-578400D01*
G01X-844784Y-488400D01*
G01X-846537Y-477333D01*
G01X-851624Y-467349D01*
G01X-859547Y-459426D01*
G01X-869531Y-454339D01*
G01X-880598Y-452586D01*
G01X-960598Y-452586D01*
G01X-972238Y-454531D01*
G01X-982614Y-460153D01*
G01X-990600Y-468843D01*
G01X-998586Y-460153D01*
G01X-1008962Y-454531D01*
G01X-1020602Y-452586D01*
G01X-1020602Y-452586D01*
G01X-1100602Y-452586D01*
G01X-1111669Y-454339D01*
G01X-1121653Y-459426D01*
G01X-1129576Y-467349D01*
G01X-1134663Y-477333D01*
G01X-1136416Y-488400D01*
G01X-1136416Y-497586D01*
G01X-1186690Y-497586D01*
G01X-1199061Y-488488D01*
G01X-1213194Y-482479D01*
G01X-1228329Y-479882D01*
G01X-1243656Y-480836D01*
G01X-1258353Y-485290D01*
G01X-1271631Y-493006D01*
G01X-1282778Y-503568D01*
G01X-1291197Y-516411D01*
G01X-1296436Y-530847D01*
G01X-1298214Y-546100D01*
G01X-1796540Y-546100D01*
G01X-2911003Y568363D01*
G01X-1354206Y568363D01*
G01X-1363608Y556982D01*
G01X-1370259Y543804D01*
G01X-1373830Y529480D01*
G01X-1374144Y514722D01*
G01X-1371185Y500259D01*
G01X-1365100Y486810D01*
G01X-1356191Y475040D01*
G01X-1344898Y465532D01*
G01X-1331782Y458759D01*
G01X-1317492Y455054D01*
G01X-1302737Y454603D01*
G01X-1288248Y457427D01*
G01X-1274743Y463387D01*
G01X-1262890Y472186D01*
G01X-1167536Y472186D01*
G01X-1161816Y472524D01*
G01X-1161816Y399500D01*
G01X-1159853Y387804D01*
G01X-1154176Y377390D01*
G01X-1145411Y369401D01*
G01X-1134516Y364713D01*
G01X-1134516Y337310D01*
G01X-1143615Y324939D01*
G01X-1149623Y310806D01*
G01X-1152220Y295671D01*
G01X-1151266Y280344D01*
G01X-1146812Y265647D01*
G01X-1139097Y252369D01*
G01X-1128534Y241222D01*
G01X-1115691Y232803D01*
G01X-1101256Y227564D01*
G01X-1086002Y225786D01*
G01X-1070749Y227564D01*
G01X-1056314Y232803D01*
G01X-1043470Y241222D01*
G01X-1032908Y252369D01*
G01X-1025193Y265647D01*
G01X-1020739Y280344D01*
G01X-1019785Y295671D01*
G01X-1022381Y310806D01*
G01X-1028390Y324939D01*
G01X-1037488Y337310D01*
G01X-1037488Y364713D01*
G01X-1029114Y367918D01*
G01X-1021798Y373103D01*
G01X-1016000Y379943D01*
G01X-1008014Y371253D01*
G01X-997638Y365631D01*
G01X-985998Y363686D01*
G01X-905998Y363686D01*
G01X-897462Y364718D01*
G01X-906730Y353285D01*
G01X-913248Y340090D01*
G01X-916695Y325782D01*
G01X-916901Y311066D01*
G01X-913857Y296667D01*
G01X-907711Y283294D01*
G01X-898767Y271606D01*
G01X-887466Y262178D01*
G01X-874363Y255476D01*
G01X-860105Y251828D01*
G01X-845393Y251415D01*
G01X-830953Y254257D01*
G01X-817495Y260214D01*
G01X-805683Y268993D01*
G01X-794181Y270576D01*
G01X-783385Y274847D01*
G01X-777358Y261024D01*
G01X-769127Y248388D01*
G01X-758919Y237288D01*
G01X-747014Y228031D01*
G01X-747014Y134110D01*
G01X-756112Y121739D01*
G01X-762121Y107606D01*
G01X-764718Y92471D01*
G01X-763764Y77144D01*
G01X-759310Y62447D01*
G01X-751594Y49169D01*
G01X-741032Y38022D01*
G01X-728189Y29603D01*
G01X-713753Y24364D01*
G01X-698500Y22586D01*
G01X-683247Y24364D01*
G01X-668811Y29603D01*
G01X-655968Y38022D01*
G01X-645406Y49169D01*
G01X-637690Y62447D01*
G01X-633236Y77144D01*
G01X-632282Y92471D01*
G01X-634879Y107606D01*
G01X-640888Y121739D01*
G01X-649986Y134110D01*
G01X-649986Y213288D01*
G01X-607412Y213288D01*
G01X-588841Y215207D01*
G01X-571055Y220883D01*
G01X-554806Y230076D01*
G01X-540780Y242398D01*
G01X-529570Y257327D01*
G01X-521650Y274234D01*
G01X-517355Y292402D01*
G01X-516865Y311066D01*
G01X-520203Y329434D01*
G01X-527226Y346733D01*
G01X-537638Y362229D01*
G01X-550999Y375269D01*
G01X-566745Y385301D01*
G01X-554737Y393479D01*
G01X-544651Y403935D01*
G01X-536911Y416229D01*
G01X-531842Y429845D01*
G01X-529659Y444208D01*
G01X-530453Y458714D01*
G01X-534191Y472753D01*
G01X-540714Y485734D01*
G01X-549750Y497110D01*
G01X-560917Y506403D01*
G01X-573745Y513222D01*
G01X-587695Y517279D01*
G01X-602180Y518404D01*
G01X-616589Y516550D01*
G01X-616589Y524109D01*
G01X-618401Y535358D01*
G01X-616589Y546607D01*
G01X-616589Y576607D01*
G01X-618015Y586613D01*
G01X-616589Y596619D01*
G01X-616589Y626680D01*
G01X-606542Y634389D01*
G01X-590198Y650733D01*
G01X-582488Y660780D01*
G01X-577642Y672481D01*
G01X-575989Y685037D01*
G01X-575989Y738150D01*
G01X-577642Y750707D01*
G01X-582488Y762407D01*
G01X-590198Y772455D01*
G01X-606542Y788798D01*
G01X-616589Y796508D01*
G01X-616589Y826593D01*
G01X-618015Y836600D01*
G01X-616589Y846606D01*
G01X-616589Y876606D01*
G01X-618015Y886612D01*
G01X-616589Y896619D01*
G01X-616589Y926619D01*
G01X-618401Y937868D01*
G01X-616589Y949117D01*
G01X-616589Y956676D01*
G01X-602182Y954821D01*
G01X-587699Y955946D01*
G01X-573751Y960001D01*
G01X-560923Y966818D01*
G01X-549757Y976108D01*
G01X-540721Y987482D01*
G01X-534195Y1000459D01*
G01X-530456Y1014496D01*
G01X-529658Y1029000D01*
G01X-531837Y1043362D01*
G01X-536901Y1056977D01*
G01X-544636Y1069272D01*
G01X-554717Y1079730D01*
G01X-566720Y1087911D01*
G01X-550769Y1098114D01*
G01X-537281Y1111403D01*
G01X-526841Y1127199D01*
G01X-519904Y1144817D01*
G01X-516771Y1163491D01*
G01X-517579Y1182409D01*
G01X-522291Y1200748D01*
G01X-530704Y1217711D01*
G01X-542452Y1232560D01*
G01X-557024Y1244651D01*
G01X-573786Y1253458D01*
G01X-573786Y1290247D01*
G01X-284553Y1290247D01*
G01X-284553Y1262315D01*
G01X-302095Y1256302D01*
G01X-318149Y1247022D01*
G01X-332116Y1234823D01*
G01X-343470Y1220162D01*
G01X-351788Y1203588D01*
G01X-356758Y1185723D01*
G01X-358193Y1167235D01*
G01X-356040Y1148817D01*
G01X-350379Y1131158D01*
G01X-341423Y1114921D01*
G01X-329507Y1100713D01*
G01X-315077Y1089066D01*
G01X-298673Y1080417D01*
G01X-280911Y1075090D01*
G01X-280911Y398110D01*
G01X-298907Y392687D01*
G01X-315498Y383855D01*
G01X-330045Y371955D01*
G01X-341989Y357444D01*
G01X-350871Y340880D01*
G01X-356349Y322901D01*
G01X-358211Y304198D01*
G01X-356387Y285492D01*
G01X-350946Y267502D01*
G01X-342097Y250921D01*
G01X-330182Y236385D01*
G01X-315659Y224455D01*
G01X-299086Y215590D01*
G01X-281101Y210131D01*
G01X-262397Y208288D01*
G01X-202397Y208288D01*
G01X-183693Y210131D01*
G01X-165709Y215590D01*
G01X-149136Y224455D01*
G01X-134612Y236385D01*
G01X-122697Y250921D01*
G01X-113849Y267502D01*
G01X-108408Y285492D01*
G01X-106584Y304198D01*
G01X-108446Y322901D01*
G01X-113923Y340880D01*
G01X-122805Y357444D01*
G01X-134750Y371955D01*
G01X-149297Y383855D01*
G01X-165888Y392687D01*
G01X-183883Y398110D01*
G01X-183883Y1075090D01*
G01X-165631Y1080620D01*
G01X-148835Y1089654D01*
G01X-134161Y1101837D01*
G01X-122191Y1116684D01*
G01X-113399Y1133608D01*
G01X-108133Y1151938D01*
G01X-106601Y1170948D01*
G01X-108865Y1189885D01*
G01X-114835Y1207998D01*
G01X-124274Y1224570D01*
G01X-136808Y1238944D01*
G01X-151941Y1250551D01*
G01X-169073Y1258931D01*
G01X-187525Y1263751D01*
G01X-187525Y1320800D01*
G01X-189178Y1333356D01*
G01X-194025Y1345057D01*
G01X-201735Y1355105D01*
G01X-219695Y1373065D01*
G01X-229743Y1380775D01*
G01X-241444Y1385622D01*
G01X-254000Y1387275D01*
G01X-604339Y1387275D01*
G01X-616896Y1385622D01*
G01X-628596Y1380775D01*
G01X-638644Y1373065D01*
G01X-656605Y1355105D01*
G01X-664314Y1345057D01*
G01X-669161Y1333356D01*
G01X-670814Y1320800D01*
G01X-670814Y1259912D01*
G01X-674616Y1259912D01*
G01X-769809Y1355105D01*
G01X-779856Y1362814D01*
G01X-791557Y1367661D01*
G01X-804113Y1369314D01*
G01X-818390Y1369314D01*
G01X-830582Y1378310D01*
G01X-844498Y1384303D01*
G01X-859412Y1386982D01*
G01X-874544Y1386205D01*
G01X-889104Y1382014D01*
G01X-902333Y1374626D01*
G01X-913540Y1364429D01*
G01X-922140Y1351954D01*
G01X-927684Y1337853D01*
G01X-929882Y1322862D01*
G01X-928620Y1307762D01*
G01X-923963Y1293344D01*
G01X-916155Y1280359D01*
G01X-905604Y1269485D01*
G01X-892859Y1261290D01*
G01X-878587Y1256202D01*
G01X-863533Y1254486D01*
G01X-848482Y1256232D01*
G01X-834220Y1261349D01*
G01X-821492Y1269570D01*
G01X-772337Y1220415D01*
G01X-780296Y1206211D01*
G01X-785591Y1190814D01*
G01X-793801Y1191514D01*
G01X-843790Y1191514D01*
G01X-856161Y1200612D01*
G01X-870294Y1206621D01*
G01X-885429Y1209218D01*
G01X-900756Y1208264D01*
G01X-915453Y1203810D01*
G01X-928731Y1196094D01*
G01X-939878Y1185532D01*
G01X-948297Y1172689D01*
G01X-953536Y1158253D01*
G01X-955314Y1143000D01*
G01X-953536Y1127747D01*
G01X-948297Y1113311D01*
G01X-939878Y1100468D01*
G01X-928731Y1089906D01*
G01X-915453Y1082190D01*
G01X-900756Y1077736D01*
G01X-885429Y1076782D01*
G01X-870294Y1079379D01*
G01X-856161Y1085388D01*
G01X-843790Y1094486D01*
G01X-813896Y1094486D01*
G01X-798217Y1078807D01*
G01X-798217Y1029101D01*
G01X-797650Y1022755D01*
G01X-795967Y1016610D01*
G01X-797650Y1010464D01*
G01X-798217Y1004118D01*
G01X-798217Y960133D01*
G01X-842527Y960133D01*
G01X-848066Y968574D01*
G01X-855742Y975134D01*
G01X-864944Y979291D01*
G01X-874940Y980714D01*
G01X-955587Y980714D01*
G01X-965201Y979400D01*
G01X-974109Y975553D01*
G01X-981658Y969456D01*
G01X-987293Y961556D01*
G01X-990600Y952434D01*
G01X-992886Y959447D01*
G01X-992886Y996190D01*
G01X-983788Y1008561D01*
G01X-977779Y1022694D01*
G01X-975182Y1037829D01*
G01X-976136Y1053156D01*
G01X-980590Y1067853D01*
G01X-988306Y1081131D01*
G01X-998868Y1092278D01*
G01X-1011711Y1100697D01*
G01X-1026147Y1105936D01*
G01X-1041400Y1107714D01*
G01X-1056653Y1105936D01*
G01X-1071089Y1100697D01*
G01X-1083932Y1092278D01*
G01X-1094494Y1081131D01*
G01X-1102210Y1067853D01*
G01X-1106664Y1053156D01*
G01X-1107618Y1037829D01*
G01X-1105021Y1022694D01*
G01X-1099012Y1008561D01*
G01X-1089914Y996190D01*
G01X-1089914Y980714D01*
G01X-1106260Y980714D01*
G01X-1117327Y978961D01*
G01X-1127311Y973874D01*
G01X-1135234Y965951D01*
G01X-1140321Y955967D01*
G01X-1142074Y944900D01*
G01X-1142074Y858500D01*
G01X-1140321Y847433D01*
G01X-1135234Y837449D01*
G01X-1127311Y829526D01*
G01X-1117327Y824439D01*
G01X-1106260Y822686D01*
G01X-1025613Y822686D01*
G01X-1015999Y824000D01*
G01X-1007091Y827847D01*
G01X-999542Y833944D01*
G01X-993907Y841844D01*
G01X-990600Y850966D01*
G01X-987293Y841844D01*
G01X-981658Y833944D01*
G01X-974109Y827847D01*
G01X-965201Y824000D01*
G01X-955587Y822686D01*
G01X-874940Y822686D01*
G01X-863873Y824439D01*
G01X-853889Y829526D01*
G01X-845966Y837449D01*
G01X-840879Y847433D01*
G01X-839126Y858500D01*
G01X-839126Y863105D01*
G01X-798217Y863105D01*
G01X-798216Y846521D01*
G01X-808264Y838811D01*
G01X-824607Y822467D01*
G01X-832317Y812420D01*
G01X-837164Y800719D01*
G01X-838817Y788163D01*
G01X-838817Y769854D01*
G01X-1147351Y769854D01*
G01X-1159907Y768201D01*
G01X-1171608Y763355D01*
G01X-1181655Y755645D01*
G01X-1231269Y706031D01*
G01X-2987487Y706031D01*
G01X-2993945Y709048D01*
G01X-3000776Y711085D01*
G01X-3000776Y729212D01*
G01X-3001495Y736351D01*
G01X-3003622Y743204D01*
G01X-3001495Y750057D01*
G01X-3000776Y757196D01*
G01X-3000776Y782197D01*
G01X-3002529Y793264D01*
G01X-3007616Y803248D01*
G01X-3015539Y811171D01*
G01X-3025523Y816258D01*
G01X-3036590Y818011D01*
G01X-3076296Y818011D01*
G01X-3137879Y879594D01*
G01X-3134408Y895175D01*
G01X-3134761Y911135D01*
G01X-3135641Y914400D01*
G01X-3114314Y914400D01*
G01X-3112536Y899147D01*
G01X-3107297Y884711D01*
G01X-3098878Y871868D01*
G01X-3087731Y861306D01*
G01X-3074453Y853590D01*
G01X-3059756Y849136D01*
G01X-3044429Y848182D01*
G01X-3029294Y850779D01*
G01X-3015161Y856788D01*
G01X-3002790Y865886D01*
G01X-2967504Y865886D01*
G01X-2976890Y860591D01*
G01X-2984277Y852744D01*
G01X-2988995Y843054D01*
G01X-2990616Y832400D01*
G01X-2990616Y742400D01*
G01X-2988863Y731333D01*
G01X-2983776Y721349D01*
G01X-2975853Y713426D01*
G01X-2965869Y708339D01*
G01X-2954802Y706586D01*
G01X-2874802Y706586D01*
G01X-2863162Y708531D01*
G01X-2852786Y714153D01*
G01X-2844800Y722843D01*
G01X-2836814Y714153D01*
G01X-2826438Y708531D01*
G01X-2814798Y706586D01*
G01X-2734798Y706586D01*
G01X-2724402Y708128D01*
G01X-2714902Y712621D01*
G01X-2707115Y719678D01*
G01X-2701711Y728692D01*
G01X-2699156Y738886D01*
G01X-2692400Y738886D01*
G01X-2679844Y740539D01*
G01X-2668143Y745386D01*
G01X-2658095Y753095D01*
G01X-2620214Y790977D01*
G01X-2605032Y793291D01*
G01X-2590791Y799036D01*
G01X-2578252Y807902D01*
G01X-2568089Y819414D01*
G01X-2560846Y832956D01*
G01X-2556913Y847800D01*
G01X-2556499Y863151D01*
G01X-2559628Y878186D01*
G01X-2566130Y892098D01*
G01X-2575659Y904141D01*
G01X-2587702Y913670D01*
G01X-2601614Y920172D01*
G01X-2616649Y923301D01*
G01X-2632000Y922887D01*
G01X-2646844Y918954D01*
G01X-2660386Y911711D01*
G01X-2671898Y901548D01*
G01X-2680764Y889009D01*
G01X-2686509Y874768D01*
G01X-2688823Y859586D01*
G01X-2701886Y846523D01*
G01X-2707330Y855382D01*
G01X-2715089Y862304D01*
G01X-2724510Y866705D01*
G01X-2734798Y868214D01*
G01X-2814798Y868214D01*
G01X-2826438Y866269D01*
G01X-2836814Y860647D01*
G01X-2844800Y851957D01*
G01X-2852786Y860647D01*
G01X-2863162Y866269D01*
G01X-2874802Y868214D01*
G01X-2938055Y868214D01*
G01X-2929900Y871686D01*
G01X-2874802Y871686D01*
G01X-2863162Y873631D01*
G01X-2852786Y879253D01*
G01X-2844800Y887943D01*
G01X-2836814Y879253D01*
G01X-2826438Y873631D01*
G01X-2814798Y871686D01*
G01X-2734798Y871686D01*
G01X-2723731Y873439D01*
G01X-2713747Y878526D01*
G01X-2705824Y886449D01*
G01X-2700737Y896433D01*
G01X-2698984Y907500D01*
G01X-2698984Y997500D01*
G01X-2700737Y1008567D01*
G01X-2705824Y1018551D01*
G01X-2713747Y1026474D01*
G01X-2723731Y1031561D01*
G01X-2734798Y1033314D01*
G01X-2814798Y1033314D01*
G01X-2826438Y1031369D01*
G01X-2836814Y1025747D01*
G01X-2844800Y1017057D01*
G01X-2852786Y1025747D01*
G01X-2863162Y1031369D01*
G01X-2874802Y1033314D01*
G01X-2874802Y1033314D01*
G01X-2954802Y1033314D01*
G01X-2965869Y1031561D01*
G01X-2975853Y1026474D01*
G01X-2983776Y1018551D01*
G01X-2988863Y1008567D01*
G01X-2990616Y997500D01*
G01X-2990616Y962914D01*
G01X-3002790Y962914D01*
G01X-3015161Y972012D01*
G01X-3029294Y978021D01*
G01X-3044429Y980618D01*
G01X-3059756Y979664D01*
G01X-3074453Y975210D01*
G01X-3087731Y967494D01*
G01X-3098878Y956932D01*
G01X-3107297Y944089D01*
G01X-3112536Y929653D01*
G01X-3114314Y914400D01*
G01X-3135641Y914400D01*
G01X-3138917Y926547D01*
G01X-3146636Y940520D01*
G01X-3157471Y952243D01*
G01X-3170793Y961038D01*
G01X-3185831Y966394D01*
G01X-3201713Y968001D01*
G01X-3217519Y965766D01*
G01X-3232333Y959819D01*
G01X-3245297Y950504D01*
G01X-3255659Y938361D01*
G01X-3262819Y924094D01*
G01X-3266362Y908529D01*
G01X-3590532Y908529D01*
G01X-3594824Y916951D01*
G01X-3602747Y924874D01*
G01X-3612731Y929961D01*
G01X-3623798Y931714D01*
G01X-3625483Y931714D01*
G01X-3625483Y962322D01*
G01X-3615481Y967401D01*
G01X-3607540Y975327D01*
G01X-3602441Y985320D01*
G01X-3600684Y996400D01*
G01X-3600684Y1086400D01*
G01X-3602437Y1097467D01*
G01X-3607524Y1107451D01*
G01X-3615447Y1115374D01*
G01X-3625431Y1120461D01*
G01X-3636498Y1122214D01*
G01X-3716498Y1122214D01*
G01X-3728138Y1120269D01*
G01X-3738514Y1114647D01*
G01X-3746500Y1105957D01*
G01X-3754486Y1114647D01*
G01X-3764862Y1120269D01*
G01X-3776502Y1122214D01*
G01X-3856502Y1122214D01*
G01X-3867569Y1120461D01*
G01X-3877553Y1115374D01*
G01X-3885476Y1107451D01*
G01X-3890563Y1097467D01*
G01X-3892316Y1086400D01*
G01X-3892316Y996400D01*
G01X-3890353Y984704D01*
G01X-3884676Y974290D01*
G01X-3875911Y966301D01*
G01X-3865016Y961613D01*
G01X-3865016Y924755D01*
G01X-3872855Y916842D01*
G01X-3877884Y906903D01*
G01X-3879616Y895900D01*
G01X-3879616Y805900D01*
G01X-3877914Y794988D01*
G01X-3872967Y785114D01*
G01X-4331942Y785114D01*
G01X-4344498Y783461D01*
G01X-4356199Y778614D01*
G01X-4366246Y770905D01*
G01X-4384207Y752944D01*
G01X-4391917Y742896D01*
G01X-4396763Y731196D01*
G01X-4398416Y718639D01*
G01X-4398416Y625887D01*
G01X-4409311Y621199D01*
G01X-4418076Y613210D01*
G01X-4423753Y602796D01*
G01X-4425716Y591100D01*
G01X-4425716Y501100D01*
G01X-4423963Y490033D01*
G01X-4418876Y480049D01*
G01X-4410953Y472126D01*
G01X-4400969Y467039D01*
G01X-4389902Y465286D01*
G01X-4309902Y465286D01*
G01X-4298262Y467231D01*
G01X-4287886Y472853D01*
G01X-4279900Y481543D01*
G01X-4271914Y472853D01*
G01X-4261538Y467231D01*
G01X-4249898Y465286D01*
G01X-4169898Y465286D01*
G01X-4159502Y466828D01*
G01X-4150002Y471321D01*
G01X-4142215Y478378D01*
G01X-4136811Y487392D01*
G01X-4134256Y497586D01*
G01X-4076700Y497586D01*
G01X-4064144Y499239D01*
G01X-4052443Y504086D01*
G01X-4042395Y511795D01*
G01X-4036264Y517927D01*
G01X-4021508Y520127D01*
G01X-4007617Y525569D01*
G01X-3995294Y533979D01*
G01X-3985163Y544931D01*
G01X-3977737Y557871D01*
G01X-3973391Y572143D01*
G01X-3972346Y587026D01*
G01X-3974655Y601765D01*
G01X-3968062Y587521D01*
G01X-3958306Y575225D01*
G01X-3945933Y565566D01*
G01X-3931637Y559086D01*
G01X-3916219Y556147D01*
G01X-3928305Y544060D01*
G01X-3936015Y534013D01*
G01X-3940862Y522312D01*
G01X-3942515Y509756D01*
G01X-3942515Y-654132D01*
G01X-4019649Y-731266D01*
G01X-6289029Y-731266D01*
G01X-6354499Y-665796D01*
G01X-6364547Y-658086D01*
G01X-6376247Y-653239D01*
G01X-6388804Y-651586D01*
G01X-6408592Y-651586D01*
G01X-6414284Y-644172D01*
G01X-6421700Y-638483D01*
G01X-6430336Y-634907D01*
G01X-6439604Y-633687D01*
G01X-6727604Y-633687D01*
G01X-6738671Y-635440D01*
G01X-6748655Y-640527D01*
G01X-6756578Y-648450D01*
G01X-6761665Y-658434D01*
G01X-6763418Y-669501D01*
G01X-6763418Y-781500D01*
G01X-6761665Y-792567D01*
G01X-6756578Y-802551D01*
G01X-6748655Y-810474D01*
G01X-6738671Y-815561D01*
G01X-6727604Y-817314D01*
G01X-6439604Y-817314D01*
G01X-6428536Y-815561D01*
G01X-6418553Y-810474D01*
G01X-6410629Y-802551D01*
G01X-6405542Y-792567D01*
G01X-6403790Y-781500D01*
G01X-6403790Y-753723D01*
G01X-6357413Y-800100D01*
G01X-6408705Y-851392D01*
G01X-6408705Y-851392D01*
G01X-6414403Y-844053D01*
G01X-6421798Y-838426D01*
G01X-6430391Y-834892D01*
G01X-6439604Y-833686D01*
G01X-6727604Y-833686D01*
G01X-6738671Y-835439D01*
G01X-6748655Y-840526D01*
G01X-6756578Y-848449D01*
G01X-6761665Y-858433D01*
G01X-6763418Y-869500D01*
G01X-6763418Y-981499D01*
G01X-7670219Y-981499D01*
G01X-7665814Y-531513D01*
G01X-6763418Y-531513D01*
G01X-6761665Y-542580D01*
G01X-6756578Y-552564D01*
G01X-6748655Y-560487D01*
G01X-6738671Y-565574D01*
G01X-6727604Y-567327D01*
G01X-6439604Y-567327D01*
G01X-6428536Y-565574D01*
G01X-6418553Y-560487D01*
G01X-6410629Y-552564D01*
G01X-6405542Y-542580D01*
G01X-6403790Y-531513D01*
G01X-6403790Y-419514D01*
G01X-6405542Y-408447D01*
G01X-6410629Y-398463D01*
G01X-6418553Y-390540D01*
G01X-6428536Y-385453D01*
G01X-6439604Y-383700D01*
G01X-6727604Y-383700D01*
G01X-6727604Y-383700D01*
G01X-6738671Y-385453D01*
G01X-6748655Y-390540D01*
G01X-6756578Y-398463D01*
G01X-6761665Y-408447D01*
G01X-6763418Y-419514D01*
G01X-6763418Y-531513D01*
G01X-7665814Y-531513D01*
G01X-7662378Y-180492D01*
G01X-7653410Y-180492D01*
G01X-7651569Y-199185D01*
G01X-7646116Y-217159D01*
G01X-7637262Y-233724D01*
G01X-7625347Y-248243D01*
G01X-7610827Y-260159D01*
G01X-7594262Y-269013D01*
G01X-7576288Y-274465D01*
G01X-7557596Y-276306D01*
G01X-7367596Y-276306D01*
G01X-7348904Y-274465D01*
G01X-7330930Y-269013D01*
G01X-7314365Y-260159D01*
G01X-7299846Y-248243D01*
G01X-7287930Y-233724D01*
G01X-7279076Y-217159D01*
G01X-7273624Y-199185D01*
G01X-7271783Y-180492D01*
G01X-7273624Y-161800D01*
G01X-7279076Y-143826D01*
G01X-7287930Y-127261D01*
G01X-7299846Y-112742D01*
G01X-7314365Y-100826D01*
G01X-7330930Y-91972D01*
G01X-7348904Y-86520D01*
G01X-7367596Y-84679D01*
G01X-7367596Y-84679D01*
G01X-7557596Y-84679D01*
G01X-7576288Y-86520D01*
G01X-7594262Y-91972D01*
G01X-7610827Y-100826D01*
G01X-7625347Y-112742D01*
G01X-7637262Y-127261D01*
G01X-7646116Y-143826D01*
G01X-7651569Y-161800D01*
G01X-7653410Y-180492D01*
G01X-7662378Y-180492D01*
G01X-7648587Y1228282D01*
G01X-5887093Y1228282D01*
G01X-5885241Y1205927D01*
G01X-5879735Y1184183D01*
G01X-5870724Y1163641D01*
G01X-5858456Y1144863D01*
G01X-5843264Y1128360D01*
G01X-5825563Y1114583D01*
G01X-5805835Y1103907D01*
G01X-5784620Y1096623D01*
G01X-5762495Y1092931D01*
G01X-5740064Y1092931D01*
G01X-5717939Y1096623D01*
G01X-5696723Y1103907D01*
G01X-5676996Y1114583D01*
G01X-5659295Y1128360D01*
G01X-5644103Y1144863D01*
G01X-5631834Y1163641D01*
G01X-5622824Y1184183D01*
G01X-5617318Y1205927D01*
G01X-5616603Y1214549D01*
G01X-1863539Y1214549D01*
G01X-1861686Y1192195D01*
G01X-1856180Y1170451D01*
G01X-1847170Y1149909D01*
G01X-1834901Y1131131D01*
G01X-1819709Y1114628D01*
G01X-1802008Y1100850D01*
G01X-1782281Y1090174D01*
G01X-1761065Y1082891D01*
G01X-1738940Y1079199D01*
G01X-1716509Y1079199D01*
G01X-1694384Y1082891D01*
G01X-1673169Y1090174D01*
G01X-1653441Y1100850D01*
G01X-1635740Y1114628D01*
G01X-1620548Y1131131D01*
G01X-1608280Y1149909D01*
G01X-1599269Y1170451D01*
G01X-1593763Y1192195D01*
G01X-1591911Y1214549D01*
G01X-1593763Y1236904D01*
G01X-1599269Y1258648D01*
G01X-1608280Y1279190D01*
G01X-1620548Y1297968D01*
G01X-1635740Y1314471D01*
G01X-1653441Y1328248D01*
G01X-1673169Y1338924D01*
G01X-1694384Y1346207D01*
G01X-1716509Y1349899D01*
G01X-1738940Y1349899D01*
G01X-1761065Y1346207D01*
G01X-1782281Y1338924D01*
G01X-1802008Y1328248D01*
G01X-1819709Y1314471D01*
G01X-1834901Y1297968D01*
G01X-1847170Y1279190D01*
G01X-1856180Y1258648D01*
G01X-1861686Y1236904D01*
G01X-1863539Y1214549D01*
G01X-1863539Y1214549D01*
G01X-5616603Y1214549D01*
G01X-5615465Y1228282D01*
G01X-5617318Y1250636D01*
G01X-5622824Y1272380D01*
G01X-5631834Y1292922D01*
G01X-5644103Y1311700D01*
G01X-5659295Y1328203D01*
G01X-5676996Y1341981D01*
G01X-5696723Y1352656D01*
G01X-5717939Y1359940D01*
G01X-5740064Y1363632D01*
G01X-5762495Y1363632D01*
G01X-5784620Y1359940D01*
G01X-5805835Y1352656D01*
G01X-5825563Y1341981D01*
G01X-5843264Y1328203D01*
G01X-5858456Y1311700D01*
G01X-5870724Y1292922D01*
G01X-5879735Y1272380D01*
G01X-5885241Y1250636D01*
G01X-5887093Y1228282D01*
G01X-5887093Y1228282D01*
G01X-7648587Y1228282D01*
G01X-7643828Y1714500D01*
G01X-3909314Y1714500D01*
G01X-3909314Y1600200D01*
G01X-3907779Y1586579D01*
G01X-3903252Y1573640D01*
G01X-3895959Y1562034D01*
G01X-3886266Y1552341D01*
G01X-3874660Y1545048D01*
G01X-3861721Y1540521D01*
G01X-3848100Y1538986D01*
G01X-3251200Y1538986D01*
G01X-3237579Y1540521D01*
G01X-3224640Y1545048D01*
G01X-3213034Y1552341D01*
G01X-3203341Y1562034D01*
G01X-3196048Y1573640D01*
G01X-3191521Y1586579D01*
G01X-3189986Y1600200D01*
G01X-3189986Y1714500D01*
G01X-3189986Y1714500D01*
G01X-3191521Y1728121D01*
G01X-3196048Y1741060D01*
G01X-3203341Y1752666D01*
G01X-3213034Y1762359D01*
G01X-3224640Y1769652D01*
G01X-3237579Y1774179D01*
G01X-3251200Y1775714D01*
G01X-3848100Y1775714D01*
G01X-3861721Y1774179D01*
G01X-3874660Y1769652D01*
G01X-3886266Y1762359D01*
G01X-3895959Y1752666D01*
G01X-3903252Y1741060D01*
G01X-3907779Y1728121D01*
G01X-3909314Y1714500D01*
G01X-7643828Y1714500D01*
G01X-7641472Y1955153D01*
G37*
G36*
G01X-3919952Y688086D02*
G01X-3933737Y684810D01*
G01X-3946512Y678680D01*
G01X-3957692Y669977D01*
G01X-3966769Y659096D01*
G01X-3973327Y646536D01*
G01X-3977066Y632870D01*
G01X-3977817Y618720D01*
G01X-3975545Y604735D01*
G01X-3981629Y618138D01*
G01X-3990518Y629870D01*
G01X-4001777Y639351D01*
G01X-4014850Y646115D01*
G01X-4029093Y649829D01*
G01X-4043805Y650309D01*
G01X-4058260Y647533D01*
G01X-4071746Y641636D01*
G01X-4083600Y632909D01*
G01X-4093236Y621782D01*
G01X-4100181Y608804D01*
G01X-4104091Y594614D01*
G01X-4134256Y594614D01*
G01X-4136811Y604808D01*
G01X-4142215Y613822D01*
G01X-4150002Y620879D01*
G01X-4159502Y625372D01*
G01X-4169898Y626914D01*
G01X-4249898Y626914D01*
G01X-4261538Y624969D01*
G01X-4271914Y619347D01*
G01X-4279900Y610657D01*
G01X-4285698Y617497D01*
G01X-4293014Y622682D01*
G01X-4301388Y625887D01*
G01X-4301388Y688086D01*
G01X-3919952Y688086D01*
G37*
G36*
G01X-1046002Y525314D02*
G01X-1094313Y525314D01*
G01X-1089042Y530586D01*
G01X-1038313Y530586D01*
G01X-1028699Y531900D01*
G01X-1019791Y535747D01*
G01X-1012242Y541844D01*
G01X-1006607Y549744D01*
G01X-1003300Y558866D01*
G01X-999993Y549744D01*
G01X-994358Y541844D01*
G01X-986809Y535747D01*
G01X-977901Y531900D01*
G01X-968287Y530586D01*
G01X-887640Y530586D01*
G01X-877202Y532140D01*
G01X-867671Y536670D01*
G01X-859873Y543780D01*
G01X-854486Y552855D01*
G01X-851978Y563105D01*
G01X-798217Y563105D01*
G01X-798217Y546607D01*
G01X-796404Y535358D01*
G01X-798217Y524109D01*
G01X-798217Y469108D01*
G01X-797649Y462755D01*
G01X-795963Y456603D01*
G01X-797649Y450452D01*
G01X-798217Y444099D01*
G01X-798217Y394393D01*
G01X-817703Y374907D01*
G01X-831810Y381007D01*
G01X-846943Y383696D01*
G01X-862288Y382829D01*
G01X-877021Y378453D01*
G01X-871936Y388435D01*
G01X-870184Y399500D01*
G01X-870184Y489500D01*
G01X-871937Y500567D01*
G01X-877024Y510551D01*
G01X-884947Y518474D01*
G01X-894931Y523561D01*
G01X-905998Y525314D01*
G01X-985998Y525314D01*
G01X-997638Y523369D01*
G01X-1008014Y517747D01*
G01X-1016000Y509057D01*
G01X-1023986Y517747D01*
G01X-1034362Y523369D01*
G01X-1046002Y525314D01*
G37*
G54D10*
G01X-7641472Y1955153D02*
G01X-9022Y1955153D01*
G01X-9022Y-2422173D01*
G01X-1513435Y-3926586D01*
G01X-5994400Y-3926586D01*
G01X-7685619Y-2554667D01*
G01X-7641472Y1955153D01*
G01X-7367596Y-84679D02*
G01X-7557596Y-84679D01*
G03X-7557596Y-276306I0J-95814D01*
G01X-7367596Y-276306D01*
G03X-7367596Y-84679I0J95814D01*
G01X-6654800Y-1572514D02*
G03X-6620495Y-1558305I0J48514D01*
G01X-6549299Y-1487108D01*
G03X-6535090Y-1452804I-34305J34305D01*
G01X-6535090Y-1267300D01*
G01X-6439604Y-1267300D01*
G03X-6403790Y-1231486I0J35814D01*
G01X-6403790Y-1119487D01*
G03X-6439604Y-1083673I-35814J0D01*
G01X-6727604Y-1083673D01*
G03X-6763418Y-1119487I0J-35814D01*
G01X-6763418Y-1231486D01*
G03X-6727604Y-1267300I35814J0D01*
G01X-6632118Y-1267300D01*
G01X-6632118Y-1432709D01*
G01X-6674895Y-1475486D01*
G01X-7271912Y-1475486D01*
G03X-7367596Y-1374694I-95684J4978D01*
G01X-7557596Y-1374694D01*
G03X-7557596Y-1566321I0J-95814D01*
G01X-7432821Y-1566321D01*
G03X-7409104Y-1572514I23717J42321D01*
G01X-6654800Y-1572514D01*
G01X-6408705Y-851392D02*
G03X-6439604Y-833686I-30899J-18108D01*
G01X-6727604Y-833686D01*
G03X-6763418Y-869500I0J-35814D01*
G01X-6763418Y-981499D01*
G03X-6727604Y-1017313I35814J0D01*
G01X-6439604Y-1017313D01*
G03X-6403790Y-981499I0J35814D01*
G01X-6403790Y-948614D01*
G01X-6388804Y-948614D01*
G03X-6354499Y-934404I0J48514D01*
G01X-6289029Y-868934D01*
G01X-3982720Y-868934D01*
G03X-3948415Y-854725I0J48514D01*
G01X-3822977Y-729286D01*
G01X-3822977Y-746119D01*
G01X-4001099Y-924241D01*
G01X-4583159Y-924241D01*
G03X-4617464Y-938450I0J-48514D01*
G01X-4635424Y-956411D01*
G03X-4649634Y-990715I34305J-34305D01*
G01X-4649634Y-3056322D01*
G01X-4676260Y-3056322D01*
G01X-4676260Y-2985181D01*
G03X-4704541Y-2950169I-35814J0D01*
G03X-4676260Y-2915156I-7534J35013D01*
G01X-4676260Y-2834509D01*
G03X-4712074Y-2798695I-35814J0D01*
G01X-4798475Y-2798695D01*
G03X-4834289Y-2834509I0J-35814D01*
G01X-4834289Y-2915156D01*
G03X-4806009Y-2950169I35814J0D01*
G03X-4834289Y-2985181I7534J-35013D01*
G01X-4834289Y-3065829D01*
G03X-4816247Y-3096922I35814J0D01*
G03X-4827368Y-3098735I128J-35814D01*
G03X-4838617Y-3096922I-11249J-34002D01*
G01X-4893618Y-3096922D01*
G03X-4906123Y-3099176I0J-35814D01*
G03X-4918627Y-3096922I-12504J-33560D01*
G01X-4973628Y-3096922D01*
G03X-5007915Y-3122390I0J-35814D01*
G03X-5149438Y-3197727I-50709J-75338D01*
G01X-5149438Y-3287727D01*
G03X-4977425Y-3328394I90814J0D01*
G03X-4889973Y-3360948I62311J33648D01*
G03X-4846176Y-3278550I-25141J66202D01*
G01X-4838617Y-3278550D01*
G03X-4827368Y-3276737I0J35814D01*
G03X-4816119Y-3278550I11249J34002D01*
G01X-4786119Y-3278550D01*
G03X-4776113Y-3277124I0J35814D01*
G03X-4766107Y-3278550I10006J34388D01*
G01X-4736107Y-3278550D01*
G03X-4726113Y-3277127I0J35814D01*
G03X-4716119Y-3278550I9994J34391D01*
G01X-4686034Y-3278550D01*
G03X-4678324Y-3288597I42014J24257D01*
G01X-4661981Y-3304941D01*
G03X-4627676Y-3319150I34305J34305D01*
G01X-4574563Y-3319150D01*
G03X-4540258Y-3304941I0J48514D01*
G01X-4523915Y-3288597D01*
G03X-4516205Y-3278550I-34305J34305D01*
G01X-4486120Y-3278550D01*
G03X-4476113Y-3277124I0J35814D01*
G03X-4466107Y-3278550I10006J34388D01*
G01X-4436107Y-3278550D01*
G03X-4424858Y-3276737I0J35814D01*
G03X-4413609Y-3278550I11249J34002D01*
G01X-4406050Y-3278550D01*
G03X-4362266Y-3360943I68938J-16196D01*
G03X-4274815Y-3328419I25154J66197D01*
G03X-4102813Y-3287727I81187J40692D01*
G01X-4102813Y-3197727D01*
G03X-4244337Y-3122390I-90814J0D01*
G03X-4278623Y-3096922I-34287J-10347D01*
G01X-4333625Y-3096922D01*
G03X-4346116Y-3099171I0J-35814D01*
G03X-4358608Y-3096922I-12492J-33565D01*
G01X-4383970Y-3096922D01*
G03X-4376656Y-3075234I-28500J21689D01*
G01X-4376656Y-2994586D01*
G03X-4404936Y-2959573I-35814J0D01*
G03X-4376656Y-2924561I-7534J35013D01*
G01X-4376656Y-2843913D01*
G03X-4412470Y-2808099I-35814J0D01*
G01X-4498871Y-2808099D01*
G03X-4502618Y-2808296I0J-35814D01*
G01X-4502618Y-1061909D01*
G01X-3964170Y-1061909D01*
G03X-3929866Y-1047699I0J48514D01*
G01X-3699519Y-817352D01*
G03X-3685309Y-783048I-34305J34305D01*
G01X-3685309Y356375D01*
G01X-3565713Y356375D01*
G03X-3542010Y350190I23703J42329D01*
G01X-3456610Y350190D01*
G03X-3452216Y350389I0J48514D01*
G01X-3396610Y350389D01*
G03X-3360796Y386203I0J35814D01*
G01X-3360796Y411204D01*
G03X-3363647Y425209I-35814J0D01*
G03X-3360796Y439213I-32962J14004D01*
G01X-3360796Y464214D01*
G03X-3363642Y478206I-35814J0D01*
G03X-3360796Y492197I-32968J13992D01*
G01X-3360796Y517199D01*
G03X-3363647Y531203I-35814J0D01*
G03X-3360796Y545207I-32962J14004D01*
G01X-3360796Y570208D01*
G03X-3363642Y584200I-35814J0D01*
G03X-3360796Y598192I-32968J13992D01*
G01X-3360796Y623193D01*
G01X-3360845Y625064D01*
G03X-3354051Y624586I6794J48036D01*
G01X-3309110Y624586D01*
G03X-3197586Y673100I45210J48514D01*
G03X-3309110Y721614I-66314J0D01*
G01X-3333956Y721614D01*
G01X-3350749Y738407D01*
G03X-3362294Y746947I-34305J-34305D01*
G03X-3360796Y757196I-34316J10249D01*
G01X-3360796Y782197D01*
G03X-3396610Y818011I-35814J0D01*
G01X-3452216Y818011D01*
G03X-3456610Y818210I-4394J-48315D01*
G01X-3538355Y818210D01*
G03X-3565498Y826514I-27143J-40210D01*
G01X-3587984Y826514D01*
G01X-3587984Y895900D01*
G03X-3623798Y931714I-35814J0D01*
G01X-3625483Y931714D01*
G01X-3625483Y962322D01*
G03X-3600684Y996400I-11014J34078D01*
G01X-3600684Y1086400D01*
G03X-3636498Y1122214I-35814J0D01*
G01X-3716498Y1122214D01*
G03X-3746500Y1105957I0J-35814D01*
G03X-3776502Y1122214I-30002J-19557D01*
G01X-3856502Y1122214D01*
G03X-3892316Y1086400I0J-35814D01*
G01X-3892316Y996400D01*
G03X-3865016Y961613I35814J0D01*
G01X-3865016Y924755D01*
G03X-3879616Y895900I21214J-28855D01*
G01X-3879616Y805900D01*
G03X-3872967Y785114I35814J0D01*
G01X-4331942Y785114D01*
G03X-4366246Y770905I0J-48514D01*
G01X-4384207Y752944D01*
G03X-4398416Y718639I34305J-34305D01*
G01X-4398416Y625887D01*
G03X-4425716Y591100I8514J-34787D01*
G01X-4425716Y501100D01*
G03X-4389902Y465286I35814J0D01*
G01X-4309902Y465286D01*
G03X-4279900Y481543I0J35814D01*
G03X-4249898Y465286I30002J19557D01*
G01X-4169898Y465286D01*
G03X-4134256Y497586I0J35814D01*
G01X-4076700Y497586D01*
G03X-4042395Y511795I0J48514D01*
G01X-4036264Y517927D01*
G03X-3974655Y601765I-2336J66273D01*
G03X-3916219Y556147I63055J20535D01*
G01X-3928305Y544060D01*
G03X-3942515Y509756I34305J-34305D01*
G01X-3942515Y-654132D01*
G01X-4019649Y-731266D01*
G01X-6289029Y-731266D01*
G01X-6354499Y-665796D01*
G03X-6388804Y-651586I-34305J-34305D01*
G01X-6408592Y-651586D01*
G03X-6439604Y-633687I-31011J-17915D01*
G01X-6727604Y-633687D01*
G03X-6763418Y-669501I0J-35814D01*
G01X-6763418Y-781500D01*
G03X-6727604Y-817314I35814J0D01*
G01X-6439604Y-817314D01*
G03X-6403790Y-781500I0J35814D01*
G01X-6403790Y-753723D01*
G01X-6357413Y-800100D01*
G01X-6408705Y-851392D01*
G01X-6727604Y-383700D02*
G03X-6763418Y-419514I0J-35814D01*
G01X-6763418Y-531513D01*
G03X-6727604Y-567327I35814J0D01*
G01X-6439604Y-567327D01*
G03X-6403790Y-531513I0J35814D01*
G01X-6403790Y-419514D01*
G03X-6439604Y-383700I-35814J0D01*
G01X-6727604Y-383700D01*
G01X-5887093Y1228282D02*
G03X-5615465Y1228282I135814J0D01*
G03X-5887093Y1228282I-135814J0D01*
G01X-5873361Y-2393604D02*
G03X-5601733Y-2393604I135814J0D01*
G03X-5873361Y-2393604I-135814J0D01*
G01X-5250673Y-3589647D02*
G01X-5330673Y-3589647D01*
G03X-5360675Y-3605904I0J-35814D01*
G03X-5390678Y-3589647I-30002J-19557D01*
G01X-5470678Y-3589647D01*
G03X-5506492Y-3625461I0J-35814D01*
G01X-5506492Y-3715461D01*
G03X-5470678Y-3751275I35814J0D01*
G01X-5390678Y-3751275D01*
G03X-5360675Y-3735018I0J35814D01*
G03X-5330673Y-3751275I30002J19557D01*
G01X-5250673Y-3751275D01*
G03X-5214859Y-3715461I0J35814D01*
G01X-5214859Y-3713497D01*
G01X-5152163Y-3713497D01*
G03X-4962810Y-3692741I93539J20756D01*
G01X-4962810Y-3632742D01*
G03X-5153046Y-3616469I-95814J0D01*
G01X-5216006Y-3616469D01*
G03X-5250673Y-3589647I-34667J-8992D01*
G01X-4289441Y-3632742D02*
G01X-4289441Y-3692741D01*
G03X-4097813Y-3692741I95814J0D01*
G01X-4097813Y-3632742D01*
G03X-4289441Y-3632742I-95814J0D01*
G01X-3189986Y1714500D02*
G03X-3251200Y1775714I-61214J0D01*
G01X-3848100Y1775714D01*
G03X-3909314Y1714500I0J-61214D01*
G01X-3909314Y1600200D01*
G03X-3848100Y1538986I61214J0D01*
G01X-3251200Y1538986D01*
G03X-3189986Y1600200I0J61214D01*
G01X-3189986Y1714500D01*
G01X-2238014Y-1875869D02*
G01X-2238014Y-2807626D01*
G01X-2303800Y-2807626D01*
G03X-2339614Y-2843440I0J-35814D01*
G01X-2339614Y-2924087D01*
G03X-2311334Y-2959100I35814J0D01*
G03X-2339614Y-2994113I7534J-35013D01*
G01X-2339614Y-3074760D01*
G03X-2314143Y-3109048I35814J0D01*
G01X-2314143Y-3138783D01*
G01X-2323593Y-3138783D01*
G03X-2334842Y-3140596I0J-35814D01*
G03X-2346091Y-3138783I-11249J-34002D01*
G01X-2401092Y-3138783D01*
G03X-2413597Y-3141037I0J-35814D01*
G03X-2426101Y-3138783I-12504J-33560D01*
G01X-2481102Y-3138783D01*
G03X-2515389Y-3164251I0J-35814D01*
G03X-2656912Y-3239588I-50709J-75338D01*
G01X-2656912Y-3329588D01*
G03X-2484899Y-3370255I90814J0D01*
G03X-2397447Y-3402809I62311J33648D01*
G03X-2353650Y-3320411I-25141J66202D01*
G01X-2346091Y-3320411D01*
G03X-2334842Y-3318599I0J35814D01*
G03X-2323593Y-3320411I11249J34002D01*
G01X-2293593Y-3320411D01*
G03X-2283587Y-3318985I0J35814D01*
G03X-2273581Y-3320411I10006J34388D01*
G01X-2245614Y-3320411D01*
G01X-2245614Y-3345690D01*
G03X-2206394Y-3456560I48514J-45210D01*
G03X-2137944Y-3360931I9294J65660D01*
G03X-2135150Y-3361011I2794J48433D01*
G01X-2082037Y-3361011D01*
G03X-2047733Y-3346802I0J48514D01*
G01X-2031389Y-3330458D01*
G03X-2023679Y-3320411I-34305J34305D01*
G01X-1993594Y-3320411D01*
G03X-1983588Y-3318985I0J35814D01*
G03X-1973581Y-3320411I10006J34388D01*
G01X-1943581Y-3320411D01*
G03X-1932332Y-3318599I0J35814D01*
G03X-1921083Y-3320411I11249J34002D01*
G01X-1913524Y-3320411D01*
G03X-1869741Y-3402805I68938J-16196D01*
G03X-1782289Y-3370280I25154J66197D01*
G03X-1610288Y-3329588I81187J40692D01*
G01X-1610288Y-3239588D01*
G03X-1751811Y-3164251I-90814J0D01*
G03X-1786098Y-3138783I-34287J-10347D01*
G01X-1798989Y-3138783D01*
G03X-1787886Y-3112860I-24711J25923D01*
G01X-1787886Y-3032213D01*
G03X-1816166Y-2997200I-35814J0D01*
G03X-1787886Y-2962187I-7534J35013D01*
G01X-1787886Y-2881540D01*
G03X-1823700Y-2845726I-35814J0D01*
G01X-1910100Y-2845726D01*
G03X-1945914Y-2881540I0J-35814D01*
G01X-1945914Y-2962187D01*
G03X-1917634Y-2997200I35814J0D01*
G03X-1945914Y-3032213I7534J-35013D01*
G01X-1945914Y-3065543D01*
G01X-1992886Y-3112514D01*
G03X-1997648Y-3118054I34305J-34305D01*
G03X-1996186Y-3106234I-47052J11820D01*
G01X-1996186Y-2991610D01*
G03X-2003903Y-2894120I-48514J45210D01*
G03X-2100346Y-2910329I-40797J-52280D01*
G01X-2100346Y-1838940D01*
G03X-2114555Y-1804636I-48514J0D01*
G01X-2872491Y-1046700D01*
G01X-2872491Y335159D01*
G01X-1321054Y-1216278D01*
G01X-1321054Y-1871034D01*
G03X-1306845Y-1905338I48514J0D01*
G01X-1264458Y-1947725D01*
G03X-1230153Y-1961934I34305J34305D01*
G01X-762617Y-1961934D01*
G01X-762617Y-1987426D01*
G01X-823449Y-1987426D01*
G03X-858462Y-2015706I0J-35814D01*
G03X-893474Y-1987426I-35013J-7534D01*
G01X-974122Y-1987426D01*
G03X-1009936Y-2023240I0J-35814D01*
G01X-1009936Y-2109640D01*
G03X-974122Y-2145454I35814J0D01*
G01X-893474Y-2145454D01*
G03X-858462Y-2117174I0J35814D01*
G03X-823449Y-2145454I35013J7534D01*
G01X-742801Y-2145454D01*
G03X-721605Y-2138508I0J35814D01*
G03X-720204Y-2144342I35402J5415D01*
G03X-722017Y-2155591I34002J-11249D01*
G01X-722017Y-2210592D01*
G03X-719763Y-2223097I35814J0D01*
G03X-722017Y-2235601I33560J-12504D01*
G01X-722017Y-2290602D01*
G03X-696549Y-2324889I35814J0D01*
G03X-621212Y-2466412I75338J-50709D01*
G01X-531212Y-2466412D01*
G03X-464448Y-2437159I0J90814D01*
G01X-259618Y-2437159D01*
G03X-186197Y-2471412I73420J61561D01*
G01X-126197Y-2471412D01*
G03X-126197Y-2279785I0J95814D01*
G01X-186197Y-2279785D01*
G03X-275205Y-2340131I0J-95814D01*
G01X-447610Y-2340131D01*
G03X-490545Y-2294399I-83602J-35467D01*
G03X-457991Y-2206947I-33648J62311D01*
G03X-540389Y-2163150I-66202J-25141D01*
G01X-540389Y-2155591D01*
G03X-542201Y-2144342I-35814J0D01*
G03X-540389Y-2133093I-34002J11249D01*
G01X-540389Y-2103093D01*
G03X-541815Y-2093087I-35814J0D01*
G03X-540389Y-2083081I-34388J10006D01*
G01X-540389Y-2053081D01*
G03X-541811Y-2043087I-35814J0D01*
G03X-540389Y-2033093I-34391J9994D01*
G01X-540389Y-2003008D01*
G03X-530342Y-1995298I-24257J42014D01*
G01X-513998Y-1978955D01*
G03X-499789Y-1944650I-34305J34305D01*
G01X-499789Y-1891537D01*
G03X-513998Y-1857233I-48514J0D01*
G01X-530342Y-1840889D01*
G03X-540389Y-1833179I-34305J-34305D01*
G01X-540389Y-1803094D01*
G03X-541815Y-1793088I-35814J0D01*
G03X-540389Y-1783081I-34388J10006D01*
G01X-540389Y-1753081D01*
G03X-542201Y-1741832I-35814J0D01*
G03X-540389Y-1730583I-34002J11249D01*
G01X-540389Y-1723024D01*
G03X-457995Y-1679241I16196J68938D01*
G03X-490520Y-1591789I-66197J25154D01*
G03X-462364Y-1569823I-40692J81187D01*
G01X-261518Y-1569823D01*
G03X-186197Y-1606415I75320J59221D01*
G01X-126197Y-1606415D01*
G03X-126197Y-1414788I0J95814D01*
G01X-186197Y-1414788D01*
G03X-274237Y-1472795I0J-95814D01*
G01X-448642Y-1472795D01*
G03X-531212Y-1419788I-82570J-37807D01*
G01X-621212Y-1419788D01*
G03X-696549Y-1561311I0J-90814D01*
G03X-722017Y-1595598I10347J-34287D01*
G01X-722017Y-1650599D01*
G03X-719767Y-1663090I35814J0D01*
G03X-722017Y-1675582I33565J-12492D01*
G01X-722017Y-1719567D01*
G01X-728227Y-1719567D01*
G03X-760640Y-1698986I-32413J-15232D01*
G01X-841287Y-1698986D01*
G03X-876300Y-1727266I0J-35814D01*
G03X-911313Y-1698986I-35013J-7534D01*
G01X-991960Y-1698986D01*
G03X-1027774Y-1734800I0J-35814D01*
G01X-1027774Y-1821200D01*
G03X-1027643Y-1824266I35814J0D01*
G01X-1183386Y-1824266D01*
G01X-1183386Y-1179349D01*
G03X-1197595Y-1145044I-48514J0D01*
G01X-2911003Y568363D01*
G01X-1354206Y568363D01*
G03X-1356191Y475040I46106J-47663D01*
G03X-1262890Y472186I48091J45660D01*
G01X-1167536Y472186D01*
G03X-1161816Y472524I0J48514D01*
G01X-1161816Y399500D01*
G03X-1134516Y364713I35814J0D01*
G01X-1134516Y337310D01*
G03X-1086002Y225786I48514J-45210D01*
G03X-1037488Y337310I0J66314D01*
G01X-1037488Y364713D01*
G03X-1016000Y379943I-8514J34787D01*
G03X-985998Y363686I30002J19557D01*
G01X-905998Y363686D01*
G03X-897462Y364718I0J35814D01*
G03X-898767Y271606I46562J-47218D01*
G03X-805683Y268993I47867J45894D01*
G03X-783385Y274847I-818J48507D01*
G03X-747014Y228031I85973J29254D01*
G01X-747014Y134110D01*
G03X-698500Y22586I48514J-45210D01*
G03X-649986Y134110I0J66314D01*
G01X-649986Y213288D01*
G01X-607412Y213288D01*
G03X-566745Y385301I0J90814D01*
G03X-534191Y472753I-33648J62311D01*
G03X-616589Y516550I-66202J-25141D01*
G01X-616589Y524109D01*
G03X-618401Y535358I-35814J0D01*
G03X-616589Y546607I-34002J11249D01*
G01X-616589Y576607D01*
G03X-618015Y586613I-35814J0D01*
G03X-616589Y596619I-34388J10006D01*
G01X-616589Y626680D01*
G03X-606542Y634389I-24257J42014D01*
G01X-590198Y650733D01*
G03X-575989Y685037I-34305J34305D01*
G01X-575989Y738150D01*
G03X-590198Y772455I-48514J0D01*
G01X-606542Y788798D01*
G03X-616589Y796508I-34305J-34305D01*
G01X-616589Y826593D01*
G03X-618015Y836600I-35814J0D01*
G03X-616589Y846606I-34388J10006D01*
G01X-616589Y876606D01*
G03X-618015Y886612I-35814J0D01*
G03X-616589Y896619I-34388J10006D01*
G01X-616589Y926619D01*
G03X-618401Y937868I-35814J0D01*
G03X-616589Y949117I-34002J11249D01*
G01X-616589Y956676D01*
G03X-534195Y1000459I16196J68938D01*
G03X-566720Y1087911I-66197J25154D01*
G03X-573786Y1253458I-40692J81187D01*
G01X-573786Y1290247D01*
G01X-284553Y1290247D01*
G01X-284553Y1262315D01*
G03X-280911Y1075090I22156J-93217D01*
G01X-280911Y398110D01*
G03X-262397Y208288I18514J-94008D01*
G01X-202397Y208288D01*
G03X-183883Y398110I0J95814D01*
G01X-183883Y1075090D01*
G03X-187525Y1263751I-18514J94008D01*
G01X-187525Y1320800D01*
G03X-201735Y1355105I-48514J0D01*
G01X-219695Y1373065D01*
G03X-254000Y1387275I-34305J-34305D01*
G01X-604339Y1387275D01*
G03X-638644Y1373065I0J-48514D01*
G01X-656605Y1355105D01*
G03X-670814Y1320800I34305J-34305D01*
G01X-670814Y1259912D01*
G01X-674616Y1259912D01*
G01X-769809Y1355105D01*
G03X-804113Y1369314I-34305J-34305D01*
G01X-818390Y1369314D01*
G03X-929882Y1322862I-45210J-48514D01*
G03X-821492Y1269570I66282J-2062D01*
G01X-772337Y1220415D01*
G03X-785591Y1190814I74925J-51316D01*
G03X-793801Y1191514I-8210J-47814D01*
G01X-843790Y1191514D01*
G03X-955314Y1143000I-45210J-48514D01*
G03X-843790Y1094486I66314J0D01*
G01X-813896Y1094486D01*
G01X-798217Y1078807D01*
G01X-798217Y1029101D01*
G03X-795967Y1016610I35814J0D01*
G03X-798217Y1004118I33565J-12492D01*
G01X-798217Y960133D01*
G01X-842527Y960133D01*
G03X-874940Y980714I-32413J-15232D01*
G01X-955587Y980714D01*
G03X-990600Y952434I0J-35814D01*
G03X-992886Y959447I-35013J-7534D01*
G01X-992886Y996190D01*
G03X-1041400Y1107714I-48514J45210D01*
G03X-1089914Y996190I0J-66314D01*
G01X-1089914Y980714D01*
G01X-1106260Y980714D01*
G03X-1142074Y944900I0J-35814D01*
G01X-1142074Y858500D01*
G03X-1106260Y822686I35814J0D01*
G01X-1025613Y822686D01*
G03X-990600Y850966I0J35814D01*
G03X-955587Y822686I35013J7534D01*
G01X-874940Y822686D01*
G03X-839126Y858500I0J35814D01*
G01X-839126Y863105D01*
G01X-798217Y863105D01*
G01X-798216Y846521D01*
G03X-808264Y838811I24257J-42014D01*
G01X-824607Y822467D01*
G03X-838817Y788163I34305J-34305D01*
G01X-838817Y769854D01*
G01X-1147351Y769854D01*
G03X-1181655Y755645I0J-48514D01*
G01X-1231269Y706031D01*
G01X-2987487Y706031D01*
G03X-3000776Y711085I-23703J-42329D01*
G01X-3000776Y729212D01*
G03X-3003622Y743204I-35814J0D01*
G03X-3000776Y757196I-32968J13992D01*
G01X-3000776Y782197D01*
G03X-3036590Y818011I-35814J0D01*
G01X-3076296Y818011D01*
G01X-3137879Y879594D01*
G03X-3217519Y965766I-62521J22106D01*
G03X-3243562Y851355I17119J-64066D01*
G03X-3234705Y839201I43162J22151D01*
G01X-3190165Y794662D01*
G03X-3192404Y782197I33575J-12465D01*
G01X-3192404Y757196D01*
G03X-3189558Y743204I35814J0D01*
G03X-3192404Y729212I32968J-13992D01*
G01X-3192404Y704211D01*
G03X-3189553Y690207I35814J0D01*
G03X-3192404Y676203I32962J-14004D01*
G01X-3192404Y651201D01*
G03X-3189553Y637197I35814J0D01*
G03X-3192404Y623193I32962J-14004D01*
G01X-3192404Y598192D01*
G03X-3189558Y584200I35814J0D01*
G03X-3192404Y570208I32968J-13992D01*
G01X-3192404Y545207D01*
G03X-3189553Y531203I35814J0D01*
G03X-3192404Y517199I32962J-14004D01*
G01X-3192404Y492197D01*
G03X-3189558Y478206I35814J0D01*
G03X-3192404Y464214I32968J-13992D01*
G01X-3192404Y439213D01*
G03X-3189553Y425209I35814J0D01*
G03X-3192404Y411204I32962J-14004D01*
G01X-3192404Y386203D01*
G03X-3156590Y350389I35814J0D01*
G01X-3100984Y350389D01*
G03X-3096590Y350190I4394J48315D01*
G01X-3011190Y350190D01*
G01X-3010159Y350201D01*
G01X-3010159Y-1083629D01*
G03X-2995949Y-1117933I48514J0D01*
G01X-2238014Y-1875869D01*
G01X-2874802Y1033314D02*
G01X-2954802Y1033314D01*
G03X-2990616Y997500I0J-35814D01*
G01X-2990616Y962914D01*
G01X-3002790Y962914D01*
G03X-3114314Y914400I-45210J-48514D01*
G03X-3002790Y865886I66314J0D01*
G01X-2967504Y865886D01*
G03X-2990616Y832400I12701J-33486D01*
G01X-2990616Y742400D01*
G03X-2954802Y706586I35814J0D01*
G01X-2874802Y706586D01*
G03X-2844800Y722843I0J35814D01*
G03X-2814798Y706586I30002J19557D01*
G01X-2734798Y706586D01*
G03X-2699156Y738886I0J35814D01*
G01X-2692400Y738886D01*
G03X-2658095Y753095I0J48514D01*
G01X-2620214Y790977D01*
G03X-2575659Y904141I-2336J66273D01*
G03X-2688823Y859586I-46891J-46891D01*
G01X-2701886Y846523D01*
G03X-2734798Y868214I-32912J-14123D01*
G01X-2814798Y868214D01*
G03X-2844800Y851957I0J-35814D01*
G03X-2874802Y868214I-30002J-19557D01*
G01X-2938055Y868214D01*
G03X-2929900Y871686I-14848J46186D01*
G01X-2874802Y871686D01*
G03X-2844800Y887943I0J35814D01*
G03X-2814798Y871686I30002J19557D01*
G01X-2734798Y871686D01*
G03X-2698984Y907500I0J35814D01*
G01X-2698984Y997500D01*
G03X-2734798Y1033314I-35814J0D01*
G01X-2814798Y1033314D01*
G03X-2844800Y1017057I0J-35814D01*
G03X-2874802Y1033314I-30002J-19557D01*
G01X-2661912Y-3674603D02*
G01X-2661912Y-3734603D01*
G03X-2470285Y-3734603I95814J0D01*
G01X-2470285Y-3674603D01*
G03X-2661912Y-3674603I-95814J0D01*
G01X-1863539Y1214549D02*
G03X-1591911Y1214549I135814J0D01*
G03X-1863539Y1214549I-135814J0D01*
G01X-1849806Y-2379872D02*
G03X-1578178Y-2379872I135814J0D01*
G03X-1849806Y-2379872I-135814J0D01*
G01X-1796915Y-3674603D02*
G01X-1796915Y-3734603D01*
G03X-1605288Y-3734603I95814J0D01*
G01X-1605288Y-3674603D01*
G03X-1796915Y-3674603I-95814J0D01*
G01X-1020602Y-452586D02*
G01X-1100602Y-452586D01*
G03X-1136416Y-488400I0J-35814D01*
G01X-1136416Y-497586D01*
G01X-1186690Y-497586D01*
G03X-1298214Y-546100I-45210J-48514D01*
G03X-1186690Y-594614I66314J0D01*
G01X-1132536Y-594614D01*
G03X-1100602Y-614214I31933J16214D01*
G01X-1020602Y-614214D01*
G03X-990600Y-597957I0J35814D01*
G03X-960598Y-614214I30002J19557D01*
G01X-880598Y-614214D01*
G03X-844784Y-578400I0J35814D01*
G01X-844784Y-488400D01*
G03X-880598Y-452586I-35814J0D01*
G01X-960598Y-452586D01*
G03X-990600Y-468843I0J-35814D01*
G03X-1020602Y-452586I-30002J-19557D01*
G01X-701249Y-587147D02*
G03X-589790Y-632714I66249J2947D01*
G01X-578002Y-632714D01*
G03X-543698Y-618505I0J48514D01*
G01X-378598Y-453405D01*
G03X-447207Y-384795I-34305J34305D01*
G01X-594275Y-531864D01*
G03X-701249Y-587147I-40725J-52336D01*
G01X-465602Y-1198414D02*
G01X-385602Y-1198414D01*
G03X-355600Y-1182157I0J35814D01*
G03X-325598Y-1198414I30002J19557D01*
G01X-245598Y-1198414D01*
G03X-209784Y-1162600I0J35814D01*
G01X-209784Y-1072600D01*
G03X-245598Y-1036786I-35814J0D01*
G01X-325598Y-1036786D01*
G03X-355600Y-1053043I0J-35814D01*
G03X-385602Y-1036786I-30002J-19557D01*
G01X-465602Y-1036786D01*
G03X-501416Y-1072600I0J-35814D01*
G01X-501416Y-1081786D01*
G01X-577090Y-1081786D01*
G03X-688614Y-1130300I-45210J-48514D01*
G03X-577090Y-1178814I66314J0D01*
G01X-497536Y-1178814D01*
G03X-465602Y-1198414I31933J16214D01*
G01X-593106Y-848195D02*
G03X-648138Y-956497I-3794J-66205D01*
G03X-531217Y-923523I51238J42097D01*
G01X-488607Y-880914D01*
G01X-436402Y-880914D01*
G03X-406400Y-864657I0J35814D01*
G03X-376398Y-880914I30002J19557D01*
G01X-296398Y-880914D01*
G03X-260584Y-845100I0J35814D01*
G01X-260584Y-755100D01*
G03X-296398Y-719286I-35814J0D01*
G01X-376398Y-719286D01*
G03X-406400Y-735543I0J-35814D01*
G03X-436402Y-719286I-30002J-19557D01*
G01X-516402Y-719286D01*
G03X-552216Y-755100I0J-35814D01*
G01X-552216Y-807305D01*
G01X-593106Y-848195D01*
G01X-3919952Y688086D02*
G03X-3966769Y659096I8352J-65786D01*
G03X-3975545Y604735I55169J-36796D01*
G03X-4043805Y650309I-63055J-20535D01*
G03X-4104091Y594614I5205J-66109D01*
G01X-4134256Y594614D01*
G03X-4169898Y626914I-35641J-3514D01*
G01X-4249898Y626914D01*
G03X-4279900Y610657I0J-35814D01*
G03X-4301388Y625887I-30002J-19557D01*
G01X-4301388Y688086D01*
G01X-3919952Y688086D01*
G01X-1046002Y525314D02*
G01X-1094313Y525314D01*
G01X-1089042Y530586D01*
G01X-1038313Y530586D01*
G03X-1003300Y558866I0J35814D01*
G03X-968287Y530586I35013J7534D01*
G01X-887640Y530586D01*
G03X-851978Y563105I0J35814D01*
G01X-798217Y563105D01*
G01X-798217Y546607D01*
G03X-796404Y535358I35814J0D01*
G03X-798217Y524109I34002J-11249D01*
G01X-798217Y469108D01*
G03X-795963Y456603I35814J0D01*
G03X-798217Y444099I33560J-12504D01*
G01X-798217Y394393D01*
G01X-817703Y374907D01*
G03X-877021Y378453I-33197J-57407D01*
G03X-870184Y399500I-28977J21047D01*
G01X-870184Y489500D01*
G03X-905998Y525314I-35814J0D01*
G01X-985998Y525314D01*
G03X-1016000Y509057I0J-35814D01*
G03X-1046002Y525314I-30002J-19557D01*
G54D11*
G01X-6583604Y-419768D02*
G01X-6583604Y-393860D01*
G01X-6583604Y-531259D02*
G01X-6583604Y-557167D01*
G01X-6439858Y-475513D02*
G01X-6413950Y-475513D01*
G01X-6727350Y-475513D02*
G01X-6753258Y-475513D01*
G01X-5470424Y-3670461D02*
G01X-5496332Y-3670461D01*
G01X-5430678Y-3715207D02*
G01X-5430678Y-3741115D01*
G01X-5430678Y-3625715D02*
G01X-5430678Y-3599807D01*
G01X-4866118Y-3132990D02*
G01X-4866118Y-3107082D01*
G01X-4455670Y-2844167D02*
G01X-4455670Y-2818259D01*
G01X-4412724Y-2884237D02*
G01X-4386816Y-2884237D01*
G01X-4755275Y-2834763D02*
G01X-4755275Y-2808855D01*
G01X-4798221Y-2874832D02*
G01X-4824129Y-2874832D01*
G01X-4712328Y-2874832D02*
G01X-4686420Y-2874832D01*
G01X-2735052Y952500D02*
G01X-2709144Y952500D01*
G01X-2774798Y997246D02*
G01X-2774798Y1023154D01*
G01X-2774798Y907754D02*
G01X-2774798Y881846D01*
G01X-3036844Y716712D02*
G01X-3010936Y716712D01*
G01X-3156336Y716712D02*
G01X-3182244Y716712D01*
G01X-2954548Y787400D02*
G01X-2980456Y787400D01*
G01X-2914802Y832146D02*
G01X-2914802Y858054D01*
G01X-2914802Y742654D02*
G01X-2914802Y716746D01*
G01X-2373592Y-3174851D02*
G01X-2373592Y-3148943D01*
G01X-906252Y444500D02*
G01X-880344Y444500D01*
G01X-945998Y489246D02*
G01X-945998Y515154D01*
G01X-945998Y399754D02*
G01X-945998Y373846D01*
G01X-1866900Y-2881794D02*
G01X-1866900Y-2855886D01*
G01X-1909846Y-2921864D02*
G01X-1935754Y-2921864D01*
G01X-1823954Y-2921864D02*
G01X-1798046Y-2921864D01*
G01X-2260600Y-2843694D02*
G01X-2260600Y-2817786D01*
G01X-2303546Y-2883764D02*
G01X-2329454Y-2883764D01*
G01X-973868Y-2066440D02*
G01X-999776Y-2066440D01*
G01X-933798Y-2109386D02*
G01X-933798Y-2135294D01*
G01X-933798Y-2023494D02*
G01X-933798Y-1997586D01*
G01X-991706Y-1778000D02*
G01X-1017614Y-1778000D01*
G01X-951636Y-1735054D02*
G01X-951636Y-1709146D01*
G01X-880852Y-533400D02*
G01X-854944Y-533400D01*
G01X-920598Y-488654D02*
G01X-920598Y-462746D01*
G01X-920598Y-578146D02*
G01X-920598Y-604054D01*
G01X-762149Y496608D02*
G01X-788057Y496608D01*
G01X-685949Y-1703083D02*
G01X-711857Y-1703083D01*
G01X-685949Y-2183092D02*
G01X-711857Y-2183092D01*
G01X-762149Y976617D02*
G01X-788057Y976617D01*
G01X-296652Y-800100D02*
G01X-270744Y-800100D01*
G01X-336398Y-755354D02*
G01X-336398Y-729446D01*
G01X-336398Y-844846D02*
G01X-336398Y-870754D01*
G01X-245852Y-1117600D02*
G01X-219944Y-1117600D01*
G01X-285598Y-1072854D02*
G01X-285598Y-1046946D01*
G01X-285598Y-1162346D02*
G01X-285598Y-1188254D01*
G04 Copper End*

G04 Pad Start*
G54D12*
G01X-945998Y444500D03*
G01X-1086002Y444500D03*
G01X-336398Y-800100D03*
G01X-476402Y-800100D03*
G01X-285598Y-1117600D03*
G01X-425602Y-1117600D03*
G01X-920598Y-533400D03*
G01X-1060602Y-533400D03*
G01X-2774798Y952500D03*
G01X-2914802Y952500D03*
G01X-2774798Y787400D03*
G01X-2914802Y787400D03*
G01X-3816502Y1041400D03*
G01X-3676498Y1041400D03*
G01X-3663798Y850900D03*
G01X-3803802Y850900D03*
G01X-3638398Y673100D03*
G01X-3778402Y673100D03*
G01X-4349902Y546100D03*
G01X-4209898Y546100D03*
G54D13*
G01X-927964Y609600D03*
G01X-1078636Y609600D03*
G01X-915264Y901700D03*
G01X-1065936Y901700D03*
G01X-951636Y-1778000D03*
G01X-800964Y-1778000D03*
G01X-933798Y-2066440D03*
G01X-783125Y-2066440D03*
G54D14*
G01X-1866900Y-2921864D03*
G01X-1866900Y-3072536D03*
G01X-2260600Y-2883764D03*
G01X-2260600Y-3034436D03*
G54D15*
G01X-3096590Y398704D03*
G01X-3096590Y451714D03*
G01X-3096590Y504698D03*
G01X-3096590Y557708D03*
G01X-3096590Y610692D03*
G01X-3096590Y663702D03*
G01X-3096590Y716712D03*
G01X-3096590Y769696D03*
G01X-3456610Y769696D03*
G01X-3456610Y716712D03*
G01X-3456610Y663702D03*
G01X-3456610Y610692D03*
G01X-3456610Y557708D03*
G01X-3456610Y504698D03*
G01X-3456610Y451714D03*
G01X-3456610Y398704D03*
G54D16*
G01X-707403Y416598D03*
G01X-707403Y496608D03*
G54D17*
G01X-707403Y561607D03*
G01X-707403Y611619D03*
G01X-707403Y661607D03*
G01X-707403Y711594D03*
G01X-707403Y761606D03*
G01X-707403Y811594D03*
G01X-707403Y861606D03*
G01X-707403Y911619D03*
G54D16*
G01X-707403Y976617D03*
G01X-707403Y1056602D03*
G54D19*
G01X-652412Y304102D03*
G01X-652412Y1169099D03*
G54D20*
G01X-232397Y304102D03*
G01X-232397Y1169099D03*
G54D16*
G01X-631203Y-2263102D03*
G01X-631203Y-2183092D03*
G54D17*
G01X-631203Y-2118093D03*
G01X-631203Y-2068081D03*
G01X-631203Y-2018093D03*
G01X-631203Y-1968106D03*
G01X-631203Y-1918094D03*
G01X-631203Y-1868106D03*
G01X-631203Y-1818094D03*
G01X-631203Y-1768081D03*
G54D16*
G01X-631203Y-1703083D03*
G01X-631203Y-1623098D03*
G54D19*
G01X-576212Y-2375598D03*
G01X-576212Y-1510601D03*
G54D20*
G01X-156197Y-2375598D03*
G01X-156197Y-1510601D03*
G54D21*
G01X-2453602Y-3229597D03*
G01X-2373592Y-3229597D03*
G54D22*
G01X-2308593Y-3229597D03*
G01X-2258581Y-3229597D03*
G01X-2208593Y-3229597D03*
G01X-2158606Y-3229597D03*
G01X-2108594Y-3229597D03*
G01X-2058606Y-3229597D03*
G01X-2008594Y-3229597D03*
G01X-1958581Y-3229597D03*
G54D21*
G01X-1893583Y-3229597D03*
G01X-1813598Y-3229597D03*
G54D23*
G01X-2566098Y-3284588D03*
G01X-1701101Y-3284588D03*
G54D24*
G01X-2566098Y-3704603D03*
G01X-1701101Y-3704603D03*
G54D25*
G01X-6583604Y-1175487D03*
G01X-6583604Y-925500D03*
G01X-6583604Y-725500D03*
G01X-6583604Y-475513D03*
G54D26*
G01X-7462596Y-1470508D03*
G01X-7462596Y-180492D03*
G54D12*
G01X-5430678Y-3670461D03*
G01X-5290673Y-3670461D03*
G54D14*
G01X-4455670Y-2884237D03*
G01X-4455670Y-3034910D03*
G01X-4755275Y-2874832D03*
G01X-4755275Y-3025505D03*
G54D21*
G01X-4946128Y-3187736D03*
G01X-4866118Y-3187736D03*
G54D22*
G01X-4801119Y-3187736D03*
G01X-4751107Y-3187736D03*
G01X-4701119Y-3187736D03*
G01X-4651132Y-3187736D03*
G01X-4601120Y-3187736D03*
G01X-4551132Y-3187736D03*
G01X-4501120Y-3187736D03*
G01X-4451107Y-3187736D03*
G54D21*
G01X-4386109Y-3187736D03*
G01X-4306124Y-3187736D03*
G54D23*
G01X-5058624Y-3242727D03*
G01X-4193627Y-3242727D03*
G54D24*
G01X-5058624Y-3662741D03*
G01X-4193627Y-3662741D03*
G04 Pad End*

G04 Via Start*
G54D27*
G01X-2197100Y-3390900D03*
G01X-2044700Y-2946400D03*
G01X-3048000Y914400D03*
G01X-2622550Y857250D03*
G01X-3200400Y901700D03*
G01X-3911600Y622300D03*
G01X-850900Y317500D03*
G01X-1086002Y292100D03*
G01X-1308100Y520700D03*
G01X-1041400Y1041400D03*
G01X-889000Y1143000D03*
G01X-1231900Y-546100D03*
G01X-635000Y-584200D03*
G01X-596900Y-914400D03*
G01X-622300Y-1130300D03*
G01X-863600Y1320800D03*
G01X-698500Y88900D03*
G01X-4038600Y584200D03*
G01X-3263900Y673100D03*
G01X-7518400Y2070100D03*
G04 Via End*

G04 Track Start*
G54D11*
G01X-707403Y911619D02*
G01X-905345Y911619D01*
G01X-915264Y901700D01*
G01X-707403Y611619D02*
G01X-925944Y611619D01*
G01X-927964Y609600D01*
G01X-707403Y496608D02*
G01X-732012Y471999D01*
G01X-773959Y471999D01*
G01X-801458Y444500D01*
G01X-945998Y444500D01*
G01X-3456610Y716712D02*
G01X-3469219Y704103D01*
G01X-3528166Y704103D01*
G01X-3559169Y673100D01*
G01X-3638398Y673100D01*
G01X-3557194Y769696D02*
G01X-3456610Y769696D01*
G01X-631203Y-2068081D02*
G01X-781484Y-2068081D01*
G01X-783125Y-2066440D01*
G01X-631203Y-1768081D02*
G01X-791045Y-1768081D01*
G01X-800964Y-1778000D01*
G01X-3096590Y663702D02*
G01X-3011190Y663702D01*
G01X-3096590Y610692D02*
G01X-3011190Y610692D01*
G01X-724236Y711594D02*
G01X-707403Y711594D01*
G01X-3011190Y663702D02*
G01X-3005005Y657517D01*
G01X-3011190Y610692D02*
G01X-3005005Y616877D01*
G01X-773959Y704507D02*
G01X-731323Y704507D01*
G01X-724236Y711594D01*
G01X-714490Y654519D02*
G01X-707403Y661607D01*
G01X-3005005Y657517D02*
G01X-1211174Y657517D01*
G01X-1147351Y721340D01*
G01X-790793Y721340D01*
G01X-773959Y704507D01*
G01X-3005005Y616877D02*
G01X-1194340Y616877D01*
G01X-1130517Y680700D01*
G01X-876083Y680700D01*
G01X-849902Y654519D01*
G01X-714490Y654519D01*
G01X-707403Y661607D02*
G01X-700316Y668694D01*
G01X-640846Y668694D01*
G01X-624503Y685037D01*
G01X-624503Y738150D01*
G01X-640846Y754494D01*
G01X-700290Y754494D01*
G01X-707403Y761606D01*
G01X-707403Y711594D02*
G01X-709663Y713854D01*
G01X-717124Y713854D01*
G01X-721976Y718706D01*
G01X-773959Y718706D01*
G01X-790303Y735050D01*
G01X-790303Y788163D01*
G01X-773959Y804506D01*
G01X-714490Y804506D01*
G01X-707403Y811594D01*
G01X-3096590Y557708D02*
G01X-3011190Y557708D01*
G01X-2962772Y551523D02*
G01X-1231900Y-1179349D01*
G01X-1231900Y-1854200D01*
G01X-3096590Y504698D02*
G01X-3011190Y504698D01*
G01X-2979605Y510883D02*
G01X-1272540Y-1196183D01*
G01X-3011190Y557708D02*
G01X-3005005Y551523D01*
G01X-3011190Y504698D02*
G01X-3005005Y510883D01*
G01X-2979605Y510883D01*
G01X-3005005Y551523D02*
G01X-2962772Y551523D01*
G01X-1231900Y-1854200D02*
G01X-1213320Y-1872780D01*
G01X-1272540Y-1871034D02*
G01X-1230153Y-1913420D01*
G01X-711603Y-1868106D02*
G01X-631203Y-1868106D01*
G01X-711603Y-1918094D02*
G01X-631203Y-1918094D01*
G01X-716276Y-1872780D02*
G01X-711603Y-1868106D01*
G01X-716276Y-1913420D02*
G01X-711603Y-1918094D01*
G01X-1213320Y-1872780D02*
G01X-716276Y-1872780D01*
G01X-1230153Y-1913420D02*
G01X-716276Y-1913420D01*
G01X-1272540Y-1196183D02*
G01X-1272540Y-1871034D01*
G01X-631203Y-1968106D02*
G01X-624090Y-1960994D01*
G01X-564646Y-1960994D01*
G01X-548303Y-1944650D01*
G01X-548303Y-1891537D01*
G01X-564646Y-1875194D01*
G01X-624116Y-1875194D01*
G01X-631203Y-1868106D01*
G01X-631203Y-2018093D02*
G01X-638290Y-2011006D01*
G01X-697759Y-2011006D01*
G01X-714103Y-1994663D01*
G01X-714103Y-1941550D01*
G01X-711603Y-1939050D01*
G01X-711603Y-1918094D01*
G01X-2265629Y-3208071D02*
G01X-2265629Y-3065729D01*
G01X-1958581Y-3229597D02*
G01X-1958581Y-3146819D01*
G01X-3096590Y451714D02*
G01X-3011190Y451714D01*
G01X-3096590Y398704D02*
G01X-3011190Y398704D01*
G01X-3011190Y451714D02*
G01X-3005005Y445529D01*
G01X-3011190Y398704D02*
G01X-3005005Y404889D01*
G01X-3005005Y445529D02*
G01X-2964597Y445529D01*
G01X-2921005Y401936D01*
G01X-2921005Y-1066795D01*
G01X-3005005Y404889D02*
G01X-2981431Y404889D01*
G01X-2961645Y385103D01*
G01X-2961645Y-1083629D01*
G01X-2189500Y-3086317D02*
G01X-2201506Y-3098323D01*
G01X-2148860Y-3103151D02*
G01X-2151494Y-3105785D01*
G01X-2921005Y-1066795D02*
G01X-2148860Y-1838940D01*
G01X-2148860Y-3103151D01*
G01X-2961645Y-1083629D02*
G01X-2189500Y-1855774D01*
G01X-2189500Y-3086317D01*
G01X-2058606Y-3229597D02*
G01X-2065694Y-3236684D01*
G01X-2065694Y-3296154D01*
G01X-2082037Y-3312497D01*
G01X-2135150Y-3312497D01*
G01X-2151494Y-3296154D01*
G01X-2151494Y-3236710D02*
G01X-2158606Y-3229597D01*
G01X-2151494Y-3296154D02*
G01X-2151494Y-3236710D01*
G01X-2151494Y-3105785D02*
G01X-2151494Y-3236710D01*
G01X-1958581Y-3146819D02*
G01X-1884299Y-3072536D01*
G01X-1866900Y-3072536D01*
G01X-2208593Y-3229597D02*
G01X-2201506Y-3236684D01*
G01X-2201506Y-3296154D02*
G01X-2197100Y-3300560D01*
G01X-2197100Y-3390900D01*
G01X-2044700Y-2946400D02*
G01X-2044700Y-3106234D01*
G01X-2106334Y-3227337D02*
G01X-2108594Y-3229597D01*
G01X-2044700Y-3106234D02*
G01X-2106334Y-3167868D01*
G01X-2106334Y-3227337D01*
G01X-2201506Y-3296154D02*
G01X-2201506Y-3236684D01*
G01X-2201506Y-3098323D02*
G01X-2201506Y-3236684D01*
G01X-3456610Y504698D02*
G01X-3542010Y504698D01*
G01X-3456610Y557708D02*
G01X-3542010Y557708D01*
G01X-3542010Y504698D02*
G01X-3548195Y510883D01*
G01X-3542010Y557708D02*
G01X-3548195Y551523D01*
G01X-3548195Y510883D02*
G01X-3835400Y510883D01*
G01X-3853361Y492922D01*
G01X-3853361Y-691061D01*
G01X-3852234Y551523D02*
G01X-3894001Y509756D01*
G01X-3894001Y-674227D01*
G01X-6388804Y-900100D02*
G01X-6558204Y-900100D01*
G01X-6388804Y-700100D02*
G01X-6558204Y-700100D01*
G01X-6309124Y-820420D02*
G01X-6388804Y-900100D01*
G01X-6309124Y-779780D02*
G01X-6388804Y-700100D01*
G01X-3982720Y-820420D02*
G01X-6309124Y-820420D01*
G01X-3999554Y-779780D02*
G01X-6309124Y-779780D01*
G01X-3548195Y551523D02*
G01X-3852234Y551523D01*
G01X-3853361Y-691061D02*
G01X-3982720Y-820420D01*
G01X-3894001Y-674227D02*
G01X-3999554Y-779780D01*
G01X-3676498Y1041400D02*
G01X-3673997Y1038900D01*
G01X-3673997Y850900D01*
G01X-3816502Y1041400D02*
G01X-3816502Y863600D01*
G01X-3803802Y850900D01*
G01X-3788254Y850900D01*
G01X-3715354Y778000D01*
G01X-3565498Y778000D01*
G01X-3557194Y769696D01*
G01X-2914802Y952500D02*
G01X-2952902Y914400D01*
G01X-3048000Y914400D01*
G01X-2774798Y787400D02*
G01X-2692400Y787400D01*
G01X-2622550Y857250D01*
G01X-3096590Y769696D02*
G01X-3200400Y873506D01*
G01X-3200400Y901700D01*
G01X-3899992Y610692D02*
G01X-3911600Y622300D01*
G01X-3456610Y610692D02*
G01X-3576349Y610692D01*
G01X-3586841Y600200D01*
G01X-3829959Y600200D02*
G01X-3840451Y610692D01*
G01X-3899992Y610692D01*
G01X-3586841Y600200D02*
G01X-3829959Y600200D01*
G01X-6583604Y-1175487D02*
G01X-6583604Y-1452804D01*
G01X-6654800Y-1524000D01*
G01X-7409104Y-1524000D01*
G01X-7462596Y-1470508D01*
G01X-2453602Y-3229597D02*
G01X-2511107Y-3229597D01*
G01X-2566098Y-3284588D01*
G01X-1813598Y-3229597D02*
G01X-1756092Y-3229597D01*
G01X-1701101Y-3284588D01*
G01X-631203Y-2263102D02*
G01X-576212Y-2318093D01*
G01X-576212Y-2375598D01*
G01X-631203Y-1623098D02*
G01X-576212Y-1568107D01*
G01X-576212Y-1510601D01*
G01X-707403Y416598D02*
G01X-806501Y317500D01*
G01X-850900Y317500D01*
G01X-1086002Y444500D02*
G01X-1086002Y292100D01*
G01X-1078636Y609600D02*
G01X-1167536Y520700D01*
G01X-1308100Y520700D01*
G01X-1065936Y901700D02*
G01X-1041400Y926236D01*
G01X-1041400Y1041400D01*
G01X-707403Y1056602D02*
G01X-793801Y1143000D01*
G01X-889000Y1143000D01*
G01X-1060602Y-533400D02*
G01X-1073302Y-546100D01*
G01X-1231900Y-546100D01*
G01X-412902Y-419100D02*
G01X-578002Y-584200D01*
G01X-635000Y-584200D01*
G01X-476402Y-800100D02*
G01X-590702Y-914400D01*
G01X-596900Y-914400D01*
G01X-425602Y-1117600D02*
G01X-438302Y-1130300D01*
G01X-622300Y-1130300D01*
G01X-1893583Y-3229597D02*
G01X-1868999Y-3205013D01*
G01X-1868999Y-3163041D01*
G01X-1846718Y-3140760D01*
G01X-1812143Y-3140760D01*
G01X-1795800Y-3124417D01*
G01X-1795800Y-3020656D01*
G01X-1866900Y-2949556D01*
G01X-1866900Y-2921864D01*
G01X-2373592Y-3229597D02*
G01X-2373592Y-2996755D01*
G01X-2260600Y-2883764D01*
G01X-652412Y1169099D02*
G01X-622300Y1199210D01*
G01X-622300Y1320800D01*
G01X-604339Y1338761D01*
G01X-254000Y1338761D01*
G01X-236039Y1320800D01*
G01X-236039Y1172741D01*
G01X-232397Y1169099D01*
G01X-232397Y304102D02*
G01X-232397Y1169099D01*
G01X-652412Y1169099D02*
G01X-804113Y1320800D01*
G01X-863600Y1320800D01*
G01X-698500Y88900D02*
G01X-698500Y258013D01*
G01X-652412Y304102D01*
G01X-3778402Y673100D02*
G01X-3841902Y736600D01*
G01X-4331942Y736600D01*
G01X-4349902Y718639D01*
G01X-4349902Y546100D01*
G01X-4209898Y546100D02*
G01X-4076700Y546100D01*
G01X-4038600Y584200D01*
G01X-3263900Y673100D02*
G01X-3354051Y673100D01*
G01X-3385053Y704103D01*
G01X-3444001Y704103D01*
G01X-3456610Y716712D01*
G01X-3456610Y398704D02*
G01X-3542010Y398704D01*
G01X-3456610Y451714D02*
G01X-3542010Y451714D01*
G01X-3542010Y398704D02*
G01X-3548195Y404889D01*
G01X-3542010Y451714D02*
G01X-3548195Y445529D01*
G01X-3548195Y404889D02*
G01X-3715863Y404889D01*
G01X-3733823Y386928D01*
G01X-3732696Y445529D02*
G01X-3774463Y403762D01*
G01X-3774463Y-766214D01*
G01X-3733823Y-783047D02*
G01X-3964170Y-1013395D01*
G01X-3774463Y-766214D02*
G01X-3981004Y-972755D01*
G01X-4533172Y-1013395D02*
G01X-4551132Y-1031355D01*
G01X-4551132Y-3187736D01*
G01X-4583159Y-972755D02*
G01X-4601120Y-990715D01*
G01X-4601120Y-3187736D01*
G01X-3548195Y445529D02*
G01X-3732696Y445529D01*
G01X-3733823Y386928D02*
G01X-3733823Y-783047D01*
G01X-3981004Y-972755D02*
G01X-4583159Y-972755D01*
G01X-3964170Y-1013395D02*
G01X-4533172Y-1013395D01*
G01X-4551132Y-3187736D02*
G01X-4558219Y-3194823D01*
G01X-4558219Y-3254292D01*
G01X-4574563Y-3270636D01*
G01X-4627676Y-3270636D01*
G01X-4644020Y-3254292D01*
G01X-4644020Y-3240667D01*
G01X-4649189Y-3235497D01*
G01X-4601120Y-3187736D02*
G01X-4608232Y-3180624D01*
G01X-4608232Y-3121180D01*
G01X-4624576Y-3104836D01*
G01X-4677689Y-3104836D01*
G01X-4694032Y-3121180D01*
G01X-4694032Y-3148932D01*
G01X-4707057Y-3161957D01*
G01X-5277973Y-3664984D02*
G01X-5115220Y-3664984D01*
G01X-5101657Y-3678546D01*
G01X-4955180Y-3209276D02*
G01X-5006718Y-3260814D01*
G01X-5017568Y-3260814D01*
G01X-4306881Y-3222838D02*
G01X-4290606Y-3222838D01*
G01X-4206517Y-3306927D01*
G01X-4478935Y-3056342D02*
G01X-4448193Y-3087084D01*
G01X-4448193Y-3175694D01*
G01X-4755615Y-3027408D02*
G01X-4751998Y-3031024D01*
G01X-4751998Y-3166652D01*
G01X-4345116Y-2815829D02*
G01X-4339691Y-2815829D01*
G01X-4415642Y-2886355D02*
G01X-4345116Y-2815829D01*
G01X-4339691Y-2815829D02*
G01X-4343307Y-2812212D01*
G01X-4343307Y-2790429D01*
G01X-4381283Y-3181119D02*
G01X-4361525Y-3161360D01*
G01X-4361525Y-3121180D01*
G01X-4327032Y-3086687D01*
G01X-4327032Y-3041875D01*
G01X-494999Y-1521309D02*
G01X-237307Y-1521309D01*
G01X-218320Y-1540296D01*
G01X-483810Y-2388645D02*
G01X-221371Y-2388645D01*
G01X-203061Y-2406955D01*
G04 Track End*

M02*

