G04 Layer: BottomLayer*
G04 EasyEDA Pro v2.2.47.7, 2026-05-23 16:47:23*
G04 Gerber Generator version 0.3*
G04 Scale: 100 percent, Rotated: No, Reflected: No*
G04 Dimensions in millimeters*
G04 Leading zeros omitted, absolute positions, 4 integers and 5 decimals*
G04 Generated by one-click*
G04 Object Configs: Pad,Via,Track,Text,Image,Dimension,BoardOutline,BoardCutout,CopperFilled,SolidRegion,FPCStiffener,Line,PlaneZone,ComponentProperty,ComponentSilkscreen,TearDrop*
G04 Layer Configs: 1,2,3,4,5,6,7,8,9,10,11,13,14,56*
G04 Copper Areas: 106*
%FSLAX45Y45*%
%MOMM*%
%ADD10C,0.2032*%
%ADD11C,0.254*%
%ADD12O,2.0X1.1*%
%ADD13O,1.8X1.2*%
%ADD14O,1.1X2.0*%
%ADD15O,1.2X1.8*%
%ADD16O,3.09999X1.2*%
%ADD17C,0.6123*%
%ADD18C,0.61*%
G75*


G04 Copper Start*
G36*
G01X-485707Y-1713530D02*
G01X-485707Y-2172644D01*
G01X-499155Y-2165847D01*
G01X-513737Y-2162049D01*
G01X-528792Y-2161423D01*
G01X-543639Y-2163996D01*
G01X-557605Y-2169651D01*
G01X-570059Y-2178134D01*
G01X-580436Y-2189060D01*
G01X-588266Y-2201934D01*
G01X-593196Y-2216173D01*
G01X-595001Y-2231132D01*
G01X-593601Y-2246135D01*
G01X-589057Y-2260502D01*
G01X-581577Y-2273583D01*
G01X-571499Y-2284785D01*
G01X-621212Y-2284785D01*
G01X-640093Y-2286769D01*
G01X-658149Y-2292636D01*
G01X-674591Y-2302129D01*
G01X-688699Y-2314832D01*
G01X-699859Y-2330192D01*
G01X-707581Y-2347535D01*
G01X-711528Y-2366106D01*
G01X-711528Y-2385091D01*
G01X-707581Y-2403662D01*
G01X-699859Y-2421005D01*
G01X-688699Y-2436365D01*
G01X-674591Y-2449068D01*
G01X-658149Y-2458561D01*
G01X-640093Y-2464428D01*
G01X-621212Y-2466412D01*
G01X-531212Y-2466412D01*
G01X-515405Y-2465026D01*
G01X-500081Y-2460910D01*
G01X-485707Y-2454189D01*
G01X-485707Y-2898858D01*
G01X-1513435Y-3926586D01*
G01X-5994400Y-3926586D01*
G01X-6356634Y-3632742D01*
G01X-5154438Y-3632742D01*
G01X-5154438Y-3692741D01*
G01X-5152597Y-3711434D01*
G01X-5147145Y-3729408D01*
G01X-5138291Y-3745973D01*
G01X-5126375Y-3760492D01*
G01X-5111856Y-3772408D01*
G01X-5095291Y-3781262D01*
G01X-5077317Y-3786714D01*
G01X-5058624Y-3788555D01*
G01X-5039932Y-3786714D01*
G01X-5021958Y-3781262D01*
G01X-5005393Y-3772408D01*
G01X-4990874Y-3760492D01*
G01X-4978958Y-3745973D01*
G01X-4970104Y-3729408D01*
G01X-4964652Y-3711434D01*
G01X-4962810Y-3692741D01*
G01X-4962810Y-3632742D01*
G01X-4289441Y-3632742D01*
G01X-4289441Y-3692741D01*
G01X-4287600Y-3711434D01*
G01X-4282148Y-3729408D01*
G01X-4273294Y-3745973D01*
G01X-4261378Y-3760492D01*
G01X-4246859Y-3772408D01*
G01X-4230294Y-3781262D01*
G01X-4212320Y-3786714D01*
G01X-4193627Y-3788555D01*
G01X-4174935Y-3786714D01*
G01X-4156961Y-3781262D01*
G01X-4140396Y-3772408D01*
G01X-4125877Y-3760492D01*
G01X-4113961Y-3745973D01*
G01X-4105107Y-3729408D01*
G01X-4099655Y-3711434D01*
G01X-4097813Y-3692741D01*
G01X-4097813Y-3674603D01*
G01X-2661912Y-3674603D01*
G01X-2661912Y-3734603D01*
G01X-2660071Y-3753295D01*
G01X-2654619Y-3771269D01*
G01X-2645765Y-3787834D01*
G01X-2633849Y-3802353D01*
G01X-2619330Y-3814269D01*
G01X-2602765Y-3823123D01*
G01X-2584791Y-3828575D01*
G01X-2566098Y-3830417D01*
G01X-2547406Y-3828575D01*
G01X-2529432Y-3823123D01*
G01X-2512867Y-3814269D01*
G01X-2498348Y-3802353D01*
G01X-2486432Y-3787834D01*
G01X-2477578Y-3771269D01*
G01X-2472126Y-3753295D01*
G01X-2470285Y-3734603D01*
G01X-2470285Y-3674603D01*
G01X-1796915Y-3674603D01*
G01X-1796915Y-3734603D01*
G01X-1795074Y-3753295D01*
G01X-1789622Y-3771269D01*
G01X-1780768Y-3787834D01*
G01X-1768852Y-3802353D01*
G01X-1754333Y-3814269D01*
G01X-1737768Y-3823123D01*
G01X-1719794Y-3828575D01*
G01X-1701101Y-3830417D01*
G01X-1682409Y-3828575D01*
G01X-1664435Y-3823123D01*
G01X-1647870Y-3814269D01*
G01X-1633351Y-3802353D01*
G01X-1621435Y-3787834D01*
G01X-1612581Y-3771269D01*
G01X-1607129Y-3753295D01*
G01X-1605288Y-3734603D01*
G01X-1605288Y-3674603D01*
G01X-1607129Y-3655910D01*
G01X-1612581Y-3637936D01*
G01X-1621435Y-3621371D01*
G01X-1633351Y-3606852D01*
G01X-1647870Y-3594936D01*
G01X-1664435Y-3586082D01*
G01X-1682409Y-3580630D01*
G01X-1701101Y-3578789D01*
G01X-1719794Y-3580630D01*
G01X-1737768Y-3586082D01*
G01X-1754333Y-3594936D01*
G01X-1768852Y-3606852D01*
G01X-1780768Y-3621371D01*
G01X-1789622Y-3637936D01*
G01X-1795074Y-3655910D01*
G01X-1796915Y-3674603D01*
G01X-1796915Y-3674603D01*
G01X-2470285Y-3674603D01*
G01X-2472126Y-3655910D01*
G01X-2477578Y-3637936D01*
G01X-2486432Y-3621371D01*
G01X-2498348Y-3606852D01*
G01X-2512867Y-3594936D01*
G01X-2529432Y-3586082D01*
G01X-2547406Y-3580630D01*
G01X-2566098Y-3578789D01*
G01X-2584791Y-3580630D01*
G01X-2602765Y-3586082D01*
G01X-2619330Y-3594936D01*
G01X-2633849Y-3606852D01*
G01X-2645765Y-3621371D01*
G01X-2654619Y-3637936D01*
G01X-2660071Y-3655910D01*
G01X-2661912Y-3674603D01*
G01X-2661912Y-3674603D01*
G01X-4097813Y-3674603D01*
G01X-4097813Y-3632742D01*
G01X-4099655Y-3614049D01*
G01X-4105107Y-3596075D01*
G01X-4113961Y-3579510D01*
G01X-4125877Y-3564991D01*
G01X-4140396Y-3553075D01*
G01X-4156961Y-3544221D01*
G01X-4174935Y-3538769D01*
G01X-4193627Y-3536928D01*
G01X-4212320Y-3538769D01*
G01X-4230294Y-3544221D01*
G01X-4246859Y-3553075D01*
G01X-4261378Y-3564991D01*
G01X-4273294Y-3579510D01*
G01X-4282148Y-3596075D01*
G01X-4287600Y-3614049D01*
G01X-4289441Y-3632742D01*
G01X-4289441Y-3632742D01*
G01X-4962810Y-3632742D01*
G01X-4964652Y-3614049D01*
G01X-4970104Y-3596075D01*
G01X-4978958Y-3579510D01*
G01X-4990874Y-3564991D01*
G01X-5005393Y-3553075D01*
G01X-5021958Y-3544221D01*
G01X-5039932Y-3538769D01*
G01X-5058624Y-3536928D01*
G01X-5077317Y-3538769D01*
G01X-5095291Y-3544221D01*
G01X-5111856Y-3553075D01*
G01X-5126375Y-3564991D01*
G01X-5138291Y-3579510D01*
G01X-5147145Y-3596075D01*
G01X-5152597Y-3614049D01*
G01X-5154438Y-3632742D01*
G01X-5154438Y-3632742D01*
G01X-6356634Y-3632742D01*
G01X-6892893Y-3197727D01*
G01X-5149438Y-3197727D01*
G01X-5149438Y-3287727D01*
G01X-5147519Y-3306298D01*
G01X-5141843Y-3324084D01*
G01X-5132650Y-3340333D01*
G01X-5120328Y-3354359D01*
G01X-5105399Y-3365569D01*
G01X-5088492Y-3373489D01*
G01X-5070323Y-3377784D01*
G01X-5051660Y-3378273D01*
G01X-5033291Y-3374936D01*
G01X-5015993Y-3367913D01*
G01X-5000497Y-3357500D01*
G01X-4987457Y-3344139D01*
G01X-4977425Y-3328394D01*
G01X-4968121Y-3341705D01*
G01X-4956028Y-3352546D01*
G01X-4941784Y-3360347D01*
G01X-4926138Y-3364698D01*
G01X-4909911Y-3365370D01*
G01X-4893958Y-3362327D01*
G01X-4879118Y-3355730D01*
G01X-4866171Y-3345926D01*
G01X-4855798Y-3333430D01*
G01X-4848545Y-3318899D01*
G01X-4844793Y-3303098D01*
G01X-4844740Y-3286866D01*
G01X-4407487Y-3286866D01*
G01X-4407432Y-3303103D01*
G01X-4407432Y-3303103D01*
G01X-4403680Y-3318901D01*
G01X-4396428Y-3333429D01*
G01X-4386058Y-3345923D01*
G01X-4373114Y-3355727D01*
G01X-4358277Y-3362325D01*
G01X-4342328Y-3365369D01*
G01X-4326104Y-3364701D01*
G01X-4310459Y-3360354D01*
G01X-4296216Y-3352559D01*
G01X-4284122Y-3341724D01*
G01X-4274815Y-3328419D01*
G01X-4264779Y-3344159D01*
G01X-4251737Y-3357515D01*
G01X-4236240Y-3367923D01*
G01X-4218942Y-3374941D01*
G01X-4200575Y-3378275D01*
G01X-4181914Y-3377782D01*
G01X-4163748Y-3373485D01*
G01X-4146844Y-3365563D01*
G01X-4131917Y-3354353D01*
G01X-4119598Y-3340328D01*
G01X-4110407Y-3324080D01*
G01X-4104732Y-3306296D01*
G01X-4102813Y-3287727D01*
G01X-4102813Y-3239588D01*
G01X-2656912Y-3239588D01*
G01X-2656912Y-3329588D01*
G01X-2654993Y-3348159D01*
G01X-2649317Y-3365945D01*
G01X-2640124Y-3382194D01*
G01X-2627802Y-3396220D01*
G01X-2612873Y-3407430D01*
G01X-2595966Y-3415350D01*
G01X-2577798Y-3419645D01*
G01X-2559134Y-3420135D01*
G01X-2540766Y-3416797D01*
G01X-2523467Y-3409774D01*
G01X-2507971Y-3399362D01*
G01X-2494931Y-3386001D01*
G01X-2484899Y-3370255D01*
G01X-2475595Y-3383566D01*
G01X-2463503Y-3394407D01*
G01X-2449259Y-3402209D01*
G01X-2433612Y-3406559D01*
G01X-2417385Y-3407231D01*
G01X-2401432Y-3404189D01*
G01X-2386592Y-3397592D01*
G01X-2385549Y-3396801D01*
G01X-2263151Y-3396801D01*
G01X-2260022Y-3411836D01*
G01X-2253520Y-3425748D01*
G01X-2243991Y-3437791D01*
G01X-2231948Y-3447320D01*
G01X-2218036Y-3453822D01*
G01X-2203001Y-3456951D01*
G01X-2187650Y-3456537D01*
G01X-2172806Y-3452604D01*
G01X-2159264Y-3445361D01*
G01X-2147752Y-3435198D01*
G01X-2138886Y-3422659D01*
G01X-2133141Y-3408418D01*
G01X-2130827Y-3393236D01*
G01X-2066318Y-3328727D01*
G01X-1914961Y-3328727D01*
G01X-1914906Y-3344964D01*
G01X-1914906Y-3344964D01*
G01X-1911154Y-3360762D01*
G01X-1903903Y-3375290D01*
G01X-1893532Y-3387785D01*
G01X-1880588Y-3397588D01*
G01X-1865752Y-3404186D01*
G01X-1849802Y-3407230D01*
G01X-1833578Y-3406562D01*
G01X-1817933Y-3402216D01*
G01X-1803690Y-3394420D01*
G01X-1791596Y-3383585D01*
G01X-1782289Y-3370280D01*
G01X-1772253Y-3386020D01*
G01X-1759211Y-3399376D01*
G01X-1743714Y-3409784D01*
G01X-1726416Y-3416802D01*
G01X-1708049Y-3420136D01*
G01X-1689388Y-3419643D01*
G01X-1671222Y-3415346D01*
G01X-1654318Y-3407425D01*
G01X-1639392Y-3396214D01*
G01X-1627072Y-3382189D01*
G01X-1617881Y-3365941D01*
G01X-1612206Y-3348157D01*
G01X-1610288Y-3329588D01*
G01X-1610288Y-3239588D01*
G01X-1612272Y-3220707D01*
G01X-1618139Y-3202651D01*
G01X-1627632Y-3186209D01*
G01X-1640335Y-3172101D01*
G01X-1655695Y-3160941D01*
G01X-1673038Y-3153219D01*
G01X-1691609Y-3149272D01*
G01X-1710594Y-3149272D01*
G01X-1729165Y-3153219D01*
G01X-1746508Y-3160941D01*
G01X-1761868Y-3172101D01*
G01X-1774571Y-3186209D01*
G01X-1784064Y-3202651D01*
G01X-1789931Y-3220707D01*
G01X-1791915Y-3239588D01*
G01X-1791915Y-3289273D01*
G01X-1804082Y-3278520D01*
G01X-1818378Y-3270820D01*
G01X-1834052Y-3266580D01*
G01X-1850280Y-3266022D01*
G01X-1866208Y-3269174D01*
G01X-1881000Y-3275872D01*
G01X-1893877Y-3285763D01*
G01X-1904163Y-3298327D01*
G01X-1911316Y-3312904D01*
G01X-1914961Y-3328727D01*
G01X-2066318Y-3328727D01*
G01X-2010395Y-3272805D01*
G01X-2002686Y-3262757D01*
G01X-1997839Y-3251056D01*
G01X-1996186Y-3238500D01*
G01X-1996186Y-2991610D01*
G01X-1987088Y-2979239D01*
G01X-1981079Y-2965106D01*
G01X-1978482Y-2949971D01*
G01X-1979436Y-2934644D01*
G01X-1983890Y-2919947D01*
G01X-1991606Y-2906669D01*
G01X-2002168Y-2895522D01*
G01X-2015011Y-2887103D01*
G01X-2029447Y-2881864D01*
G01X-2044700Y-2880086D01*
G01X-2059953Y-2881864D01*
G01X-2074389Y-2887103D01*
G01X-2087232Y-2895522D01*
G01X-2097794Y-2906669D01*
G01X-2105510Y-2919947D01*
G01X-2109964Y-2934644D01*
G01X-2110918Y-2949971D01*
G01X-2108321Y-2965106D01*
G01X-2102312Y-2979239D01*
G01X-2093214Y-2991610D01*
G01X-2093214Y-3218405D01*
G01X-2093214Y-3218405D01*
G01X-2199436Y-3324627D01*
G01X-2214618Y-3326941D01*
G01X-2228859Y-3332686D01*
G01X-2241398Y-3341552D01*
G01X-2251561Y-3353064D01*
G01X-2258804Y-3366606D01*
G01X-2262737Y-3381450D01*
G01X-2263151Y-3396801D01*
G01X-2385549Y-3396801D01*
G01X-2373645Y-3387787D01*
G01X-2363273Y-3375291D01*
G01X-2356019Y-3360760D01*
G01X-2352267Y-3344959D01*
G01X-2352214Y-3328719D01*
G01X-2355862Y-3312893D01*
G01X-2363019Y-3298315D01*
G01X-2373310Y-3285751D01*
G01X-2386192Y-3275862D01*
G01X-2400988Y-3269167D01*
G01X-2416921Y-3266019D01*
G01X-2433151Y-3266584D01*
G01X-2448826Y-3270832D01*
G01X-2463121Y-3278540D01*
G01X-2475285Y-3289301D01*
G01X-2475285Y-3239588D01*
G01X-2475285Y-3239588D01*
G01X-2477269Y-3220707D01*
G01X-2483136Y-3202651D01*
G01X-2492629Y-3186209D01*
G01X-2505332Y-3172101D01*
G01X-2520692Y-3160941D01*
G01X-2538035Y-3153219D01*
G01X-2556606Y-3149272D01*
G01X-2575591Y-3149272D01*
G01X-2594162Y-3153219D01*
G01X-2611505Y-3160941D01*
G01X-2626865Y-3172101D01*
G01X-2639568Y-3186209D01*
G01X-2649061Y-3202651D01*
G01X-2654928Y-3220707D01*
G01X-2656912Y-3239588D01*
G01X-4102813Y-3239588D01*
G01X-4102813Y-3197727D01*
G01X-4104798Y-3178846D01*
G01X-4110665Y-3160790D01*
G01X-4120157Y-3144348D01*
G01X-4132861Y-3130239D01*
G01X-4148220Y-3119080D01*
G01X-4165564Y-3111358D01*
G01X-4184135Y-3107411D01*
G01X-4203120Y-3107411D01*
G01X-4221690Y-3111358D01*
G01X-4239034Y-3119080D01*
G01X-4254394Y-3130239D01*
G01X-4267097Y-3144348D01*
G01X-4276590Y-3160790D01*
G01X-4282457Y-3178846D01*
G01X-4284441Y-3197727D01*
G01X-4284441Y-3247411D01*
G01X-4296608Y-3236658D01*
G01X-4310904Y-3228959D01*
G01X-4326578Y-3224719D01*
G01X-4342806Y-3224160D01*
G01X-4358734Y-3227313D01*
G01X-4373526Y-3234011D01*
G01X-4386403Y-3243902D01*
G01X-4396689Y-3256466D01*
G01X-4403842Y-3271043D01*
G01X-4407487Y-3286866D01*
G01X-4844740Y-3286866D01*
G01X-4844740Y-3286858D01*
G01X-4848388Y-3271032D01*
G01X-4855545Y-3256454D01*
G01X-4865836Y-3243890D01*
G01X-4878718Y-3234000D01*
G01X-4893514Y-3227306D01*
G01X-4909447Y-3224158D01*
G01X-4925677Y-3224723D01*
G01X-4941352Y-3228971D01*
G01X-4955647Y-3236678D01*
G01X-4967810Y-3247440D01*
G01X-4967810Y-3197727D01*
G01X-4967810Y-3197727D01*
G01X-4969795Y-3178846D01*
G01X-4975662Y-3160790D01*
G01X-4985154Y-3144348D01*
G01X-4997858Y-3130239D01*
G01X-5013217Y-3119080D01*
G01X-5030561Y-3111358D01*
G01X-5049132Y-3107411D01*
G01X-5068117Y-3107411D01*
G01X-5086687Y-3111358D01*
G01X-5104031Y-3119080D01*
G01X-5119391Y-3130239D01*
G01X-5132094Y-3144348D01*
G01X-5141587Y-3160790D01*
G01X-5147454Y-3178846D01*
G01X-5149438Y-3197727D01*
G01X-6892893Y-3197727D01*
G01X-7685619Y-2554667D01*
G01X-7684042Y-2393604D01*
G01X-5873361Y-2393604D01*
G01X-5871509Y-2415959D01*
G01X-5866002Y-2437703D01*
G01X-5856992Y-2458245D01*
G01X-5844723Y-2477023D01*
G01X-5829531Y-2493526D01*
G01X-5811830Y-2507303D01*
G01X-5792103Y-2517979D01*
G01X-5770887Y-2525262D01*
G01X-5748762Y-2528954D01*
G01X-5726332Y-2528954D01*
G01X-5704207Y-2525262D01*
G01X-5682991Y-2517979D01*
G01X-5663264Y-2507303D01*
G01X-5645563Y-2493526D01*
G01X-5630371Y-2477023D01*
G01X-5618102Y-2458245D01*
G01X-5609092Y-2437703D01*
G01X-5603585Y-2415959D01*
G01X-5601733Y-2393604D01*
G01X-5602871Y-2379872D01*
G01X-1849806Y-2379872D01*
G01X-1847954Y-2402226D01*
G01X-1842448Y-2423971D01*
G01X-1833437Y-2444512D01*
G01X-1821169Y-2463291D01*
G01X-1805977Y-2479794D01*
G01X-1788276Y-2493571D01*
G01X-1768548Y-2504247D01*
G01X-1747333Y-2511530D01*
G01X-1725208Y-2515222D01*
G01X-1702777Y-2515222D01*
G01X-1680652Y-2511530D01*
G01X-1659437Y-2504247D01*
G01X-1639709Y-2493571D01*
G01X-1622008Y-2479794D01*
G01X-1606816Y-2463291D01*
G01X-1594548Y-2444512D01*
G01X-1585537Y-2423971D01*
G01X-1580031Y-2402226D01*
G01X-1578178Y-2379872D01*
G01X-1580031Y-2357518D01*
G01X-1585537Y-2335773D01*
G01X-1594548Y-2315232D01*
G01X-1606816Y-2296453D01*
G01X-1622008Y-2279950D01*
G01X-1639709Y-2266173D01*
G01X-1659437Y-2255497D01*
G01X-1680652Y-2248214D01*
G01X-1702777Y-2244522D01*
G01X-1725208Y-2244522D01*
G01X-1747333Y-2248214D01*
G01X-1768548Y-2255497D01*
G01X-1788276Y-2266173D01*
G01X-1805977Y-2279950D01*
G01X-1821169Y-2296453D01*
G01X-1833437Y-2315232D01*
G01X-1842448Y-2335773D01*
G01X-1847954Y-2357518D01*
G01X-1849806Y-2379872D01*
G01X-1849806Y-2379872D01*
G01X-5602871Y-2379872D01*
G01X-5603585Y-2371250D01*
G01X-5609092Y-2349506D01*
G01X-5618102Y-2328964D01*
G01X-5630371Y-2310186D01*
G01X-5645563Y-2293683D01*
G01X-5663264Y-2279905D01*
G01X-5682991Y-2269229D01*
G01X-5704207Y-2261946D01*
G01X-5726332Y-2258254D01*
G01X-5748762Y-2258254D01*
G01X-5770887Y-2261946D01*
G01X-5792103Y-2269229D01*
G01X-5811830Y-2279905D01*
G01X-5829531Y-2293683D01*
G01X-5844723Y-2310186D01*
G01X-5856992Y-2328964D01*
G01X-5866002Y-2349506D01*
G01X-5871509Y-2371250D01*
G01X-5873361Y-2393604D01*
G01X-5873361Y-2393604D01*
G01X-7684042Y-2393604D01*
G01X-7675006Y-1470508D01*
G01X-7653410Y-1470508D01*
G01X-7651569Y-1489200D01*
G01X-7646116Y-1507174D01*
G01X-7637262Y-1523739D01*
G01X-7625347Y-1538258D01*
G01X-7610827Y-1550174D01*
G01X-7594262Y-1559028D01*
G01X-7576288Y-1564480D01*
G01X-7557596Y-1566321D01*
G01X-7367596Y-1566321D01*
G01X-7348904Y-1564480D01*
G01X-7330930Y-1559028D01*
G01X-7314365Y-1550174D01*
G01X-7299846Y-1538258D01*
G01X-7287930Y-1523739D01*
G01X-7279076Y-1507174D01*
G01X-7273624Y-1489200D01*
G01X-7271783Y-1470508D01*
G01X-7273624Y-1451815D01*
G01X-7279076Y-1433841D01*
G01X-7287930Y-1417276D01*
G01X-7299846Y-1402757D01*
G01X-7314365Y-1390841D01*
G01X-7330930Y-1381987D01*
G01X-7348904Y-1376535D01*
G01X-7367596Y-1374694D01*
G01X-7367596Y-1374694D01*
G01X-7557596Y-1374694D01*
G01X-7576288Y-1376535D01*
G01X-7594262Y-1381987D01*
G01X-7610827Y-1390841D01*
G01X-7625347Y-1402757D01*
G01X-7637262Y-1417276D01*
G01X-7646116Y-1433841D01*
G01X-7651569Y-1451815D01*
G01X-7653410Y-1470508D01*
G01X-7675006Y-1470508D01*
G01X-7662378Y-180492D01*
G01X-7653410Y-180492D01*
G01X-7651569Y-199185D01*
G01X-7646116Y-217159D01*
G01X-7637262Y-233724D01*
G01X-7625347Y-248243D01*
G01X-7610827Y-260159D01*
G01X-7594262Y-269013D01*
G01X-7576288Y-274465D01*
G01X-7557596Y-276306D01*
G01X-7367596Y-276306D01*
G01X-7348904Y-274465D01*
G01X-7330930Y-269013D01*
G01X-7314365Y-260159D01*
G01X-7299846Y-248243D01*
G01X-7287930Y-233724D01*
G01X-7279076Y-217159D01*
G01X-7273624Y-199185D01*
G01X-7271783Y-180492D01*
G01X-7273624Y-161800D01*
G01X-7279076Y-143826D01*
G01X-7287930Y-127261D01*
G01X-7299846Y-112742D01*
G01X-7314365Y-100826D01*
G01X-7330930Y-91972D01*
G01X-7348904Y-86520D01*
G01X-7367596Y-84679D01*
G01X-7367596Y-84679D01*
G01X-7557596Y-84679D01*
G01X-7576288Y-86520D01*
G01X-7594262Y-91972D01*
G01X-7610827Y-100826D01*
G01X-7625347Y-112742D01*
G01X-7637262Y-127261D01*
G01X-7646116Y-143826D01*
G01X-7651569Y-161800D01*
G01X-7653410Y-180492D01*
G01X-7662378Y-180492D01*
G01X-7654892Y584200D01*
G01X-4104914Y584200D01*
G01X-4103136Y568947D01*
G01X-4097897Y554511D01*
G01X-4089478Y541668D01*
G01X-4078331Y531106D01*
G01X-4065053Y523390D01*
G01X-4050356Y518936D01*
G01X-4035029Y517982D01*
G01X-4019894Y520579D01*
G01X-4005761Y526588D01*
G01X-3993390Y535686D01*
G01X-3976186Y535686D01*
G01X-3970095Y529595D01*
G01X-3960047Y521885D01*
G01X-3948347Y517039D01*
G01X-3935790Y515386D01*
G01X-3887410Y515386D01*
G01X-3874853Y517039D01*
G01X-3863153Y521885D01*
G01X-3853105Y529595D01*
G01X-3847014Y535686D01*
G01X-3352800Y535686D01*
G01X-3340244Y537339D01*
G01X-3328543Y542186D01*
G01X-3318495Y549895D01*
G01X-3261564Y606827D01*
G01X-3246382Y609141D01*
G01X-3232141Y614886D01*
G01X-3219602Y623752D01*
G01X-3209439Y635264D01*
G01X-3202196Y648806D01*
G01X-3198263Y663650D01*
G01X-3197849Y679001D01*
G01X-3200978Y694036D01*
G01X-3207480Y707948D01*
G01X-3217009Y719991D01*
G01X-3229052Y729520D01*
G01X-3242964Y736022D01*
G01X-3257999Y739151D01*
G01X-3273350Y738737D01*
G01X-3288194Y734804D01*
G01X-3301736Y727561D01*
G01X-3313248Y717398D01*
G01X-3322114Y704859D01*
G01X-3327859Y690618D01*
G01X-3330173Y675436D01*
G01X-3372895Y632714D01*
G01X-3372895Y632714D01*
G01X-3867110Y632714D01*
G01X-3879666Y631061D01*
G01X-3891367Y626214D01*
G01X-3901414Y618505D01*
G01X-3907505Y612414D01*
G01X-3915695Y612414D01*
G01X-3921786Y618505D01*
G01X-3931833Y626214D01*
G01X-3943534Y631061D01*
G01X-3956090Y632714D01*
G01X-3993390Y632714D01*
G01X-4005761Y641812D01*
G01X-4019894Y647821D01*
G01X-4035029Y650418D01*
G01X-4050356Y649464D01*
G01X-4065053Y645010D01*
G01X-4078331Y637294D01*
G01X-4089478Y626732D01*
G01X-4097897Y613889D01*
G01X-4103136Y599453D01*
G01X-4104914Y584200D01*
G01X-7654892Y584200D01*
G01X-7648587Y1228282D01*
G01X-5887093Y1228282D01*
G01X-5885241Y1205927D01*
G01X-5879735Y1184183D01*
G01X-5870724Y1163641D01*
G01X-5858456Y1144863D01*
G01X-5843264Y1128360D01*
G01X-5825563Y1114583D01*
G01X-5805835Y1103907D01*
G01X-5784620Y1096623D01*
G01X-5762495Y1092931D01*
G01X-5740064Y1092931D01*
G01X-5717939Y1096623D01*
G01X-5696723Y1103907D01*
G01X-5676996Y1114583D01*
G01X-5659295Y1128360D01*
G01X-5644103Y1144863D01*
G01X-5631834Y1163641D01*
G01X-5622824Y1184183D01*
G01X-5617318Y1205927D01*
G01X-5616603Y1214549D01*
G01X-1863539Y1214549D01*
G01X-1861686Y1192195D01*
G01X-1856180Y1170451D01*
G01X-1847170Y1149909D01*
G01X-1834901Y1131131D01*
G01X-1819709Y1114628D01*
G01X-1802008Y1100850D01*
G01X-1782281Y1090174D01*
G01X-1761065Y1082891D01*
G01X-1738940Y1079199D01*
G01X-1716509Y1079199D01*
G01X-1694384Y1082891D01*
G01X-1673169Y1090174D01*
G01X-1653441Y1100850D01*
G01X-1635740Y1114628D01*
G01X-1620548Y1131131D01*
G01X-1608280Y1149909D01*
G01X-1599269Y1170451D01*
G01X-1593763Y1192195D01*
G01X-1591911Y1214549D01*
G01X-1593763Y1236904D01*
G01X-1599269Y1258648D01*
G01X-1608280Y1279190D01*
G01X-1620548Y1297968D01*
G01X-1635740Y1314471D01*
G01X-1651454Y1326701D01*
G01X-929651Y1326701D01*
G01X-929237Y1311350D01*
G01X-925304Y1296506D01*
G01X-918061Y1282964D01*
G01X-907898Y1271452D01*
G01X-895359Y1262586D01*
G01X-881118Y1256841D01*
G01X-865936Y1254527D01*
G01X-787922Y1176513D01*
G01X-787795Y1160269D01*
G01X-784776Y1144307D01*
G01X-778961Y1129139D01*
G01X-770537Y1115249D01*
G01X-759773Y1103082D01*
G01X-747014Y1093028D01*
G01X-747014Y380172D01*
G01X-747014Y380172D01*
G01X-761047Y368891D01*
G01X-772579Y355063D01*
G01X-781156Y339231D01*
G01X-786441Y322018D01*
G01X-788225Y304102D01*
G01X-786441Y286185D01*
G01X-781156Y268972D01*
G01X-772579Y253140D01*
G01X-761047Y239312D01*
G01X-747014Y228031D01*
G01X-747014Y134110D01*
G01X-756112Y121739D01*
G01X-762121Y107606D01*
G01X-764718Y92471D01*
G01X-763764Y77144D01*
G01X-759310Y62447D01*
G01X-751594Y49169D01*
G01X-741032Y38022D01*
G01X-728189Y29603D01*
G01X-713753Y24364D01*
G01X-698500Y22586D01*
G01X-683247Y24364D01*
G01X-668811Y29603D01*
G01X-655968Y38022D01*
G01X-645406Y49169D01*
G01X-637690Y62447D01*
G01X-633236Y77144D01*
G01X-632282Y92471D01*
G01X-634879Y107606D01*
G01X-640888Y121739D01*
G01X-649986Y134110D01*
G01X-649986Y213288D01*
G01X-607412Y213288D01*
G01X-588841Y215207D01*
G01X-571055Y220883D01*
G01X-554806Y230076D01*
G01X-540780Y242398D01*
G01X-529570Y257327D01*
G01X-521650Y274234D01*
G01X-517355Y292402D01*
G01X-516865Y311066D01*
G01X-520203Y329434D01*
G01X-527226Y346733D01*
G01X-537638Y362229D01*
G01X-550999Y375269D01*
G01X-566745Y385301D01*
G01X-554285Y393863D01*
G01X-543927Y404875D01*
G01X-536142Y417835D01*
G01X-531285Y432152D01*
G01X-529579Y447173D01*
G01X-531099Y462215D01*
G01X-535778Y476590D01*
G01X-543402Y489646D01*
G01X-553623Y500785D01*
G01X-565976Y509501D01*
G01X-579897Y515396D01*
G01X-594753Y518202D01*
G01X-609865Y517790D01*
G01X-624546Y514180D01*
G01X-638126Y507536D01*
G01X-649986Y498161D01*
G01X-649986Y975064D01*
G01X-638127Y965690D01*
G01X-624549Y959046D01*
G01X-609870Y955436D01*
G01X-594759Y955023D01*
G01X-579905Y957827D01*
G01X-565985Y963720D01*
G01X-553632Y972432D01*
G01X-543410Y983569D01*
G01X-535785Y996621D01*
G01X-531103Y1010994D01*
G01X-529579Y1026033D01*
G01X-531281Y1041053D01*
G01X-536132Y1055370D01*
G01X-543912Y1068331D01*
G01X-554265Y1079345D01*
G01X-566720Y1087911D01*
G01X-550980Y1097947D01*
G01X-537624Y1110989D01*
G01X-527216Y1126486D01*
G01X-520198Y1143784D01*
G01X-516864Y1162151D01*
G01X-517357Y1180812D01*
G01X-521654Y1198978D01*
G01X-529575Y1215882D01*
G01X-540786Y1230808D01*
G01X-554811Y1243128D01*
G01X-571059Y1252319D01*
G01X-588843Y1257994D01*
G01X-607412Y1259912D01*
G01X-697412Y1259912D01*
G01X-713241Y1258522D01*
G01X-728585Y1254394D01*
G01X-797327Y1323136D01*
G01X-799641Y1338318D01*
G01X-805386Y1352559D01*
G01X-814252Y1365098D01*
G01X-825764Y1375261D01*
G01X-839306Y1382504D01*
G01X-854150Y1386437D01*
G01X-869501Y1386851D01*
G01X-884536Y1383722D01*
G01X-898448Y1377220D01*
G01X-910491Y1367691D01*
G01X-920020Y1355648D01*
G01X-926522Y1341736D01*
G01X-929651Y1326701D01*
G01X-1651454Y1326701D01*
G01X-1653441Y1328248D01*
G01X-1673169Y1338924D01*
G01X-1694384Y1346207D01*
G01X-1716509Y1349899D01*
G01X-1738940Y1349899D01*
G01X-1761065Y1346207D01*
G01X-1782281Y1338924D01*
G01X-1802008Y1328248D01*
G01X-1819709Y1314471D01*
G01X-1834901Y1297968D01*
G01X-1847170Y1279190D01*
G01X-1856180Y1258648D01*
G01X-1861686Y1236904D01*
G01X-1863539Y1214549D01*
G01X-1863539Y1214549D01*
G01X-5616603Y1214549D01*
G01X-5615465Y1228282D01*
G01X-5617318Y1250636D01*
G01X-5622824Y1272380D01*
G01X-5631834Y1292922D01*
G01X-5644103Y1311700D01*
G01X-5659295Y1328203D01*
G01X-5676996Y1341981D01*
G01X-5696723Y1352656D01*
G01X-5717939Y1359940D01*
G01X-5740064Y1363632D01*
G01X-5762495Y1363632D01*
G01X-5784620Y1359940D01*
G01X-5805835Y1352656D01*
G01X-5825563Y1341981D01*
G01X-5843264Y1328203D01*
G01X-5858456Y1311700D01*
G01X-5870724Y1292922D01*
G01X-5879735Y1272380D01*
G01X-5885241Y1250636D01*
G01X-5887093Y1228282D01*
G01X-5887093Y1228282D01*
G01X-7648587Y1228282D01*
G01X-7643828Y1714500D01*
G01X-3909314Y1714500D01*
G01X-3909314Y1600200D01*
G01X-3907779Y1586579D01*
G01X-3903252Y1573640D01*
G01X-3895959Y1562034D01*
G01X-3886266Y1552341D01*
G01X-3874660Y1545048D01*
G01X-3861721Y1540521D01*
G01X-3848100Y1538986D01*
G01X-3251200Y1538986D01*
G01X-3237579Y1540521D01*
G01X-3224640Y1545048D01*
G01X-3213034Y1552341D01*
G01X-3203341Y1562034D01*
G01X-3196048Y1573640D01*
G01X-3191521Y1586579D01*
G01X-3189986Y1600200D01*
G01X-3189986Y1714500D01*
G01X-3189986Y1714500D01*
G01X-3191521Y1728121D01*
G01X-3196048Y1741060D01*
G01X-3203341Y1752666D01*
G01X-3213034Y1762359D01*
G01X-3224640Y1769652D01*
G01X-3237579Y1774179D01*
G01X-3251200Y1775714D01*
G01X-3848100Y1775714D01*
G01X-3861721Y1774179D01*
G01X-3874660Y1769652D01*
G01X-3886266Y1762359D01*
G01X-3895959Y1752666D01*
G01X-3903252Y1741060D01*
G01X-3907779Y1728121D01*
G01X-3909314Y1714500D01*
G01X-7643828Y1714500D01*
G01X-7641472Y1955153D01*
G01X-485707Y1955153D01*
G01X-485707Y-1432011D01*
G01X-500081Y-1425290D01*
G01X-515405Y-1421174D01*
G01X-531212Y-1419788D01*
G01X-621212Y-1419788D01*
G01X-640093Y-1421772D01*
G01X-658149Y-1427639D01*
G01X-674591Y-1437132D01*
G01X-688699Y-1449835D01*
G01X-699859Y-1465195D01*
G01X-707581Y-1482538D01*
G01X-711528Y-1501109D01*
G01X-711528Y-1520094D01*
G01X-707581Y-1538665D01*
G01X-699859Y-1556008D01*
G01X-688699Y-1571368D01*
G01X-674591Y-1584071D01*
G01X-658149Y-1593564D01*
G01X-640093Y-1599431D01*
G01X-621212Y-1601415D01*
G01X-571527Y-1601415D01*
G01X-581598Y-1612620D01*
G01X-589070Y-1625702D01*
G01X-593606Y-1640069D01*
G01X-595001Y-1655069D01*
G01X-593190Y-1670026D01*
G01X-588257Y-1684261D01*
G01X-580424Y-1697130D01*
G01X-570046Y-1708051D01*
G01X-557593Y-1716530D01*
G01X-543628Y-1722182D01*
G01X-528784Y-1724752D01*
G01X-513731Y-1724124D01*
G01X-499152Y-1720326D01*
G01X-485707Y-1713530D01*
G37*
G36*
G01X-490545Y-2294399D02*
G01X-485707Y-2291533D01*
G01X-485707Y-2297008D01*
G01X-490545Y-2294399D01*
G37*
G36*
G01X-490520Y-1591789D02*
G01X-485707Y-1589192D01*
G01X-485707Y-1594642D01*
G01X-490520Y-1591789D01*
G37*
G36*
G01X-7641472Y1955153D02*
G01X-9022Y1955153D01*
G01X-9022Y-2422173D01*
G01X-1513435Y-3926586D01*
G01X-5994400Y-3926586D01*
G01X-6356634Y-3632742D01*
G01X-5154438Y-3632742D01*
G01X-5154438Y-3692741D01*
G01X-5152597Y-3711434D01*
G01X-5147145Y-3729408D01*
G01X-5138291Y-3745973D01*
G01X-5126375Y-3760492D01*
G01X-5111856Y-3772408D01*
G01X-5095291Y-3781262D01*
G01X-5077317Y-3786714D01*
G01X-5058624Y-3788555D01*
G01X-5039932Y-3786714D01*
G01X-5021958Y-3781262D01*
G01X-5005393Y-3772408D01*
G01X-4990874Y-3760492D01*
G01X-4978958Y-3745973D01*
G01X-4970104Y-3729408D01*
G01X-4964652Y-3711434D01*
G01X-4962810Y-3692741D01*
G01X-4962810Y-3632742D01*
G01X-4289441Y-3632742D01*
G01X-4289441Y-3692741D01*
G01X-4287600Y-3711434D01*
G01X-4282148Y-3729408D01*
G01X-4273294Y-3745973D01*
G01X-4261378Y-3760492D01*
G01X-4246859Y-3772408D01*
G01X-4230294Y-3781262D01*
G01X-4212320Y-3786714D01*
G01X-4193627Y-3788555D01*
G01X-4174935Y-3786714D01*
G01X-4156961Y-3781262D01*
G01X-4140396Y-3772408D01*
G01X-4125877Y-3760492D01*
G01X-4113961Y-3745973D01*
G01X-4105107Y-3729408D01*
G01X-4099655Y-3711434D01*
G01X-4097813Y-3692741D01*
G01X-4097813Y-3674603D01*
G01X-2661912Y-3674603D01*
G01X-2661912Y-3734603D01*
G01X-2660071Y-3753295D01*
G01X-2654619Y-3771269D01*
G01X-2645765Y-3787834D01*
G01X-2633849Y-3802353D01*
G01X-2619330Y-3814269D01*
G01X-2602765Y-3823123D01*
G01X-2584791Y-3828575D01*
G01X-2566098Y-3830417D01*
G01X-2547406Y-3828575D01*
G01X-2529432Y-3823123D01*
G01X-2512867Y-3814269D01*
G01X-2498348Y-3802353D01*
G01X-2486432Y-3787834D01*
G01X-2477578Y-3771269D01*
G01X-2472126Y-3753295D01*
G01X-2470285Y-3734603D01*
G01X-2470285Y-3674603D01*
G01X-1796915Y-3674603D01*
G01X-1796915Y-3734603D01*
G01X-1795074Y-3753295D01*
G01X-1789622Y-3771269D01*
G01X-1780768Y-3787834D01*
G01X-1768852Y-3802353D01*
G01X-1754333Y-3814269D01*
G01X-1737768Y-3823123D01*
G01X-1719794Y-3828575D01*
G01X-1701101Y-3830417D01*
G01X-1682409Y-3828575D01*
G01X-1664435Y-3823123D01*
G01X-1647870Y-3814269D01*
G01X-1633351Y-3802353D01*
G01X-1621435Y-3787834D01*
G01X-1612581Y-3771269D01*
G01X-1607129Y-3753295D01*
G01X-1605288Y-3734603D01*
G01X-1605288Y-3674603D01*
G01X-1607129Y-3655910D01*
G01X-1612581Y-3637936D01*
G01X-1621435Y-3621371D01*
G01X-1633351Y-3606852D01*
G01X-1647870Y-3594936D01*
G01X-1664435Y-3586082D01*
G01X-1682409Y-3580630D01*
G01X-1701101Y-3578789D01*
G01X-1719794Y-3580630D01*
G01X-1737768Y-3586082D01*
G01X-1754333Y-3594936D01*
G01X-1768852Y-3606852D01*
G01X-1780768Y-3621371D01*
G01X-1789622Y-3637936D01*
G01X-1795074Y-3655910D01*
G01X-1796915Y-3674603D01*
G01X-1796915Y-3674603D01*
G01X-2470285Y-3674603D01*
G01X-2472126Y-3655910D01*
G01X-2477578Y-3637936D01*
G01X-2486432Y-3621371D01*
G01X-2498348Y-3606852D01*
G01X-2512867Y-3594936D01*
G01X-2529432Y-3586082D01*
G01X-2547406Y-3580630D01*
G01X-2566098Y-3578789D01*
G01X-2584791Y-3580630D01*
G01X-2602765Y-3586082D01*
G01X-2619330Y-3594936D01*
G01X-2633849Y-3606852D01*
G01X-2645765Y-3621371D01*
G01X-2654619Y-3637936D01*
G01X-2660071Y-3655910D01*
G01X-2661912Y-3674603D01*
G01X-2661912Y-3674603D01*
G01X-4097813Y-3674603D01*
G01X-4097813Y-3632742D01*
G01X-4099655Y-3614049D01*
G01X-4105107Y-3596075D01*
G01X-4113961Y-3579510D01*
G01X-4125877Y-3564991D01*
G01X-4140396Y-3553075D01*
G01X-4156961Y-3544221D01*
G01X-4174935Y-3538769D01*
G01X-4193627Y-3536928D01*
G01X-4212320Y-3538769D01*
G01X-4230294Y-3544221D01*
G01X-4246859Y-3553075D01*
G01X-4261378Y-3564991D01*
G01X-4273294Y-3579510D01*
G01X-4282148Y-3596075D01*
G01X-4287600Y-3614049D01*
G01X-4289441Y-3632742D01*
G01X-4289441Y-3632742D01*
G01X-4962810Y-3632742D01*
G01X-4964652Y-3614049D01*
G01X-4970104Y-3596075D01*
G01X-4978958Y-3579510D01*
G01X-4990874Y-3564991D01*
G01X-5005393Y-3553075D01*
G01X-5021958Y-3544221D01*
G01X-5039932Y-3538769D01*
G01X-5058624Y-3536928D01*
G01X-5077317Y-3538769D01*
G01X-5095291Y-3544221D01*
G01X-5111856Y-3553075D01*
G01X-5126375Y-3564991D01*
G01X-5138291Y-3579510D01*
G01X-5147145Y-3596075D01*
G01X-5152597Y-3614049D01*
G01X-5154438Y-3632742D01*
G01X-5154438Y-3632742D01*
G01X-6356634Y-3632742D01*
G01X-6892893Y-3197727D01*
G01X-5149438Y-3197727D01*
G01X-5149438Y-3287727D01*
G01X-5147519Y-3306298D01*
G01X-5141843Y-3324084D01*
G01X-5132650Y-3340333D01*
G01X-5120328Y-3354359D01*
G01X-5105399Y-3365569D01*
G01X-5088492Y-3373489D01*
G01X-5070323Y-3377784D01*
G01X-5051660Y-3378273D01*
G01X-5033291Y-3374936D01*
G01X-5015993Y-3367913D01*
G01X-5000497Y-3357500D01*
G01X-4987457Y-3344139D01*
G01X-4977425Y-3328394D01*
G01X-4968121Y-3341705D01*
G01X-4956028Y-3352546D01*
G01X-4941784Y-3360347D01*
G01X-4926138Y-3364698D01*
G01X-4909911Y-3365370D01*
G01X-4893958Y-3362327D01*
G01X-4879118Y-3355730D01*
G01X-4866171Y-3345926D01*
G01X-4855798Y-3333430D01*
G01X-4848545Y-3318899D01*
G01X-4844793Y-3303098D01*
G01X-4844740Y-3286866D01*
G01X-4407487Y-3286866D01*
G01X-4407432Y-3303103D01*
G01X-4407432Y-3303103D01*
G01X-4403680Y-3318901D01*
G01X-4396428Y-3333429D01*
G01X-4386058Y-3345923D01*
G01X-4373114Y-3355727D01*
G01X-4358277Y-3362325D01*
G01X-4342328Y-3365369D01*
G01X-4326104Y-3364701D01*
G01X-4310459Y-3360354D01*
G01X-4296216Y-3352559D01*
G01X-4284122Y-3341724D01*
G01X-4274815Y-3328419D01*
G01X-4264779Y-3344159D01*
G01X-4251737Y-3357515D01*
G01X-4236240Y-3367923D01*
G01X-4218942Y-3374941D01*
G01X-4200575Y-3378275D01*
G01X-4181914Y-3377782D01*
G01X-4163748Y-3373485D01*
G01X-4146844Y-3365563D01*
G01X-4131917Y-3354353D01*
G01X-4119598Y-3340328D01*
G01X-4110407Y-3324080D01*
G01X-4104732Y-3306296D01*
G01X-4102813Y-3287727D01*
G01X-4102813Y-3239588D01*
G01X-2656912Y-3239588D01*
G01X-2656912Y-3329588D01*
G01X-2654993Y-3348159D01*
G01X-2649317Y-3365945D01*
G01X-2640124Y-3382194D01*
G01X-2627802Y-3396220D01*
G01X-2612873Y-3407430D01*
G01X-2595966Y-3415350D01*
G01X-2577798Y-3419645D01*
G01X-2559134Y-3420135D01*
G01X-2540766Y-3416797D01*
G01X-2523467Y-3409774D01*
G01X-2507971Y-3399362D01*
G01X-2494931Y-3386001D01*
G01X-2484899Y-3370255D01*
G01X-2475595Y-3383566D01*
G01X-2463503Y-3394407D01*
G01X-2449259Y-3402209D01*
G01X-2433612Y-3406559D01*
G01X-2417385Y-3407231D01*
G01X-2401432Y-3404189D01*
G01X-2386592Y-3397592D01*
G01X-2385549Y-3396801D01*
G01X-2263151Y-3396801D01*
G01X-2260022Y-3411836D01*
G01X-2253520Y-3425748D01*
G01X-2243991Y-3437791D01*
G01X-2231948Y-3447320D01*
G01X-2218036Y-3453822D01*
G01X-2203001Y-3456951D01*
G01X-2187650Y-3456537D01*
G01X-2172806Y-3452604D01*
G01X-2159264Y-3445361D01*
G01X-2147752Y-3435198D01*
G01X-2138886Y-3422659D01*
G01X-2133141Y-3408418D01*
G01X-2130827Y-3393236D01*
G01X-2066318Y-3328727D01*
G01X-1914961Y-3328727D01*
G01X-1914906Y-3344964D01*
G01X-1914906Y-3344964D01*
G01X-1911154Y-3360762D01*
G01X-1903903Y-3375290D01*
G01X-1893532Y-3387785D01*
G01X-1880588Y-3397588D01*
G01X-1865752Y-3404186D01*
G01X-1849802Y-3407230D01*
G01X-1833578Y-3406562D01*
G01X-1817933Y-3402216D01*
G01X-1803690Y-3394420D01*
G01X-1791596Y-3383585D01*
G01X-1782289Y-3370280D01*
G01X-1772253Y-3386020D01*
G01X-1759211Y-3399376D01*
G01X-1743714Y-3409784D01*
G01X-1726416Y-3416802D01*
G01X-1708049Y-3420136D01*
G01X-1689388Y-3419643D01*
G01X-1671222Y-3415346D01*
G01X-1654318Y-3407425D01*
G01X-1639392Y-3396214D01*
G01X-1627072Y-3382189D01*
G01X-1617881Y-3365941D01*
G01X-1612206Y-3348157D01*
G01X-1610288Y-3329588D01*
G01X-1610288Y-3239588D01*
G01X-1612272Y-3220707D01*
G01X-1618139Y-3202651D01*
G01X-1627632Y-3186209D01*
G01X-1640335Y-3172101D01*
G01X-1655695Y-3160941D01*
G01X-1673038Y-3153219D01*
G01X-1691609Y-3149272D01*
G01X-1710594Y-3149272D01*
G01X-1729165Y-3153219D01*
G01X-1746508Y-3160941D01*
G01X-1761868Y-3172101D01*
G01X-1774571Y-3186209D01*
G01X-1784064Y-3202651D01*
G01X-1789931Y-3220707D01*
G01X-1791915Y-3239588D01*
G01X-1791915Y-3289273D01*
G01X-1804082Y-3278520D01*
G01X-1818378Y-3270820D01*
G01X-1834052Y-3266580D01*
G01X-1850280Y-3266022D01*
G01X-1866208Y-3269174D01*
G01X-1881000Y-3275872D01*
G01X-1893877Y-3285763D01*
G01X-1904163Y-3298327D01*
G01X-1911316Y-3312904D01*
G01X-1914961Y-3328727D01*
G01X-2066318Y-3328727D01*
G01X-2010395Y-3272805D01*
G01X-2002686Y-3262757D01*
G01X-1997839Y-3251056D01*
G01X-1996186Y-3238500D01*
G01X-1996186Y-2991610D01*
G01X-1987088Y-2979239D01*
G01X-1981079Y-2965106D01*
G01X-1978482Y-2949971D01*
G01X-1979436Y-2934644D01*
G01X-1983890Y-2919947D01*
G01X-1991606Y-2906669D01*
G01X-2002168Y-2895522D01*
G01X-2015011Y-2887103D01*
G01X-2029447Y-2881864D01*
G01X-2044700Y-2880086D01*
G01X-2044700Y-2880086D01*
G01X-2059953Y-2881864D01*
G01X-2074389Y-2887103D01*
G01X-2087232Y-2895522D01*
G01X-2097794Y-2906669D01*
G01X-2105510Y-2919947D01*
G01X-2109964Y-2934644D01*
G01X-2110918Y-2949971D01*
G01X-2108321Y-2965106D01*
G01X-2102312Y-2979239D01*
G01X-2093214Y-2991610D01*
G01X-2093214Y-3218405D01*
G01X-2199436Y-3324627D01*
G01X-2214618Y-3326941D01*
G01X-2228859Y-3332686D01*
G01X-2241398Y-3341552D01*
G01X-2251561Y-3353064D01*
G01X-2258804Y-3366606D01*
G01X-2262737Y-3381450D01*
G01X-2263151Y-3396801D01*
G01X-2385549Y-3396801D01*
G01X-2373645Y-3387787D01*
G01X-2363273Y-3375291D01*
G01X-2356019Y-3360760D01*
G01X-2352267Y-3344959D01*
G01X-2352214Y-3328719D01*
G01X-2355862Y-3312893D01*
G01X-2363019Y-3298315D01*
G01X-2373310Y-3285751D01*
G01X-2386192Y-3275862D01*
G01X-2400988Y-3269167D01*
G01X-2416921Y-3266019D01*
G01X-2433151Y-3266584D01*
G01X-2448826Y-3270832D01*
G01X-2463121Y-3278540D01*
G01X-2475285Y-3289301D01*
G01X-2475285Y-3239588D01*
G01X-2475285Y-3239588D01*
G01X-2477269Y-3220707D01*
G01X-2483136Y-3202651D01*
G01X-2492629Y-3186209D01*
G01X-2505332Y-3172101D01*
G01X-2520692Y-3160941D01*
G01X-2538035Y-3153219D01*
G01X-2556606Y-3149272D01*
G01X-2575591Y-3149272D01*
G01X-2594162Y-3153219D01*
G01X-2611505Y-3160941D01*
G01X-2626865Y-3172101D01*
G01X-2639568Y-3186209D01*
G01X-2649061Y-3202651D01*
G01X-2654928Y-3220707D01*
G01X-2656912Y-3239588D01*
G01X-4102813Y-3239588D01*
G01X-4102813Y-3197727D01*
G01X-4104798Y-3178846D01*
G01X-4110665Y-3160790D01*
G01X-4120157Y-3144348D01*
G01X-4132861Y-3130239D01*
G01X-4148220Y-3119080D01*
G01X-4165564Y-3111358D01*
G01X-4184135Y-3107411D01*
G01X-4203120Y-3107411D01*
G01X-4221690Y-3111358D01*
G01X-4239034Y-3119080D01*
G01X-4254394Y-3130239D01*
G01X-4267097Y-3144348D01*
G01X-4276590Y-3160790D01*
G01X-4282457Y-3178846D01*
G01X-4284441Y-3197727D01*
G01X-4284441Y-3247411D01*
G01X-4296608Y-3236658D01*
G01X-4310904Y-3228959D01*
G01X-4326578Y-3224719D01*
G01X-4342806Y-3224160D01*
G01X-4358734Y-3227313D01*
G01X-4373526Y-3234011D01*
G01X-4386403Y-3243902D01*
G01X-4396689Y-3256466D01*
G01X-4403842Y-3271043D01*
G01X-4407487Y-3286866D01*
G01X-4844740Y-3286866D01*
G01X-4844740Y-3286858D01*
G01X-4848388Y-3271032D01*
G01X-4855545Y-3256454D01*
G01X-4865836Y-3243890D01*
G01X-4878718Y-3234000D01*
G01X-4893514Y-3227306D01*
G01X-4909447Y-3224158D01*
G01X-4925677Y-3224723D01*
G01X-4941352Y-3228971D01*
G01X-4955647Y-3236678D01*
G01X-4967810Y-3247440D01*
G01X-4967810Y-3197727D01*
G01X-4967810Y-3197727D01*
G01X-4969795Y-3178846D01*
G01X-4975662Y-3160790D01*
G01X-4985154Y-3144348D01*
G01X-4997858Y-3130239D01*
G01X-5013217Y-3119080D01*
G01X-5030561Y-3111358D01*
G01X-5049132Y-3107411D01*
G01X-5068117Y-3107411D01*
G01X-5086687Y-3111358D01*
G01X-5104031Y-3119080D01*
G01X-5119391Y-3130239D01*
G01X-5132094Y-3144348D01*
G01X-5141587Y-3160790D01*
G01X-5147454Y-3178846D01*
G01X-5149438Y-3197727D01*
G01X-6892893Y-3197727D01*
G01X-7685619Y-2554667D01*
G01X-7684042Y-2393604D01*
G01X-5873361Y-2393604D01*
G01X-5871509Y-2415959D01*
G01X-5866002Y-2437703D01*
G01X-5856992Y-2458245D01*
G01X-5844723Y-2477023D01*
G01X-5829531Y-2493526D01*
G01X-5811830Y-2507303D01*
G01X-5792103Y-2517979D01*
G01X-5770887Y-2525262D01*
G01X-5748762Y-2528954D01*
G01X-5726332Y-2528954D01*
G01X-5704207Y-2525262D01*
G01X-5682991Y-2517979D01*
G01X-5663264Y-2507303D01*
G01X-5645563Y-2493526D01*
G01X-5630371Y-2477023D01*
G01X-5618102Y-2458245D01*
G01X-5609092Y-2437703D01*
G01X-5603585Y-2415959D01*
G01X-5601733Y-2393604D01*
G01X-5602871Y-2379872D01*
G01X-1849806Y-2379872D01*
G01X-1847954Y-2402226D01*
G01X-1842448Y-2423971D01*
G01X-1833437Y-2444512D01*
G01X-1821169Y-2463291D01*
G01X-1805977Y-2479794D01*
G01X-1788276Y-2493571D01*
G01X-1768548Y-2504247D01*
G01X-1747333Y-2511530D01*
G01X-1725208Y-2515222D01*
G01X-1702777Y-2515222D01*
G01X-1680652Y-2511530D01*
G01X-1659437Y-2504247D01*
G01X-1639709Y-2493571D01*
G01X-1622008Y-2479794D01*
G01X-1606816Y-2463291D01*
G01X-1594548Y-2444512D01*
G01X-1585537Y-2423971D01*
G01X-1580031Y-2402226D01*
G01X-1578178Y-2379872D01*
G01X-1579319Y-2366106D01*
G01X-711528Y-2366106D01*
G01X-711528Y-2385091D01*
G01X-707581Y-2403662D01*
G01X-699859Y-2421005D01*
G01X-688699Y-2436365D01*
G01X-674591Y-2449068D01*
G01X-658149Y-2458561D01*
G01X-640093Y-2464428D01*
G01X-621212Y-2466412D01*
G01X-531212Y-2466412D01*
G01X-512641Y-2464493D01*
G01X-494855Y-2458817D01*
G01X-478606Y-2449624D01*
G01X-464580Y-2437302D01*
G01X-453370Y-2422373D01*
G01X-445450Y-2405466D01*
G01X-441155Y-2387298D01*
G01X-440848Y-2375598D01*
G01X-282011Y-2375598D01*
G01X-280170Y-2394291D01*
G01X-274718Y-2412265D01*
G01X-265864Y-2428830D01*
G01X-253948Y-2443349D01*
G01X-239429Y-2455265D01*
G01X-222864Y-2464119D01*
G01X-204890Y-2469571D01*
G01X-186197Y-2471412D01*
G01X-186197Y-2471412D01*
G01X-126197Y-2471412D01*
G01X-107505Y-2469571D01*
G01X-89531Y-2464119D01*
G01X-72966Y-2455265D01*
G01X-58447Y-2443349D01*
G01X-46531Y-2428830D01*
G01X-37677Y-2412265D01*
G01X-32225Y-2394291D01*
G01X-30383Y-2375598D01*
G01X-32225Y-2356906D01*
G01X-37677Y-2338932D01*
G01X-46531Y-2322367D01*
G01X-58447Y-2307848D01*
G01X-72966Y-2295932D01*
G01X-89531Y-2287078D01*
G01X-107505Y-2281626D01*
G01X-126197Y-2279785D01*
G01X-186197Y-2279785D01*
G01X-204890Y-2281626D01*
G01X-222864Y-2287078D01*
G01X-239429Y-2295932D01*
G01X-253948Y-2307848D01*
G01X-265864Y-2322367D01*
G01X-274718Y-2338932D01*
G01X-280170Y-2356906D01*
G01X-282011Y-2375598D01*
G01X-440848Y-2375598D01*
G01X-440665Y-2368634D01*
G01X-444003Y-2350266D01*
G01X-451026Y-2332967D01*
G01X-461438Y-2317471D01*
G01X-474799Y-2304431D01*
G01X-490545Y-2294399D01*
G01X-477234Y-2285095D01*
G01X-466393Y-2273003D01*
G01X-458591Y-2258759D01*
G01X-454241Y-2243112D01*
G01X-453569Y-2226885D01*
G01X-456611Y-2210932D01*
G01X-463208Y-2196092D01*
G01X-473013Y-2183145D01*
G01X-485509Y-2172773D01*
G01X-500040Y-2165519D01*
G01X-515841Y-2161767D01*
G01X-532081Y-2161714D01*
G01X-547907Y-2165362D01*
G01X-562485Y-2172519D01*
G01X-575049Y-2182810D01*
G01X-584938Y-2195692D01*
G01X-591633Y-2210488D01*
G01X-594781Y-2226421D01*
G01X-594216Y-2242651D01*
G01X-589968Y-2258326D01*
G01X-582260Y-2272621D01*
G01X-571499Y-2284785D01*
G01X-621212Y-2284785D01*
G01X-621212Y-2284785D01*
G01X-640093Y-2286769D01*
G01X-658149Y-2292636D01*
G01X-674591Y-2302129D01*
G01X-688699Y-2314832D01*
G01X-699859Y-2330192D01*
G01X-707581Y-2347535D01*
G01X-711528Y-2366106D01*
G01X-1579319Y-2366106D01*
G01X-1580031Y-2357518D01*
G01X-1585537Y-2335773D01*
G01X-1594548Y-2315232D01*
G01X-1606816Y-2296453D01*
G01X-1622008Y-2279950D01*
G01X-1639709Y-2266173D01*
G01X-1659437Y-2255497D01*
G01X-1680652Y-2248214D01*
G01X-1702777Y-2244522D01*
G01X-1725208Y-2244522D01*
G01X-1747333Y-2248214D01*
G01X-1768548Y-2255497D01*
G01X-1788276Y-2266173D01*
G01X-1805977Y-2279950D01*
G01X-1821169Y-2296453D01*
G01X-1833437Y-2315232D01*
G01X-1842448Y-2335773D01*
G01X-1847954Y-2357518D01*
G01X-1849806Y-2379872D01*
G01X-1849806Y-2379872D01*
G01X-5602871Y-2379872D01*
G01X-5603585Y-2371250D01*
G01X-5609092Y-2349506D01*
G01X-5618102Y-2328964D01*
G01X-5630371Y-2310186D01*
G01X-5645563Y-2293683D01*
G01X-5663264Y-2279905D01*
G01X-5682991Y-2269229D01*
G01X-5704207Y-2261946D01*
G01X-5726332Y-2258254D01*
G01X-5748762Y-2258254D01*
G01X-5770887Y-2261946D01*
G01X-5792103Y-2269229D01*
G01X-5811830Y-2279905D01*
G01X-5829531Y-2293683D01*
G01X-5844723Y-2310186D01*
G01X-5856992Y-2328964D01*
G01X-5866002Y-2349506D01*
G01X-5871509Y-2371250D01*
G01X-5873361Y-2393604D01*
G01X-5873361Y-2393604D01*
G01X-7684042Y-2393604D01*
G01X-7675006Y-1470508D01*
G01X-7653410Y-1470508D01*
G01X-7651569Y-1489200D01*
G01X-7646116Y-1507174D01*
G01X-7637262Y-1523739D01*
G01X-7625347Y-1538258D01*
G01X-7610827Y-1550174D01*
G01X-7594262Y-1559028D01*
G01X-7576288Y-1564480D01*
G01X-7557596Y-1566321D01*
G01X-7367596Y-1566321D01*
G01X-7348904Y-1564480D01*
G01X-7330930Y-1559028D01*
G01X-7314365Y-1550174D01*
G01X-7299846Y-1538258D01*
G01X-7287930Y-1523739D01*
G01X-7279076Y-1507174D01*
G01X-7277236Y-1501109D01*
G01X-711528Y-1501109D01*
G01X-711528Y-1520094D01*
G01X-707581Y-1538665D01*
G01X-699859Y-1556008D01*
G01X-688699Y-1571368D01*
G01X-674591Y-1584071D01*
G01X-658149Y-1593564D01*
G01X-640093Y-1599431D01*
G01X-621212Y-1601415D01*
G01X-571527Y-1601415D01*
G01X-582280Y-1613582D01*
G01X-589980Y-1627878D01*
G01X-594220Y-1643552D01*
G01X-594778Y-1659780D01*
G01X-591626Y-1675708D01*
G01X-584928Y-1690500D01*
G01X-575037Y-1703377D01*
G01X-562473Y-1713663D01*
G01X-547896Y-1720816D01*
G01X-532073Y-1724461D01*
G01X-515836Y-1724406D01*
G01X-500038Y-1720654D01*
G01X-485510Y-1713403D01*
G01X-473015Y-1703032D01*
G01X-463212Y-1690088D01*
G01X-456614Y-1675252D01*
G01X-453570Y-1659302D01*
G01X-454238Y-1643078D01*
G01X-458584Y-1627433D01*
G01X-466380Y-1613190D01*
G01X-477215Y-1601096D01*
G01X-490520Y-1591789D01*
G01X-474780Y-1581753D01*
G01X-461424Y-1568711D01*
G01X-451016Y-1553214D01*
G01X-443998Y-1535916D01*
G01X-440664Y-1517549D01*
G01X-440847Y-1510601D01*
G01X-282011Y-1510601D01*
G01X-280170Y-1529294D01*
G01X-274718Y-1547268D01*
G01X-265864Y-1563833D01*
G01X-253948Y-1578352D01*
G01X-239429Y-1590268D01*
G01X-222864Y-1599122D01*
G01X-204890Y-1604574D01*
G01X-186197Y-1606415D01*
G01X-186197Y-1606415D01*
G01X-126197Y-1606415D01*
G01X-107505Y-1604574D01*
G01X-89531Y-1599122D01*
G01X-72966Y-1590268D01*
G01X-58447Y-1578352D01*
G01X-46531Y-1563833D01*
G01X-37677Y-1547268D01*
G01X-32225Y-1529294D01*
G01X-30383Y-1510601D01*
G01X-32225Y-1491909D01*
G01X-37677Y-1473935D01*
G01X-46531Y-1457370D01*
G01X-58447Y-1442851D01*
G01X-72966Y-1430935D01*
G01X-89531Y-1422081D01*
G01X-107505Y-1416629D01*
G01X-126197Y-1414788D01*
G01X-186197Y-1414788D01*
G01X-204890Y-1416629D01*
G01X-222864Y-1422081D01*
G01X-239429Y-1430935D01*
G01X-253948Y-1442851D01*
G01X-265864Y-1457370D01*
G01X-274718Y-1473935D01*
G01X-280170Y-1491909D01*
G01X-282011Y-1510601D01*
G01X-440847Y-1510601D01*
G01X-441157Y-1498888D01*
G01X-445454Y-1480722D01*
G01X-453375Y-1463818D01*
G01X-464586Y-1448892D01*
G01X-478611Y-1436572D01*
G01X-494859Y-1427381D01*
G01X-512643Y-1421706D01*
G01X-531212Y-1419788D01*
G01X-531212Y-1419788D01*
G01X-621212Y-1419788D01*
G01X-640093Y-1421772D01*
G01X-658149Y-1427639D01*
G01X-674591Y-1437132D01*
G01X-688699Y-1449835D01*
G01X-699859Y-1465195D01*
G01X-707581Y-1482538D01*
G01X-711528Y-1501109D01*
G01X-7277236Y-1501109D01*
G01X-7273624Y-1489200D01*
G01X-7271783Y-1470508D01*
G01X-7273624Y-1451815D01*
G01X-7279076Y-1433841D01*
G01X-7287930Y-1417276D01*
G01X-7299846Y-1402757D01*
G01X-7314365Y-1390841D01*
G01X-7330930Y-1381987D01*
G01X-7348904Y-1376535D01*
G01X-7367596Y-1374694D01*
G01X-7367596Y-1374694D01*
G01X-7557596Y-1374694D01*
G01X-7576288Y-1376535D01*
G01X-7594262Y-1381987D01*
G01X-7610827Y-1390841D01*
G01X-7625347Y-1402757D01*
G01X-7637262Y-1417276D01*
G01X-7646116Y-1433841D01*
G01X-7651569Y-1451815D01*
G01X-7653410Y-1470508D01*
G01X-7675006Y-1470508D01*
G01X-7662378Y-180492D01*
G01X-7653410Y-180492D01*
G01X-7651569Y-199185D01*
G01X-7646116Y-217159D01*
G01X-7637262Y-233724D01*
G01X-7625347Y-248243D01*
G01X-7610827Y-260159D01*
G01X-7594262Y-269013D01*
G01X-7576288Y-274465D01*
G01X-7557596Y-276306D01*
G01X-7367596Y-276306D01*
G01X-7348904Y-274465D01*
G01X-7330930Y-269013D01*
G01X-7314365Y-260159D01*
G01X-7299846Y-248243D01*
G01X-7287930Y-233724D01*
G01X-7279076Y-217159D01*
G01X-7273624Y-199185D01*
G01X-7271783Y-180492D01*
G01X-7273624Y-161800D01*
G01X-7279076Y-143826D01*
G01X-7287930Y-127261D01*
G01X-7299846Y-112742D01*
G01X-7314365Y-100826D01*
G01X-7330930Y-91972D01*
G01X-7348904Y-86520D01*
G01X-7367596Y-84679D01*
G01X-7367596Y-84679D01*
G01X-7557596Y-84679D01*
G01X-7576288Y-86520D01*
G01X-7594262Y-91972D01*
G01X-7610827Y-100826D01*
G01X-7625347Y-112742D01*
G01X-7637262Y-127261D01*
G01X-7646116Y-143826D01*
G01X-7651569Y-161800D01*
G01X-7653410Y-180492D01*
G01X-7662378Y-180492D01*
G01X-7654892Y584200D01*
G01X-4104914Y584200D01*
G01X-4103136Y568947D01*
G01X-4097897Y554511D01*
G01X-4089478Y541668D01*
G01X-4078331Y531106D01*
G01X-4065053Y523390D01*
G01X-4050356Y518936D01*
G01X-4035029Y517982D01*
G01X-4019894Y520579D01*
G01X-4005761Y526588D01*
G01X-3993390Y535686D01*
G01X-3976186Y535686D01*
G01X-3970095Y529595D01*
G01X-3960047Y521885D01*
G01X-3948347Y517039D01*
G01X-3935790Y515386D01*
G01X-3887410Y515386D01*
G01X-3874853Y517039D01*
G01X-3863153Y521885D01*
G01X-3853105Y529595D01*
G01X-3847014Y535686D01*
G01X-3352800Y535686D01*
G01X-3340244Y537339D01*
G01X-3328543Y542186D01*
G01X-3318495Y549895D01*
G01X-3261564Y606827D01*
G01X-3246382Y609141D01*
G01X-3232141Y614886D01*
G01X-3219602Y623752D01*
G01X-3209439Y635264D01*
G01X-3202196Y648806D01*
G01X-3198263Y663650D01*
G01X-3197849Y679001D01*
G01X-3200978Y694036D01*
G01X-3207480Y707948D01*
G01X-3217009Y719991D01*
G01X-3229052Y729520D01*
G01X-3242964Y736022D01*
G01X-3257999Y739151D01*
G01X-3273350Y738737D01*
G01X-3288194Y734804D01*
G01X-3301736Y727561D01*
G01X-3313248Y717398D01*
G01X-3322114Y704859D01*
G01X-3327859Y690618D01*
G01X-3330173Y675436D01*
G01X-3372895Y632714D01*
G01X-3372895Y632714D01*
G01X-3867110Y632714D01*
G01X-3879666Y631061D01*
G01X-3891367Y626214D01*
G01X-3901414Y618505D01*
G01X-3907505Y612414D01*
G01X-3915695Y612414D01*
G01X-3921786Y618505D01*
G01X-3931833Y626214D01*
G01X-3943534Y631061D01*
G01X-3956090Y632714D01*
G01X-3993390Y632714D01*
G01X-4005761Y641812D01*
G01X-4019894Y647821D01*
G01X-4035029Y650418D01*
G01X-4050356Y649464D01*
G01X-4065053Y645010D01*
G01X-4078331Y637294D01*
G01X-4089478Y626732D01*
G01X-4097897Y613889D01*
G01X-4103136Y599453D01*
G01X-4104914Y584200D01*
G01X-7654892Y584200D01*
G01X-7648587Y1228282D01*
G01X-5887093Y1228282D01*
G01X-5885241Y1205927D01*
G01X-5879735Y1184183D01*
G01X-5870724Y1163641D01*
G01X-5858456Y1144863D01*
G01X-5843264Y1128360D01*
G01X-5825563Y1114583D01*
G01X-5805835Y1103907D01*
G01X-5784620Y1096623D01*
G01X-5762495Y1092931D01*
G01X-5740064Y1092931D01*
G01X-5717939Y1096623D01*
G01X-5696723Y1103907D01*
G01X-5676996Y1114583D01*
G01X-5659295Y1128360D01*
G01X-5644103Y1144863D01*
G01X-5631834Y1163641D01*
G01X-5622824Y1184183D01*
G01X-5617318Y1205927D01*
G01X-5616603Y1214549D01*
G01X-1863539Y1214549D01*
G01X-1861686Y1192195D01*
G01X-1856180Y1170451D01*
G01X-1847170Y1149909D01*
G01X-1834901Y1131131D01*
G01X-1819709Y1114628D01*
G01X-1802008Y1100850D01*
G01X-1782281Y1090174D01*
G01X-1761065Y1082891D01*
G01X-1738940Y1079199D01*
G01X-1716509Y1079199D01*
G01X-1694384Y1082891D01*
G01X-1673169Y1090174D01*
G01X-1653441Y1100850D01*
G01X-1635740Y1114628D01*
G01X-1620548Y1131131D01*
G01X-1608280Y1149909D01*
G01X-1599269Y1170451D01*
G01X-1593763Y1192195D01*
G01X-1591911Y1214549D01*
G01X-1593763Y1236904D01*
G01X-1599269Y1258648D01*
G01X-1608280Y1279190D01*
G01X-1620548Y1297968D01*
G01X-1635740Y1314471D01*
G01X-1651454Y1326701D01*
G01X-929651Y1326701D01*
G01X-929237Y1311350D01*
G01X-925304Y1296506D01*
G01X-918061Y1282964D01*
G01X-907898Y1271452D01*
G01X-895359Y1262586D01*
G01X-881118Y1256841D01*
G01X-865936Y1254527D01*
G01X-787922Y1176513D01*
G01X-787795Y1160269D01*
G01X-784776Y1144307D01*
G01X-778961Y1129139D01*
G01X-770537Y1115249D01*
G01X-759773Y1103082D01*
G01X-747014Y1093028D01*
G01X-747014Y380172D01*
G01X-747014Y380172D01*
G01X-761047Y368891D01*
G01X-772579Y355063D01*
G01X-781156Y339231D01*
G01X-786441Y322018D01*
G01X-788225Y304102D01*
G01X-786441Y286185D01*
G01X-781156Y268972D01*
G01X-772579Y253140D01*
G01X-761047Y239312D01*
G01X-747014Y228031D01*
G01X-747014Y134110D01*
G01X-756112Y121739D01*
G01X-762121Y107606D01*
G01X-764718Y92471D01*
G01X-763764Y77144D01*
G01X-759310Y62447D01*
G01X-751594Y49169D01*
G01X-741032Y38022D01*
G01X-728189Y29603D01*
G01X-713753Y24364D01*
G01X-698500Y22586D01*
G01X-683247Y24364D01*
G01X-668811Y29603D01*
G01X-655968Y38022D01*
G01X-645406Y49169D01*
G01X-637690Y62447D01*
G01X-633236Y77144D01*
G01X-632282Y92471D01*
G01X-634879Y107606D01*
G01X-640888Y121739D01*
G01X-649986Y134110D01*
G01X-649986Y213288D01*
G01X-607412Y213288D01*
G01X-588841Y215207D01*
G01X-571055Y220883D01*
G01X-554806Y230076D01*
G01X-540780Y242398D01*
G01X-529570Y257327D01*
G01X-521650Y274234D01*
G01X-517355Y292402D01*
G01X-517048Y304102D01*
G01X-358211Y304102D01*
G01X-356370Y285409D01*
G01X-350918Y267435D01*
G01X-342064Y250870D01*
G01X-330148Y236351D01*
G01X-315629Y224435D01*
G01X-299064Y215581D01*
G01X-281090Y210129D01*
G01X-262397Y208288D01*
G01X-262397Y208288D01*
G01X-202397Y208288D01*
G01X-183705Y210129D01*
G01X-165731Y215581D01*
G01X-149166Y224435D01*
G01X-134647Y236351D01*
G01X-122731Y250870D01*
G01X-113877Y267435D01*
G01X-108425Y285409D01*
G01X-106583Y304102D01*
G01X-108425Y322794D01*
G01X-113877Y340768D01*
G01X-122731Y357333D01*
G01X-134647Y371852D01*
G01X-149166Y383768D01*
G01X-165731Y392622D01*
G01X-183705Y398074D01*
G01X-202397Y399915D01*
G01X-262397Y399915D01*
G01X-281090Y398074D01*
G01X-299064Y392622D01*
G01X-315629Y383768D01*
G01X-330148Y371852D01*
G01X-342064Y357333D01*
G01X-350918Y340768D01*
G01X-356370Y322794D01*
G01X-358211Y304102D01*
G01X-517048Y304102D01*
G01X-516865Y311066D01*
G01X-520203Y329434D01*
G01X-527226Y346733D01*
G01X-537638Y362229D01*
G01X-550999Y375269D01*
G01X-566745Y385301D01*
G01X-554285Y393863D01*
G01X-543927Y404875D01*
G01X-536142Y417835D01*
G01X-531285Y432152D01*
G01X-529579Y447173D01*
G01X-531099Y462215D01*
G01X-535778Y476590D01*
G01X-543402Y489646D01*
G01X-553623Y500785D01*
G01X-565976Y509501D01*
G01X-579897Y515396D01*
G01X-594753Y518202D01*
G01X-609865Y517790D01*
G01X-624546Y514180D01*
G01X-638126Y507536D01*
G01X-649986Y498161D01*
G01X-649986Y975064D01*
G01X-638127Y965690D01*
G01X-624549Y959046D01*
G01X-609870Y955436D01*
G01X-594759Y955023D01*
G01X-579905Y957827D01*
G01X-565985Y963720D01*
G01X-553632Y972432D01*
G01X-543410Y983569D01*
G01X-535785Y996621D01*
G01X-531103Y1010994D01*
G01X-529579Y1026033D01*
G01X-531281Y1041053D01*
G01X-536132Y1055370D01*
G01X-543912Y1068331D01*
G01X-554265Y1079345D01*
G01X-566720Y1087911D01*
G01X-550980Y1097947D01*
G01X-537624Y1110989D01*
G01X-527216Y1126486D01*
G01X-520198Y1143784D01*
G01X-516864Y1162151D01*
G01X-517047Y1169099D01*
G01X-358211Y1169099D01*
G01X-356370Y1150406D01*
G01X-350918Y1132432D01*
G01X-342064Y1115867D01*
G01X-330148Y1101348D01*
G01X-315629Y1089432D01*
G01X-299064Y1080578D01*
G01X-281090Y1075126D01*
G01X-262397Y1073285D01*
G01X-262397Y1073285D01*
G01X-202397Y1073285D01*
G01X-183705Y1075126D01*
G01X-165731Y1080578D01*
G01X-149166Y1089432D01*
G01X-134647Y1101348D01*
G01X-122731Y1115867D01*
G01X-113877Y1132432D01*
G01X-108425Y1150406D01*
G01X-106583Y1169099D01*
G01X-108425Y1187791D01*
G01X-113877Y1205765D01*
G01X-122731Y1222330D01*
G01X-134647Y1236849D01*
G01X-149166Y1248765D01*
G01X-165731Y1257619D01*
G01X-183705Y1263071D01*
G01X-202397Y1264912D01*
G01X-262397Y1264912D01*
G01X-281090Y1263071D01*
G01X-299064Y1257619D01*
G01X-315629Y1248765D01*
G01X-330148Y1236849D01*
G01X-342064Y1222330D01*
G01X-350918Y1205765D01*
G01X-356370Y1187791D01*
G01X-358211Y1169099D01*
G01X-517047Y1169099D01*
G01X-517357Y1180812D01*
G01X-521654Y1198978D01*
G01X-529575Y1215882D01*
G01X-540786Y1230808D01*
G01X-554811Y1243128D01*
G01X-571059Y1252319D01*
G01X-588843Y1257994D01*
G01X-607412Y1259912D01*
G01X-697412Y1259912D01*
G01X-713241Y1258522D01*
G01X-728585Y1254394D01*
G01X-797327Y1323136D01*
G01X-799641Y1338318D01*
G01X-805386Y1352559D01*
G01X-814252Y1365098D01*
G01X-825764Y1375261D01*
G01X-839306Y1382504D01*
G01X-854150Y1386437D01*
G01X-869501Y1386851D01*
G01X-884536Y1383722D01*
G01X-898448Y1377220D01*
G01X-910491Y1367691D01*
G01X-920020Y1355648D01*
G01X-926522Y1341736D01*
G01X-929651Y1326701D01*
G01X-1651454Y1326701D01*
G01X-1653441Y1328248D01*
G01X-1673169Y1338924D01*
G01X-1694384Y1346207D01*
G01X-1716509Y1349899D01*
G01X-1738940Y1349899D01*
G01X-1761065Y1346207D01*
G01X-1782281Y1338924D01*
G01X-1802008Y1328248D01*
G01X-1819709Y1314471D01*
G01X-1834901Y1297968D01*
G01X-1847170Y1279190D01*
G01X-1856180Y1258648D01*
G01X-1861686Y1236904D01*
G01X-1863539Y1214549D01*
G01X-1863539Y1214549D01*
G01X-5616603Y1214549D01*
G01X-5615465Y1228282D01*
G01X-5617318Y1250636D01*
G01X-5622824Y1272380D01*
G01X-5631834Y1292922D01*
G01X-5644103Y1311700D01*
G01X-5659295Y1328203D01*
G01X-5676996Y1341981D01*
G01X-5696723Y1352656D01*
G01X-5717939Y1359940D01*
G01X-5740064Y1363632D01*
G01X-5762495Y1363632D01*
G01X-5784620Y1359940D01*
G01X-5805835Y1352656D01*
G01X-5825563Y1341981D01*
G01X-5843264Y1328203D01*
G01X-5858456Y1311700D01*
G01X-5870724Y1292922D01*
G01X-5879735Y1272380D01*
G01X-5885241Y1250636D01*
G01X-5887093Y1228282D01*
G01X-5887093Y1228282D01*
G01X-7648587Y1228282D01*
G01X-7643828Y1714500D01*
G01X-3909314Y1714500D01*
G01X-3909314Y1600200D01*
G01X-3907779Y1586579D01*
G01X-3903252Y1573640D01*
G01X-3895959Y1562034D01*
G01X-3886266Y1552341D01*
G01X-3874660Y1545048D01*
G01X-3861721Y1540521D01*
G01X-3848100Y1538986D01*
G01X-3251200Y1538986D01*
G01X-3237579Y1540521D01*
G01X-3224640Y1545048D01*
G01X-3213034Y1552341D01*
G01X-3203341Y1562034D01*
G01X-3196048Y1573640D01*
G01X-3191521Y1586579D01*
G01X-3189986Y1600200D01*
G01X-3189986Y1714500D01*
G01X-3189986Y1714500D01*
G01X-3191521Y1728121D01*
G01X-3196048Y1741060D01*
G01X-3203341Y1752666D01*
G01X-3213034Y1762359D01*
G01X-3224640Y1769652D01*
G01X-3237579Y1774179D01*
G01X-3251200Y1775714D01*
G01X-3848100Y1775714D01*
G01X-3861721Y1774179D01*
G01X-3874660Y1769652D01*
G01X-3886266Y1762359D01*
G01X-3895959Y1752666D01*
G01X-3903252Y1741060D01*
G01X-3907779Y1728121D01*
G01X-3909314Y1714500D01*
G01X-7643828Y1714500D01*
G01X-7641472Y1955153D01*
G37*
G54D10*
G01X-485707Y-1713530D02*
G01X-485707Y-2172644D01*
G03X-580436Y-2189060I-38486J-59444D01*
G03X-571499Y-2284785I56243J-43029D01*
G01X-621212Y-2284785D01*
G03X-621212Y-2466412I0J-90814D01*
G01X-531212Y-2466412D01*
G03X-485707Y-2454189I0J90814D01*
G01X-485707Y-2898858D01*
G01X-1513435Y-3926586D01*
G01X-5994400Y-3926586D01*
G01X-7685619Y-2554667D01*
G01X-7641472Y1955153D01*
G01X-485707Y1955153D01*
G01X-485707Y-1432011D01*
G03X-531212Y-1419788I-45505J-78590D01*
G01X-621212Y-1419788D01*
G03X-621212Y-1601415I0J-90814D01*
G01X-571527Y-1601415D01*
G03X-580424Y-1697130I47335J-52671D01*
G03X-485707Y-1713530I56232J43044D01*
G01X-7367596Y-1374694D02*
G01X-7557596Y-1374694D01*
G03X-7557596Y-1566321I0J-95814D01*
G01X-7367596Y-1566321D01*
G03X-7367596Y-1374694I0J95814D01*
G01X-7367596Y-84679D02*
G01X-7557596Y-84679D01*
G03X-7557596Y-276306I0J-95814D01*
G01X-7367596Y-276306D01*
G03X-7367596Y-84679I0J95814D01*
G01X-5887093Y1228282D02*
G03X-5615465Y1228282I135814J0D01*
G03X-5887093Y1228282I-135814J0D01*
G01X-5873361Y-2393604D02*
G03X-5601733Y-2393604I135814J0D01*
G03X-5873361Y-2393604I-135814J0D01*
G01X-5154438Y-3632742D02*
G01X-5154438Y-3692741D01*
G03X-4962810Y-3692741I95814J0D01*
G01X-4962810Y-3632742D01*
G03X-5154438Y-3632742I-95814J0D01*
G01X-4967810Y-3197727D02*
G03X-5149438Y-3197727I-90814J0D01*
G01X-5149438Y-3287727D01*
G03X-4977425Y-3328394I90814J0D01*
G03X-4844793Y-3303098I62311J33648D01*
G03X-4967810Y-3247440I-70321J8352D01*
G01X-4967810Y-3197727D01*
G01X-4407432Y-3303103D02*
G03X-4274815Y-3328419I70320J8357D01*
G03X-4102813Y-3287727I81187J40692D01*
G01X-4102813Y-3197727D01*
G03X-4284441Y-3197727I-90814J0D01*
G01X-4284441Y-3247411D01*
G03X-4407432Y-3303103I-52671J-47335D01*
G01X-4289441Y-3632742D02*
G01X-4289441Y-3692741D01*
G03X-4097813Y-3692741I95814J0D01*
G01X-4097813Y-3632742D01*
G03X-4289441Y-3632742I-95814J0D01*
G01X-3372895Y632714D02*
G01X-3867110Y632714D01*
G03X-3901414Y618505I0J-48514D01*
G01X-3907505Y612414D01*
G01X-3915695Y612414D01*
G01X-3921786Y618505D01*
G03X-3956090Y632714I-34305J-34305D01*
G01X-3993390Y632714D01*
G03X-4104914Y584200I-45210J-48514D01*
G03X-3993390Y535686I66314J0D01*
G01X-3976186Y535686D01*
G01X-3970095Y529595D01*
G03X-3935790Y515386I34305J34305D01*
G01X-3887410Y515386D01*
G03X-3853105Y529595I0J48514D01*
G01X-3847014Y535686D01*
G01X-3352800Y535686D01*
G03X-3318495Y549895I0J48514D01*
G01X-3261564Y606827D01*
G03X-3217009Y719991I-2336J66273D01*
G03X-3330173Y675436I-46891J-46891D01*
G01X-3372895Y632714D01*
G01X-3189986Y1714500D02*
G03X-3251200Y1775714I-61214J0D01*
G01X-3848100Y1775714D01*
G03X-3909314Y1714500I0J-61214D01*
G01X-3909314Y1600200D01*
G03X-3848100Y1538986I61214J0D01*
G01X-3251200Y1538986D01*
G03X-3189986Y1600200I0J61214D01*
G01X-3189986Y1714500D01*
G01X-2661912Y-3674603D02*
G01X-2661912Y-3734603D01*
G03X-2470285Y-3734603I95814J0D01*
G01X-2470285Y-3674603D01*
G03X-2661912Y-3674603I-95814J0D01*
G01X-2475285Y-3239588D02*
G03X-2656912Y-3239588I-90814J0D01*
G01X-2656912Y-3329588D01*
G03X-2484899Y-3370255I90814J0D01*
G03X-2352267Y-3344959I62311J33648D01*
G03X-2475285Y-3289301I-70321J8352D01*
G01X-2475285Y-3239588D01*
G01X-2093214Y-3218405D02*
G01X-2199436Y-3324627D01*
G03X-2243991Y-3437791I2336J-66273D01*
G03X-2130827Y-3393236I46891J46891D01*
G01X-2010395Y-3272805D01*
G03X-1996186Y-3238500I-34305J34305D01*
G01X-1996186Y-2991610D01*
G03X-2044700Y-2880086I-48514J45210D01*
G03X-2093214Y-2991610I0J-66314D01*
G01X-2093214Y-3218405D01*
G01X-1914906Y-3344964D02*
G03X-1782289Y-3370280I70320J8357D01*
G03X-1610288Y-3329588I81187J40692D01*
G01X-1610288Y-3239588D01*
G03X-1791915Y-3239588I-90814J0D01*
G01X-1791915Y-3289273D01*
G03X-1914906Y-3344964I-52671J-47335D01*
G01X-1863539Y1214549D02*
G03X-1591911Y1214549I135814J0D01*
G03X-1863539Y1214549I-135814J0D01*
G01X-1849806Y-2379872D02*
G03X-1578178Y-2379872I135814J0D01*
G03X-1849806Y-2379872I-135814J0D01*
G01X-1796915Y-3674603D02*
G01X-1796915Y-3734603D01*
G03X-1605288Y-3734603I95814J0D01*
G01X-1605288Y-3674603D01*
G03X-1796915Y-3674603I-95814J0D01*
G01X-747014Y380172D02*
G03X-747014Y228031I49602J-76071D01*
G01X-747014Y134110D01*
G03X-698500Y22586I48514J-45210D01*
G03X-649986Y134110I0J66314D01*
G01X-649986Y213288D01*
G01X-607412Y213288D01*
G03X-566745Y385301I0J90814D01*
G03X-543402Y489646I-33648J62311D01*
G03X-649986Y498161I-56991J-42034D01*
G01X-649986Y975064D01*
G03X-543410Y983569I49594J50550D01*
G03X-566720Y1087911I-56982J42045D01*
G03X-607412Y1259912I-40692J81187D01*
G01X-697412Y1259912D01*
G03X-728585Y1254394I0J-90814D01*
G01X-797327Y1323136D01*
G03X-910491Y1367691I-66273J-2336D01*
G03X-865936Y1254527I46891J-46891D01*
G01X-787922Y1176513D01*
G03X-747014Y1093028I90511J-7415D01*
G01X-747014Y380172D01*
G01X-490545Y-2294399D02*
G03X-485707Y-2291533I-33648J62311D01*
G01X-485707Y-2297008D01*
G03X-490545Y-2294399I-45505J-78590D01*
G01X-490520Y-1591789D02*
G03X-485707Y-1589192I-40692J81187D01*
G01X-485707Y-1594642D01*
G03X-490520Y-1591789I-38486J-59444D01*
G01X-7641472Y1955153D02*
G01X-9022Y1955153D01*
G01X-9022Y-2422173D01*
G01X-1513435Y-3926586D01*
G01X-5994400Y-3926586D01*
G01X-7685619Y-2554667D01*
G01X-7641472Y1955153D01*
G01X-7367596Y-1374694D02*
G01X-7557596Y-1374694D01*
G03X-7557596Y-1566321I0J-95814D01*
G01X-7367596Y-1566321D01*
G03X-7367596Y-1374694I0J95814D01*
G01X-7367596Y-84679D02*
G01X-7557596Y-84679D01*
G03X-7557596Y-276306I0J-95814D01*
G01X-7367596Y-276306D01*
G03X-7367596Y-84679I0J95814D01*
G01X-5887093Y1228282D02*
G03X-5615465Y1228282I135814J0D01*
G03X-5887093Y1228282I-135814J0D01*
G01X-5873361Y-2393604D02*
G03X-5601733Y-2393604I135814J0D01*
G03X-5873361Y-2393604I-135814J0D01*
G01X-5154438Y-3632742D02*
G01X-5154438Y-3692741D01*
G03X-4962810Y-3692741I95814J0D01*
G01X-4962810Y-3632742D01*
G03X-5154438Y-3632742I-95814J0D01*
G01X-4967810Y-3197727D02*
G03X-5149438Y-3197727I-90814J0D01*
G01X-5149438Y-3287727D01*
G03X-4977425Y-3328394I90814J0D01*
G03X-4844793Y-3303098I62311J33648D01*
G03X-4967810Y-3247440I-70321J8352D01*
G01X-4967810Y-3197727D01*
G01X-4407432Y-3303103D02*
G03X-4274815Y-3328419I70320J8357D01*
G03X-4102813Y-3287727I81187J40692D01*
G01X-4102813Y-3197727D01*
G03X-4284441Y-3197727I-90814J0D01*
G01X-4284441Y-3247411D01*
G03X-4407432Y-3303103I-52671J-47335D01*
G01X-4289441Y-3632742D02*
G01X-4289441Y-3692741D01*
G03X-4097813Y-3692741I95814J0D01*
G01X-4097813Y-3632742D01*
G03X-4289441Y-3632742I-95814J0D01*
G01X-3372895Y632714D02*
G01X-3867110Y632714D01*
G03X-3901414Y618505I0J-48514D01*
G01X-3907505Y612414D01*
G01X-3915695Y612414D01*
G01X-3921786Y618505D01*
G03X-3956090Y632714I-34305J-34305D01*
G01X-3993390Y632714D01*
G03X-4104914Y584200I-45210J-48514D01*
G03X-3993390Y535686I66314J0D01*
G01X-3976186Y535686D01*
G01X-3970095Y529595D01*
G03X-3935790Y515386I34305J34305D01*
G01X-3887410Y515386D01*
G03X-3853105Y529595I0J48514D01*
G01X-3847014Y535686D01*
G01X-3352800Y535686D01*
G03X-3318495Y549895I0J48514D01*
G01X-3261564Y606827D01*
G03X-3217009Y719991I-2336J66273D01*
G03X-3330173Y675436I-46891J-46891D01*
G01X-3372895Y632714D01*
G01X-3189986Y1714500D02*
G03X-3251200Y1775714I-61214J0D01*
G01X-3848100Y1775714D01*
G03X-3909314Y1714500I0J-61214D01*
G01X-3909314Y1600200D01*
G03X-3848100Y1538986I61214J0D01*
G01X-3251200Y1538986D01*
G03X-3189986Y1600200I0J61214D01*
G01X-3189986Y1714500D01*
G01X-2661912Y-3674603D02*
G01X-2661912Y-3734603D01*
G03X-2470285Y-3734603I95814J0D01*
G01X-2470285Y-3674603D01*
G03X-2661912Y-3674603I-95814J0D01*
G01X-2475285Y-3239588D02*
G03X-2656912Y-3239588I-90814J0D01*
G01X-2656912Y-3329588D01*
G03X-2484899Y-3370255I90814J0D01*
G03X-2352267Y-3344959I62311J33648D01*
G03X-2475285Y-3289301I-70321J8352D01*
G01X-2475285Y-3239588D01*
G01X-2044700Y-2880086D02*
G03X-2093214Y-2991610I0J-66314D01*
G01X-2093214Y-3218405D01*
G01X-2199436Y-3324627D01*
G03X-2243991Y-3437791I2336J-66273D01*
G03X-2130827Y-3393236I46891J46891D01*
G01X-2010395Y-3272805D01*
G03X-1996186Y-3238500I-34305J34305D01*
G01X-1996186Y-2991610D01*
G03X-2044700Y-2880086I-48514J45210D01*
G01X-1914906Y-3344964D02*
G03X-1782289Y-3370280I70320J8357D01*
G03X-1610288Y-3329588I81187J40692D01*
G01X-1610288Y-3239588D01*
G03X-1791915Y-3239588I-90814J0D01*
G01X-1791915Y-3289273D01*
G03X-1914906Y-3344964I-52671J-47335D01*
G01X-1863539Y1214549D02*
G03X-1591911Y1214549I135814J0D01*
G03X-1863539Y1214549I-135814J0D01*
G01X-1849806Y-2379872D02*
G03X-1578178Y-2379872I135814J0D01*
G03X-1849806Y-2379872I-135814J0D01*
G01X-1796915Y-3674603D02*
G01X-1796915Y-3734603D01*
G03X-1605288Y-3734603I95814J0D01*
G01X-1605288Y-3674603D01*
G03X-1796915Y-3674603I-95814J0D01*
G01X-747014Y380172D02*
G03X-747014Y228031I49602J-76071D01*
G01X-747014Y134110D01*
G03X-698500Y22586I48514J-45210D01*
G03X-649986Y134110I0J66314D01*
G01X-649986Y213288D01*
G01X-607412Y213288D01*
G03X-566745Y385301I0J90814D01*
G03X-543402Y489646I-33648J62311D01*
G03X-649986Y498161I-56991J-42034D01*
G01X-649986Y975064D01*
G03X-543410Y983569I49594J50550D01*
G03X-566720Y1087911I-56982J42045D01*
G03X-607412Y1259912I-40692J81187D01*
G01X-697412Y1259912D01*
G03X-728585Y1254394I0J-90814D01*
G01X-797327Y1323136D01*
G03X-910491Y1367691I-66273J-2336D01*
G03X-865936Y1254527I46891J-46891D01*
G01X-787922Y1176513D01*
G03X-747014Y1093028I90511J-7415D01*
G01X-747014Y380172D01*
G01X-621212Y-2284785D02*
G03X-621212Y-2466412I0J-90814D01*
G01X-531212Y-2466412D01*
G03X-490545Y-2294399I0J90814D01*
G03X-515841Y-2161767I-33648J62311D01*
G03X-571499Y-2284785I-8352J-70321D01*
G01X-621212Y-2284785D01*
G01X-531212Y-1419788D02*
G01X-621212Y-1419788D01*
G03X-621212Y-1601415I0J-90814D01*
G01X-571527Y-1601415D01*
G03X-515836Y-1724406I47335J-52671D01*
G03X-490520Y-1591789I-8357J70320D01*
G03X-531212Y-1419788I-40692J81187D01*
G01X-262397Y208288D02*
G01X-202397Y208288D01*
G03X-202397Y399915I0J95814D01*
G01X-262397Y399915D01*
G03X-262397Y208288I0J-95814D01*
G01X-262397Y1073285D02*
G01X-202397Y1073285D01*
G03X-202397Y1264912I0J95814D01*
G01X-262397Y1264912D01*
G03X-262397Y1073285I0J-95814D01*
G01X-186197Y-2471412D02*
G01X-126197Y-2471412D01*
G03X-126197Y-2279785I0J95814D01*
G01X-186197Y-2279785D01*
G03X-186197Y-2471412I0J-95814D01*
G01X-186197Y-1606415D02*
G01X-126197Y-1606415D01*
G03X-126197Y-1414788I0J95814D01*
G01X-186197Y-1414788D01*
G03X-186197Y-1606415I0J-95814D01*
G54D11*
G01X-7462596Y-1410762D02*
G01X-7462596Y-1384854D01*
G01X-7462596Y-1530253D02*
G01X-7462596Y-1556161D01*
G01X-7307851Y-1470508D02*
G01X-7281943Y-1470508D01*
G01X-7617342Y-1470508D02*
G01X-7643250Y-1470508D01*
G01X-7462596Y-120747D02*
G01X-7462596Y-94839D01*
G01X-7462596Y-240238D02*
G01X-7462596Y-266146D01*
G01X-7307851Y-180492D02*
G01X-7281943Y-180492D01*
G01X-7617342Y-180492D02*
G01X-7643250Y-180492D01*
G01X-5113370Y-3242727D02*
G01X-5139278Y-3242727D01*
G01X-5003878Y-3242727D02*
G01X-4977970Y-3242727D01*
G01X-5058624Y-3142981D02*
G01X-5058624Y-3117073D01*
G01X-5058624Y-3342473D02*
G01X-5058624Y-3368381D01*
G01X-5118370Y-3662741D02*
G01X-5144278Y-3662741D01*
G01X-4998878Y-3662741D02*
G01X-4972970Y-3662741D01*
G01X-5058624Y-3572996D02*
G01X-5058624Y-3547088D01*
G01X-5058624Y-3752487D02*
G01X-5058624Y-3778395D01*
G01X-4248373Y-3242727D02*
G01X-4274281Y-3242727D01*
G01X-4138881Y-3242727D02*
G01X-4112973Y-3242727D01*
G01X-4193627Y-3142981D02*
G01X-4193627Y-3117073D01*
G01X-4193627Y-3342473D02*
G01X-4193627Y-3368381D01*
G01X-4253373Y-3662741D02*
G01X-4279281Y-3662741D01*
G01X-4133881Y-3662741D02*
G01X-4107973Y-3662741D01*
G01X-4193627Y-3572996D02*
G01X-4193627Y-3547088D01*
G01X-4193627Y-3752487D02*
G01X-4193627Y-3778395D01*
G01X-2620844Y-3284588D02*
G01X-2646752Y-3284588D01*
G01X-2511353Y-3284588D02*
G01X-2485445Y-3284588D01*
G01X-2566098Y-3184842D02*
G01X-2566098Y-3158934D01*
G01X-2566098Y-3384334D02*
G01X-2566098Y-3410242D01*
G01X-2625844Y-3704603D02*
G01X-2651752Y-3704603D01*
G01X-2506353Y-3704603D02*
G01X-2480445Y-3704603D01*
G01X-2566098Y-3614857D02*
G01X-2566098Y-3588949D01*
G01X-2566098Y-3794349D02*
G01X-2566098Y-3820257D01*
G01X-1755847Y-3284588D02*
G01X-1781755Y-3284588D01*
G01X-1646356Y-3284588D02*
G01X-1620448Y-3284588D01*
G01X-1701101Y-3184842D02*
G01X-1701101Y-3158934D01*
G01X-1701101Y-3384334D02*
G01X-1701101Y-3410242D01*
G01X-1760847Y-3704603D02*
G01X-1786755Y-3704603D01*
G01X-1641356Y-3704603D02*
G01X-1615448Y-3704603D01*
G01X-1701101Y-3614857D02*
G01X-1701101Y-3588949D01*
G01X-1701101Y-3794349D02*
G01X-1701101Y-3820257D01*
G01X-576212Y-2430344D02*
G01X-576212Y-2456252D01*
G01X-576212Y-2320853D02*
G01X-576212Y-2294945D01*
G01X-675957Y-2375598D02*
G01X-701865Y-2375598D01*
G01X-576212Y-1565347D02*
G01X-576212Y-1591255D01*
G01X-576212Y-1455856D02*
G01X-576212Y-1429948D01*
G01X-675957Y-1510601D02*
G01X-701865Y-1510601D01*
G01X-7462596Y-1410762D02*
G01X-7462596Y-1384854D01*
G01X-7462596Y-1530253D02*
G01X-7462596Y-1556161D01*
G01X-7307851Y-1470508D02*
G01X-7281943Y-1470508D01*
G01X-7617342Y-1470508D02*
G01X-7643250Y-1470508D01*
G01X-7462596Y-120747D02*
G01X-7462596Y-94839D01*
G01X-7462596Y-240238D02*
G01X-7462596Y-266146D01*
G01X-7307851Y-180492D02*
G01X-7281943Y-180492D01*
G01X-7617342Y-180492D02*
G01X-7643250Y-180492D01*
G01X-5113370Y-3242727D02*
G01X-5139278Y-3242727D01*
G01X-5003878Y-3242727D02*
G01X-4977970Y-3242727D01*
G01X-5058624Y-3142981D02*
G01X-5058624Y-3117073D01*
G01X-5058624Y-3342473D02*
G01X-5058624Y-3368381D01*
G01X-5118370Y-3662741D02*
G01X-5144278Y-3662741D01*
G01X-4998878Y-3662741D02*
G01X-4972970Y-3662741D01*
G01X-5058624Y-3572996D02*
G01X-5058624Y-3547088D01*
G01X-5058624Y-3752487D02*
G01X-5058624Y-3778395D01*
G01X-4248373Y-3242727D02*
G01X-4274281Y-3242727D01*
G01X-4138881Y-3242727D02*
G01X-4112973Y-3242727D01*
G01X-4193627Y-3142981D02*
G01X-4193627Y-3117073D01*
G01X-4193627Y-3342473D02*
G01X-4193627Y-3368381D01*
G01X-4253373Y-3662741D02*
G01X-4279281Y-3662741D01*
G01X-4133881Y-3662741D02*
G01X-4107973Y-3662741D01*
G01X-4193627Y-3572996D02*
G01X-4193627Y-3547088D01*
G01X-4193627Y-3752487D02*
G01X-4193627Y-3778395D01*
G01X-2620844Y-3284588D02*
G01X-2646752Y-3284588D01*
G01X-2511353Y-3284588D02*
G01X-2485445Y-3284588D01*
G01X-2566098Y-3184842D02*
G01X-2566098Y-3158934D01*
G01X-2566098Y-3384334D02*
G01X-2566098Y-3410242D01*
G01X-2625844Y-3704603D02*
G01X-2651752Y-3704603D01*
G01X-2506353Y-3704603D02*
G01X-2480445Y-3704603D01*
G01X-2566098Y-3614857D02*
G01X-2566098Y-3588949D01*
G01X-2566098Y-3794349D02*
G01X-2566098Y-3820257D01*
G01X-1755847Y-3284588D02*
G01X-1781755Y-3284588D01*
G01X-1646356Y-3284588D02*
G01X-1620448Y-3284588D01*
G01X-1701101Y-3184842D02*
G01X-1701101Y-3158934D01*
G01X-1701101Y-3384334D02*
G01X-1701101Y-3410242D01*
G01X-1760847Y-3704603D02*
G01X-1786755Y-3704603D01*
G01X-1641356Y-3704603D02*
G01X-1615448Y-3704603D01*
G01X-1701101Y-3614857D02*
G01X-1701101Y-3588949D01*
G01X-1701101Y-3794349D02*
G01X-1701101Y-3820257D01*
G01X-576212Y-2430344D02*
G01X-576212Y-2456252D01*
G01X-576212Y-2320853D02*
G01X-576212Y-2294945D01*
G01X-675957Y-2375598D02*
G01X-701865Y-2375598D01*
G01X-476466Y-2375598D02*
G01X-450558Y-2375598D01*
G01X-576212Y-1565347D02*
G01X-576212Y-1591255D01*
G01X-576212Y-1455856D02*
G01X-576212Y-1429948D01*
G01X-675957Y-1510601D02*
G01X-701865Y-1510601D01*
G01X-476466Y-1510601D02*
G01X-450558Y-1510601D01*
G01X-156197Y-1570347D02*
G01X-156197Y-1596255D01*
G01X-156197Y-1450856D02*
G01X-156197Y-1424948D01*
G01X-245943Y-1510601D02*
G01X-271851Y-1510601D01*
G01X-66451Y-1510601D02*
G01X-40543Y-1510601D01*
G01X-156197Y-2435344D02*
G01X-156197Y-2461252D01*
G01X-156197Y-2315853D02*
G01X-156197Y-2289945D01*
G01X-245943Y-2375598D02*
G01X-271851Y-2375598D01*
G01X-66451Y-2375598D02*
G01X-40543Y-2375598D01*
G04 Copper End*

G04 Pad Start*
G54D12*
G01X-652412Y304102D03*
G01X-652412Y1169099D03*
G54D13*
G01X-232397Y304102D03*
G01X-232397Y1169099D03*
G54D12*
G01X-576212Y-2375598D03*
G01X-576212Y-1510601D03*
G54D13*
G01X-156197Y-2375598D03*
G01X-156197Y-1510601D03*
G54D14*
G01X-2566098Y-3284588D03*
G01X-1701101Y-3284588D03*
G54D15*
G01X-2566098Y-3704603D03*
G01X-1701101Y-3704603D03*
G54D16*
G01X-7462596Y-1470508D03*
G01X-7462596Y-180492D03*
G54D14*
G01X-5058624Y-3242727D03*
G01X-4193627Y-3242727D03*
G54D15*
G01X-5058624Y-3662741D03*
G01X-4193627Y-3662741D03*
G04 Pad End*

G04 Via Start*
G54D18*
G01X-2197100Y-3390900D03*
G01X-2044700Y-2946400D03*
G01X-3048000Y914400D03*
G01X-2622550Y857250D03*
G01X-3200400Y901700D03*
G01X-3911600Y622300D03*
G01X-850900Y317500D03*
G01X-1086002Y292100D03*
G01X-1308100Y520700D03*
G01X-1041400Y1041400D03*
G01X-889000Y1143000D03*
G01X-1231900Y-546100D03*
G01X-635000Y-584200D03*
G01X-596900Y-914400D03*
G01X-622300Y-1130300D03*
G01X-863600Y1320800D03*
G01X-698500Y88900D03*
G01X-4038600Y584200D03*
G01X-3263900Y673100D03*
G01X-7518400Y2070100D03*
G04 Via End*

G04 Track Start*
G54D11*
G01X-2197100Y-3390900D02*
G01X-2044700Y-3238500D01*
G01X-2044700Y-2946400D01*
G01X-863600Y1320800D02*
G01X-698500Y1155700D01*
G01X-698500Y88900D01*
G01X-3352800Y584200D02*
G01X-3263900Y673100D01*
G01X-4038600Y584200D02*
G01X-3956090Y584200D01*
G01X-3935790Y563900D01*
G01X-3887410Y563900D01*
G01X-3867110Y584200D01*
G01X-3352800Y584200D01*
G04 Track End*

M02*

