G04 Layer: DrillDrawingLayer*
G04 EasyEDA Pro v2.2.47.7, 2026-05-23 16:47:23*
G04 Gerber Generator version 0.3*
G04 Scale: 100 percent, Rotated: No, Reflected: No*
G04 Dimensions in millimeters*
G04 Leading zeros omitted, absolute positions, 4 integers and 5 decimals*
G04 Generated by one-click*
G04 Object Configs: Pad,Via,Track,Text,Image,Dimension,BoardOutline,BoardCutout,CopperFilled,SolidRegion,FPCStiffener,Line,PlaneZone,ComponentProperty,ComponentSilkscreen,TearDrop*
G04 Layer Configs: 1,2,3,4,5,6,7,8,9,10,11,13,14,56*
G04 Copper Areas: 0*
%FSLAX45Y45*%
%MOMM*%
%AMIconRect*4,1,4,0.28,-0.28,-0.28,-0.28,-0.28,0.28,0.28,0.28,0.28,-0.28,0*4,0,4,0.233333,-0.233333,0.233333,0.233333,-0.233333,0.233333,-0.233333,-0.233333,0.233333,-0.233333,0*%
%AMIconTriangle*4,1,3,-0.339593,0.240473,0.339593,0.240473,0,-0.37884,-0.339593,0.240473,0*4,0,3,-0.265673,0.19404,0,-0.27342,0.266233,0.19404,-0.265673,0.19404,0*%
%AMIconStar6*4,1,12,0.12068,0.20888,0.298527,0.172713,0.241313,0,0.298527,-0.17206,0.12068,-0.208227,0,-0.344073,-0.120073,-0.208227,-0.298573,-0.17206,-0.240707,0,-0.298573,0.17206,-0.120073,0.20888,0,0.344073,0.12068,0.20888,0*4,0,12,-0.000467,0.273467,-0.090067,0.171733,-0.237533,0.136733,-0.193667,-0.007467,-0.237533,-0.1372,-0.090067,-0.171733,-0.000467,-0.273933,0.090067,-0.171733,0.237533,-0.1372,0.194133,0.007,0.237533,0.1372,0.090067,0.171267,-0.000467,0.273467,0*%
%AMIconStar4*4,1,8,-0.311733,0.311733,0,0.202533,0.311733,0.311733,0.202533,0,0.311733,-0.311733,0,-0.202533,-0.304407,-0.311733,-0.202533,0,-0.311733,0.311733,0*4,0,8,0.233333,-0.233333,0.1512,0,0.233333,0.233333,0,0.1512,-0.233333,0.233333,-0.1512,0,-0.233333,-0.233333,0,-0.1512,0.233333,-0.233333,0*%
%AMIconPlus*4,1,12,0.1736,-0.28,-0.1736,-0.28,-0.1736,-0.1736,-0.28,-0.1736,-0.28,0.1736,-0.1736,0.1736,-0.1736,0.28,0.1736,0.28,0.1736,0.1736,0.28,0.1736,0.28,-0.1736,0.1736,-0.1736,0.1736,-0.28,0*4,0,12,0.126933,-0.233333,0.126933,-0.126933,0.233333,-0.126933,0.233333,0.126933,0.126933,0.126933,0.126933,0.233333,-0.126933,0.233333,-0.126933,0.126933,-0.233333,0.126933,-0.233333,-0.126933,-0.126933,-0.126933,-0.126933,-0.233333,0.126933,-0.233333,0*%
%ADD10IconRect*%
%ADD11C,0.616X0.522667*%
%ADD12IconTriangle*%
%ADD13IconStar6*%
%ADD14IconStar4*%
%ADD15IconPlus*%
G75*


G04 Drill Drawing Start*
G54D10*
G01X-7462596Y-1470508D03*
G01X-7462596Y-180492D03*
G54D11*
G01X-5751279Y1228282D03*
G01X-5737547Y-2393604D03*
G01X-1727725Y1214549D03*
G01X-1713993Y-2379872D03*
G54D12*
G01X-5058624Y-3242727D03*
G01X-4193627Y-3242727D03*
G01X-2566098Y-3284588D03*
G01X-1701101Y-3284588D03*
G01X-652412Y304102D03*
G01X-652412Y1169099D03*
G01X-576212Y-2375598D03*
G01X-576212Y-1510601D03*
G54D13*
G01X-5058624Y-3662741D03*
G01X-4193627Y-3662741D03*
G01X-2566098Y-3704603D03*
G01X-1701101Y-3704603D03*
G01X-232397Y304102D03*
G01X-232397Y1169099D03*
G01X-156197Y-2375598D03*
G01X-156197Y-1510601D03*
G54D14*
G01X-4915114Y-3294746D03*
G01X-4337112Y-3294746D03*
G01X-2422588Y-3336607D03*
G01X-1844586Y-3336607D03*
G01X-600392Y447612D03*
G01X-600392Y1025614D03*
G01X-524192Y-2232088D03*
G01X-524192Y-1654086D03*
G54D15*
G01X-7518400Y2070100D03*
G01X-4038600Y584200D03*
G01X-3911600Y622300D03*
G01X-3263900Y673100D03*
G01X-3200400Y901700D03*
G01X-3048000Y914400D03*
G01X-2622550Y857250D03*
G01X-2197100Y-3390900D03*
G01X-2044700Y-2946400D03*
G01X-1308100Y520700D03*
G01X-1231900Y-546100D03*
G01X-1086002Y292100D03*
G01X-1041400Y1041400D03*
G01X-889000Y1143000D03*
G01X-863600Y1320800D03*
G01X-850900Y317500D03*
G01X-698500Y88900D03*
G01X-635000Y-584200D03*
G01X-622300Y-1130300D03*
G01X-596900Y-914400D03*
G04 Drill Drawing End*

M02*

