G04 Layer: TopSolderMaskLayer*
G04 EasyEDA Pro v2.2.47.7, 2026-05-23 16:47:23*
G04 Gerber Generator version 0.3*
G04 Scale: 100 percent, Rotated: No, Reflected: No*
G04 Dimensions in millimeters*
G04 Leading zeros omitted, absolute positions, 4 integers and 5 decimals*
G04 Generated by one-click*
G04 Object Configs: Pad,Via,Track,Text,Image,Dimension,BoardOutline,BoardCutout,CopperFilled,SolidRegion,FPCStiffener,Line,PlaneZone,ComponentProperty,ComponentSilkscreen,TearDrop*
G04 Layer Configs: 1,2,3,4,5,6,7,8,9,10,11,13,14,56*
G04 Copper Areas: 0*
%FSLAX45Y45*%
%MOMM*%
%AMRoundRect*1,1,$1,$2,$3*1,1,$1,$4,$5*1,1,$1,0-$2,0-$3*1,1,$1,0-$4,0-$5*20,1,$1,$2,$3,$4,$5,0*20,1,$1,$4,$5,0-$2,0-$3,0*20,1,$1,0-$2,0-$3,0-$4,0-$5,0*20,1,$1,0-$4,0-$5,$2,$3,0*4,1,4,$2,$3,$4,$5,0-$2,0-$3,0-$4,0-$5,$2,$3,0*%
%ADD10RoundRect,0.09131X-0.40514X0.45514X0.40514X0.45514*%
%ADD11RoundRect,0.09138X-0.40835X0.43711X0.40835X0.43711*%
%ADD12RoundRect,0.09138X-0.43711X-0.40835X-0.43711X0.40835*%
%ADD13RoundRect,0.0778X-0.61111X0.13612X0.61111X0.13612*%
%ADD14RoundRect,0.08669X-0.55667X-0.28168X-0.55667X0.28168*%
%ADD15RoundRect,0.0828X-0.56X-0.16X-0.56X0.16*%
%ADD16RoundRect,0.08002X-0.56X-0.16X-0.56X0.16*%
%ADD17O,2.10002X1.20002*%
%ADD18O,1.90002X1.30002*%
%ADD19RoundRect,0.08669X-0.28168X0.55667X0.28168X0.55667*%
%ADD20RoundRect,0.08002X-0.16X0.56X0.16X0.56*%
%ADD21O,1.20002X2.10002*%
%ADD22O,1.30002X1.90002*%
%ADD23RoundRect,0.0938X-1.4439X-0.56389X-1.4439X0.56389*%
%ADD24O,3.20159X1.3016*%
G75*


G04 Pad Start*
G54D10*
G01X-945998Y444500D03*
G01X-1086002Y444500D03*
G01X-336398Y-800100D03*
G01X-476402Y-800100D03*
G01X-285598Y-1117600D03*
G01X-425602Y-1117600D03*
G01X-920598Y-533400D03*
G01X-1060602Y-533400D03*
G01X-2774798Y952500D03*
G01X-2914802Y952500D03*
G01X-2774798Y787400D03*
G01X-2914802Y787400D03*
G01X-3816502Y1041400D03*
G01X-3676498Y1041400D03*
G01X-3663798Y850900D03*
G01X-3803802Y850900D03*
G01X-3638398Y673100D03*
G01X-3778402Y673100D03*
G01X-4349902Y546100D03*
G01X-4209898Y546100D03*
G54D11*
G01X-927964Y609600D03*
G01X-1078636Y609600D03*
G01X-915264Y901700D03*
G01X-1065936Y901700D03*
G01X-951636Y-1778000D03*
G01X-800964Y-1778000D03*
G01X-933798Y-2066440D03*
G01X-783125Y-2066440D03*
G54D12*
G01X-1866900Y-2921864D03*
G01X-1866900Y-3072536D03*
G01X-2260600Y-2883764D03*
G01X-2260600Y-3034436D03*
G54D13*
G01X-3096590Y398704D03*
G01X-3096590Y451714D03*
G01X-3096590Y504698D03*
G01X-3096590Y557708D03*
G01X-3096590Y610692D03*
G01X-3096590Y663702D03*
G01X-3096590Y716712D03*
G01X-3096590Y769696D03*
G01X-3456610Y769696D03*
G01X-3456610Y716712D03*
G01X-3456610Y663702D03*
G01X-3456610Y610692D03*
G01X-3456610Y557708D03*
G01X-3456610Y504698D03*
G01X-3456610Y451714D03*
G01X-3456610Y398704D03*
G54D14*
G01X-707403Y416598D03*
G01X-707403Y496608D03*
G54D16*
G01X-707403Y561607D03*
G01X-707403Y611619D03*
G01X-707403Y661607D03*
G01X-707403Y711594D03*
G01X-707403Y761606D03*
G01X-707403Y811594D03*
G01X-707403Y861606D03*
G01X-707403Y911619D03*
G54D14*
G01X-707403Y976617D03*
G01X-707403Y1056602D03*
G54D17*
G01X-652412Y304102D03*
G01X-652412Y1169099D03*
G54D18*
G01X-232397Y304102D03*
G01X-232397Y1169099D03*
G54D14*
G01X-631203Y-2263102D03*
G01X-631203Y-2183092D03*
G54D16*
G01X-631203Y-2118093D03*
G01X-631203Y-2068081D03*
G01X-631203Y-2018093D03*
G01X-631203Y-1968106D03*
G01X-631203Y-1918094D03*
G01X-631203Y-1868106D03*
G01X-631203Y-1818094D03*
G01X-631203Y-1768081D03*
G54D14*
G01X-631203Y-1703083D03*
G01X-631203Y-1623098D03*
G54D17*
G01X-576212Y-2375598D03*
G01X-576212Y-1510601D03*
G54D18*
G01X-156197Y-2375598D03*
G01X-156197Y-1510601D03*
G54D19*
G01X-2453602Y-3229597D03*
G01X-2373592Y-3229597D03*
G54D20*
G01X-2308593Y-3229597D03*
G01X-2258581Y-3229597D03*
G01X-2208593Y-3229597D03*
G01X-2158606Y-3229597D03*
G01X-2108594Y-3229597D03*
G01X-2058606Y-3229597D03*
G01X-2008594Y-3229597D03*
G01X-1958581Y-3229597D03*
G54D19*
G01X-1893583Y-3229597D03*
G01X-1813598Y-3229597D03*
G54D21*
G01X-2566098Y-3284588D03*
G01X-1701101Y-3284588D03*
G54D22*
G01X-2566098Y-3704603D03*
G01X-1701101Y-3704603D03*
G54D23*
G01X-6583604Y-1175487D03*
G01X-6583604Y-925500D03*
G01X-6583604Y-725500D03*
G01X-6583604Y-475513D03*
G54D24*
G01X-7462596Y-1470508D03*
G01X-7462596Y-180492D03*
G54D10*
G01X-5430678Y-3670461D03*
G01X-5290673Y-3670461D03*
G54D12*
G01X-4455670Y-2884237D03*
G01X-4455670Y-3034910D03*
G01X-4755275Y-2874832D03*
G01X-4755275Y-3025505D03*
G54D19*
G01X-4946128Y-3187736D03*
G01X-4866118Y-3187736D03*
G54D20*
G01X-4801119Y-3187736D03*
G01X-4751107Y-3187736D03*
G01X-4701119Y-3187736D03*
G01X-4651132Y-3187736D03*
G01X-4601120Y-3187736D03*
G01X-4551132Y-3187736D03*
G01X-4501120Y-3187736D03*
G01X-4451107Y-3187736D03*
G54D19*
G01X-4386109Y-3187736D03*
G01X-4306124Y-3187736D03*
G54D21*
G01X-5058624Y-3242727D03*
G01X-4193627Y-3242727D03*
G54D22*
G01X-5058624Y-3662741D03*
G01X-4193627Y-3662741D03*
G04 Pad End*

M02*

